<svg width="20" height="20" viewBox="0 0 20 20" fill="none" xmlns="http://www.w3.org/2000/svg">
<path fill-rule="evenodd" clip-rule="evenodd" d="M1.66663 2.49996C1.66663 2.03972 2.03972 1.66663 2.49996 1.66663H8.33329C8.79353 1.66663 9.16663 2.03972 9.16663 2.49996V8.33329C9.16663 8.79353 8.79353 9.16663 8.33329 9.16663H2.49996C2.03972 9.16663 1.66663 8.79353 1.66663 8.33329V2.49996ZM3.33329 3.33329V7.49996H7.49996V3.33329H3.33329Z" fill="#828FA2"/>
<path fill-rule="evenodd" clip-rule="evenodd" d="M10.8334 2.49996C10.8334 2.03972 11.2065 1.66663 11.6667 1.66663H17.5C17.9603 1.66663 18.3334 2.03972 18.3334 2.49996V8.33329C18.3334 8.79353 17.9603 9.16663 17.5 9.16663H11.6667C11.2065 9.16663 10.8334 8.79353 10.8334 8.33329V2.49996ZM12.5 3.33329V7.49996H16.6667V3.33329H12.5Z" fill="#828FA2"/>
<path fill-rule="evenodd" clip-rule="evenodd" d="M10.8334 11.6667C10.8334 11.2065 11.2065 10.8334 11.6667 10.8334H17.5C17.9603 10.8334 18.3334 11.2065 18.3334 11.6667V17.5C18.3334 17.9603 17.9603 18.3334 17.5 18.3334H11.6667C11.2065 18.3334 10.8334 17.9603 10.8334 17.5V11.6667ZM12.5 12.5V16.6667H16.6667V12.5H12.5Z" fill="#828FA2"/>
<path fill-rule="evenodd" clip-rule="evenodd" d="M1.66663 11.6667C1.66663 11.2065 2.03972 10.8334 2.49996 10.8334H8.33329C8.79353 10.8334 9.16663 11.2065 9.16663 11.6667V17.5C9.16663 17.9603 8.79353 18.3334 8.33329 18.3334H2.49996C2.03972 18.3334 1.66663 17.9603 1.66663 17.5V11.6667ZM3.33329 12.5V16.6667H7.49996V12.5H3.33329Z" fill="#828FA2"/>
</svg>
