<svg width="194" height="194" viewBox="0 0 194 194" fill="none" xmlns="http://www.w3.org/2000/svg">
<path d="M61.7282 0H0.00137515V61.7268H61.7282V0ZM52.91 52.9087H8.81949V8.81811H52.91V52.9087Z" fill="#36414F"/>
<path d="M127.863 176.362H119.045V193.998H193.999V185.18H127.863V176.362Z" fill="#36414F"/>
<path d="M44.0908 17.6361H17.6365V44.0904H44.0908V17.6361Z" fill="#36414F"/>
<path d="M0 193.998H61.7268V132.272H0V193.998ZM8.81811 141.09H52.9087V185.18H8.81811V141.09Z" fill="#36414F"/>
<path d="M44.0908 149.908H17.6365V176.363H44.0908V149.908Z" fill="#36414F"/>
<path d="M132.272 0V61.7268H193.999V0H132.272ZM185.181 52.9087H141.09V8.81811H185.181V52.9087Z" fill="#36414F"/>
<path d="M176.363 17.6361H149.909V44.0904H176.363V17.6361Z" fill="#36414F"/>
<path d="M194 70.5449H176.364V88.1811H194V70.5449Z" fill="#36414F"/>
<path d="M17.6362 105.818H0V123.454H17.6362V105.818Z" fill="#36414F"/>
<path d="M92.5899 70.5449H57.3175V79.363H101.408V61.7268V52.9087H110.226V35.2724H101.408H92.5899H83.7718V17.6362H92.5899V26.4543H123.453V0H114.635V17.6362H101.408V0H96.999H79.3627H74.9537V44.0906H92.5899V52.9087H74.9537V61.7268H92.5899V70.5449Z" fill="#36414F"/>
<path d="M13.2272 96.9992H30.8634H39.6815H44.0906V105.817H26.4543V114.635H44.0906V123.454H79.363V114.635H52.9087V105.817V88.1811H39.6815V74.9539H30.8634V88.1811H22.0453V70.5449H0V79.363H13.2272V96.9992Z" fill="#36414F"/>
<path d="M97.0006 176.362V154.317H79.3644V136.68H70.5462V163.135H88.1825V176.362H70.5462V185.18H88.1825V193.998H110.228V185.18H97.0006V176.362Z" fill="#36414F"/>
<path d="M141.089 88.1814H123.453V66.1361H114.635V96.9995H158.726V88.1814H149.907V79.3633H163.135V70.5451H149.907H141.089H132.271V79.3633H141.089V88.1814Z" fill="#36414F"/>
<path d="M132.272 167.544H145.499V176.362H163.135V167.544V158.726V145.499H145.499V158.726H132.272V145.499H123.454V158.726H114.636V123.453H105.817V114.635H96.9994V88.181H66.136V105.817H74.9541V96.9991H88.1813V114.635V132.272H105.817V158.726V167.544H114.636H123.454H132.272Z" fill="#36414F"/>
<path d="M185.18 110.226H171.953H163.135H141.09V127.862H132.272V110.226H123.454V136.681H149.908V119.044H163.135V132.271H171.953V119.044H185.18V145.499H171.953V171.953H193.998V163.135H180.771V154.317H193.998V119.044V110.226V96.999H185.18V110.226Z" fill="#36414F"/>
</svg>
