<svg width="400" height="325" viewBox="0 0 400 325" fill="none" xmlns="http://www.w3.org/2000/svg">
<rect width="400" height="325" rx="10" fill="white"/>
<g clip-path="url(#clip0_443_2537)">
<path d="M249.499 266.005L246.646 266C243.441 266 241.37 268.125 241.37 271.414V273.91H238.501C238.253 273.91 238.053 274.111 238.053 274.359V277.976C238.053 278.224 238.254 278.425 238.501 278.425H241.37V287.551C241.37 287.799 241.57 288 241.818 288H245.561C245.809 288 246.009 287.799 246.009 287.551V278.425H249.363C249.611 278.425 249.812 278.224 249.812 277.976L249.813 274.359C249.813 274.24 249.766 274.126 249.682 274.042C249.598 273.958 249.483 273.91 249.364 273.91H246.009V271.794C246.009 270.777 246.252 270.261 247.577 270.261L249.499 270.26C249.746 270.26 249.947 270.059 249.947 269.812V266.453C249.947 266.206 249.746 266.005 249.499 266.005Z" fill="#0A033C"/>
</g>
<g clip-path="url(#clip1_443_2537)">
<path d="M378.921 285.373C378.968 285.373 379.015 285.364 379.058 285.346C379.102 285.328 379.141 285.301 379.173 285.267C379.206 285.233 379.231 285.193 379.247 285.149C379.264 285.105 379.271 285.059 379.268 285.012C379.268 284.756 379.112 284.634 378.792 284.634H378.275V285.973H378.47V285.389H378.709L378.714 285.397L379.085 285.973H379.293L378.894 285.376L378.921 285.373ZM378.696 285.238H378.47V284.786H378.756C378.904 284.786 379.072 284.809 379.072 285.001C379.072 285.221 378.902 285.238 378.695 285.238" fill="#0A033C"/>
<path d="M373.85 283.694H371.094V279.42C371.094 278.401 371.076 277.089 369.66 277.089C368.225 277.089 368.005 278.199 368.005 279.346V283.694H365.249V274.905H367.895V276.106H367.932C368.197 275.657 368.579 275.289 369.039 275.039C369.499 274.789 370.019 274.667 370.543 274.686C373.336 274.686 373.851 276.505 373.851 278.872L373.85 283.694ZM362.139 273.703C361.822 273.703 361.513 273.61 361.25 273.436C360.987 273.262 360.782 273.015 360.661 272.726C360.54 272.436 360.508 272.118 360.57 271.811C360.631 271.504 360.784 271.221 361.007 271C361.231 270.778 361.516 270.627 361.826 270.566C362.136 270.505 362.458 270.536 362.75 270.656C363.043 270.776 363.292 270.979 363.468 271.239C363.644 271.5 363.738 271.806 363.738 272.119C363.738 272.327 363.697 272.533 363.616 272.725C363.536 272.917 363.418 273.092 363.27 273.239C363.121 273.386 362.945 273.503 362.751 273.583C362.557 273.662 362.349 273.703 362.139 273.703ZM363.517 283.694H360.758V274.905H363.517V283.694ZM375.224 268.001H359.373C359.013 267.997 358.666 268.135 358.409 268.384C358.151 268.633 358.004 268.973 358 269.329V285.09C358.004 285.446 358.151 285.786 358.409 286.035C358.666 286.285 359.013 286.422 359.373 286.419H375.224C375.585 286.423 375.933 286.286 376.191 286.036C376.45 285.787 376.598 285.447 376.603 285.09V269.328C376.597 268.971 376.449 268.63 376.191 268.382C375.933 268.133 375.585 267.995 375.224 268" fill="#0A033C"/>
<path d="M378.72 284.037C378.384 284.041 378.064 284.175 377.828 284.412C377.593 284.648 377.462 284.967 377.463 285.299C377.465 285.631 377.599 285.949 377.837 286.184C378.075 286.418 378.396 286.549 378.732 286.549C379.067 286.549 379.389 286.418 379.627 286.184C379.864 285.949 379.999 285.631 380 285.299C380.002 284.967 379.871 284.648 379.635 284.412C379.4 284.175 379.079 284.041 378.744 284.037H378.72ZM378.72 286.405C378.5 286.409 378.284 286.348 378.099 286.23C377.914 286.112 377.768 285.942 377.681 285.743C377.593 285.543 377.567 285.322 377.607 285.107C377.646 284.893 377.749 284.695 377.902 284.539C378.055 284.382 378.251 284.274 378.466 284.228C378.681 284.182 378.905 284.2 379.11 284.28C379.314 284.36 379.49 284.498 379.616 284.677C379.741 284.856 379.81 285.068 379.813 285.286C379.813 285.292 379.813 285.298 379.813 285.304C379.819 285.59 379.711 285.867 379.511 286.073C379.311 286.279 379.037 286.399 378.749 286.405H378.72" fill="#0A033C"/>
</g>
<g clip-path="url(#clip2_443_2537)">
<path d="M327.946 285.527C336.194 285.527 340.704 278.812 340.704 272.989C340.704 272.799 340.7 272.609 340.691 272.42C341.566 271.798 342.327 271.021 342.927 270.138C342.124 270.489 341.259 270.725 340.353 270.832C341.278 270.286 341.989 269.423 342.324 268.394C341.458 268.899 340.499 269.266 339.477 269.464C338.659 268.607 337.494 268.072 336.204 268.072C333.728 268.072 331.72 270.045 331.72 272.478C331.72 272.823 331.76 273.16 331.837 273.482C328.11 273.298 324.806 271.545 322.594 268.878C322.209 269.529 321.987 270.286 321.987 271.093C321.987 272.622 322.779 273.972 323.983 274.761C323.247 274.739 322.556 274.54 321.952 274.21C321.951 274.229 321.951 274.247 321.951 274.266C321.951 276.401 323.497 278.182 325.548 278.586C325.172 278.687 324.775 278.741 324.366 278.741C324.078 278.741 323.797 278.713 323.524 278.662C324.094 280.413 325.75 281.687 327.712 281.722C326.177 282.905 324.244 283.609 322.143 283.609C321.782 283.609 321.425 283.588 321.074 283.548C323.058 284.798 325.414 285.527 327.947 285.527" fill="#0A033C"/>
</g>
<circle cx="288" cy="277" r="18" fill="#FF6652"/>
<path d="M288 270.454C286.223 270.454 286 270.462 285.302 270.494C284.605 270.526 284.129 270.636 283.713 270.798C283.282 270.965 282.917 271.189 282.554 271.553C282.189 271.916 281.966 272.282 281.798 272.712C281.636 273.128 281.525 273.604 281.494 274.301C281.463 274.999 281.455 275.222 281.455 277C281.455 278.777 281.462 279 281.494 279.698C281.526 280.395 281.636 280.87 281.798 281.286C281.966 281.717 282.189 282.082 282.553 282.446C282.917 282.81 283.282 283.034 283.712 283.201C284.129 283.363 284.604 283.474 285.301 283.505C285.999 283.537 286.222 283.545 288 283.545C289.777 283.545 290 283.537 290.698 283.505C291.395 283.474 291.871 283.363 292.287 283.201C292.718 283.034 293.082 282.81 293.446 282.446C293.81 282.082 294.034 281.717 294.201 281.287C294.362 280.87 294.473 280.394 294.505 279.698C294.537 279 294.545 278.777 294.545 277C294.545 275.222 294.537 274.999 294.505 274.301C294.473 273.604 294.362 273.128 294.201 272.712C294.034 272.282 293.81 271.916 293.446 271.553C293.082 271.188 292.718 270.965 292.287 270.798C291.87 270.636 291.394 270.526 290.697 270.494C289.999 270.462 289.776 270.454 287.998 270.454H288ZM287.413 271.634C287.587 271.633 287.782 271.634 288 271.634C289.748 271.634 289.955 271.64 290.645 271.671C291.283 271.7 291.63 271.807 291.86 271.897C292.166 272.015 292.384 272.157 292.613 272.386C292.842 272.615 292.984 272.834 293.102 273.139C293.192 273.369 293.299 273.716 293.328 274.354C293.359 275.044 293.366 275.251 293.366 276.998C293.366 278.745 293.359 278.952 293.328 279.642C293.299 280.28 293.192 280.627 293.102 280.857C292.984 281.163 292.842 281.38 292.613 281.609C292.384 281.838 292.166 281.98 291.86 282.099C291.63 282.189 291.283 282.295 290.645 282.324C289.955 282.356 289.748 282.362 288 282.362C286.253 282.362 286.046 282.356 285.356 282.324C284.717 282.295 284.371 282.188 284.14 282.098C283.835 281.98 283.617 281.838 283.387 281.609C283.158 281.38 283.017 281.162 282.898 280.857C282.808 280.626 282.701 280.28 282.672 279.642C282.641 278.952 282.635 278.744 282.635 276.996C282.635 275.249 282.641 275.042 282.672 274.352C282.701 273.714 282.808 273.368 282.898 273.137C283.016 272.832 283.158 272.613 283.387 272.384C283.617 272.155 283.835 272.013 284.14 271.895C284.371 271.805 284.717 271.698 285.356 271.669C285.959 271.642 286.193 271.633 287.413 271.632V271.634ZM291.494 272.72C291.061 272.72 290.709 273.072 290.709 273.506C290.709 273.939 291.061 274.291 291.494 274.291C291.928 274.291 292.28 273.939 292.28 273.506C292.28 273.072 291.928 272.72 291.494 272.72V272.72ZM288 273.638C286.144 273.638 284.639 275.143 284.639 277C284.639 278.856 286.144 280.36 288 280.36C289.857 280.36 291.361 278.856 291.361 277C291.361 275.143 289.857 273.638 288 273.638H288ZM288 274.818C289.205 274.818 290.182 275.795 290.182 277C290.182 278.204 289.205 279.181 288 279.181C286.795 279.181 285.819 278.204 285.819 277C285.819 275.795 286.795 274.818 288 274.818Z" fill="white"/>
<path d="M345.558 173.455H348.533L352.092 179.889H352.234L355.792 173.455H358.768L353.477 182.574V188H350.849V182.574L345.558 173.455ZM363.319 188.213C362.225 188.213 361.28 187.986 360.485 187.531C359.694 187.072 359.086 186.423 358.659 185.585C358.233 184.742 358.02 183.75 358.02 182.609C358.02 181.487 358.233 180.502 358.659 179.655C359.09 178.803 359.692 178.14 360.463 177.666C361.235 177.188 362.142 176.949 363.184 176.949C363.856 176.949 364.49 177.058 365.087 177.276C365.688 177.489 366.219 177.82 366.678 178.27C367.142 178.72 367.507 179.293 367.772 179.989C368.037 180.68 368.169 181.504 368.169 182.46V183.249H359.228V181.516H365.705C365.7 181.023 365.594 180.585 365.385 180.202C365.177 179.813 364.886 179.508 364.512 179.286C364.142 179.063 363.712 178.952 363.219 178.952C362.694 178.952 362.232 179.08 361.834 179.335C361.436 179.586 361.126 179.918 360.904 180.33C360.686 180.737 360.575 181.184 360.57 181.672V183.185C360.57 183.819 360.686 184.364 360.918 184.818C361.15 185.268 361.474 185.614 361.891 185.855C362.308 186.092 362.795 186.21 363.354 186.21C363.728 186.21 364.067 186.158 364.37 186.054C364.673 185.945 364.935 185.786 365.158 185.578C365.381 185.37 365.549 185.112 365.662 184.804L368.063 185.074C367.911 185.708 367.623 186.262 367.196 186.736C366.775 187.205 366.235 187.569 365.577 187.83C364.919 188.085 364.166 188.213 363.319 188.213ZM378.967 179.974L376.623 180.23C376.557 179.993 376.441 179.771 376.275 179.562C376.114 179.354 375.896 179.186 375.621 179.058C375.347 178.93 375.011 178.866 374.613 178.866C374.078 178.866 373.628 178.982 373.263 179.214C372.904 179.446 372.726 179.747 372.731 180.116C372.726 180.434 372.842 180.692 373.079 180.891C373.32 181.089 373.718 181.253 374.272 181.381L376.133 181.778C377.165 182.001 377.932 182.354 378.434 182.837C378.941 183.32 379.196 183.952 379.201 184.733C379.196 185.42 378.995 186.026 378.597 186.551C378.204 187.072 377.657 187.479 376.957 187.773C376.256 188.066 375.451 188.213 374.542 188.213C373.207 188.213 372.132 187.934 371.317 187.375C370.503 186.812 370.018 186.028 369.862 185.024L372.369 184.783C372.482 185.275 372.724 185.647 373.093 185.898C373.462 186.149 373.943 186.274 374.535 186.274C375.146 186.274 375.636 186.149 376.005 185.898C376.379 185.647 376.566 185.337 376.566 184.967C376.566 184.655 376.445 184.397 376.204 184.193C375.967 183.99 375.598 183.833 375.096 183.724L373.235 183.334C372.189 183.116 371.415 182.749 370.913 182.233C370.411 181.712 370.162 181.054 370.167 180.259C370.162 179.586 370.344 179.004 370.714 178.511C371.088 178.014 371.606 177.631 372.269 177.361C372.937 177.086 373.706 176.949 374.577 176.949C375.856 176.949 376.862 177.221 377.596 177.766C378.335 178.31 378.791 179.046 378.967 179.974Z" fill="#0A033C"/>
<path d="M31.179 178.099C31.0606 177.716 30.8973 177.373 30.6889 177.07C30.4853 176.762 30.2391 176.499 29.9503 176.281C29.6662 176.063 29.3395 175.9 28.9702 175.791C28.6009 175.678 28.1984 175.621 27.7628 175.621C26.9815 175.621 26.2855 175.817 25.6747 176.21C25.0639 176.603 24.5833 177.181 24.233 177.943C23.8873 178.701 23.7145 179.624 23.7145 180.713C23.7145 181.812 23.8873 182.742 24.233 183.504C24.5786 184.267 25.0592 184.847 25.6747 185.244C26.2902 185.637 27.0052 185.834 27.8196 185.834C28.5582 185.834 29.1974 185.692 29.7372 185.408C30.2817 185.124 30.7008 184.721 30.9943 184.2C31.2879 183.675 31.4347 183.059 31.4347 182.354L32.0312 182.446H28.0824V180.386H33.9844V182.134C33.9844 183.379 33.7192 184.456 33.1889 185.365C32.6586 186.274 31.9295 186.975 31.0014 187.467C30.0734 187.955 29.008 188.199 27.8054 188.199C26.4654 188.199 25.2888 187.898 24.2756 187.297C23.267 186.691 22.4787 185.831 21.9105 184.719C21.3471 183.601 21.0653 182.276 21.0653 180.741C21.0653 179.567 21.2311 178.518 21.5625 177.595C21.8987 176.672 22.3674 175.888 22.9688 175.244C23.5701 174.596 24.2756 174.103 25.0852 173.767C25.8949 173.426 26.7756 173.256 27.7273 173.256C28.5322 173.256 29.2827 173.374 29.9787 173.611C30.6747 173.843 31.2926 174.174 31.8324 174.605C32.3769 175.036 32.8243 175.547 33.1747 176.139C33.5251 176.731 33.7547 177.384 33.8636 178.099H31.179ZM36.4187 188V177.091H38.9116V178.909H39.0252C39.2241 178.279 39.565 177.794 40.0479 177.453C40.5356 177.107 41.092 176.935 41.717 176.935C41.859 176.935 42.0176 176.942 42.1928 176.956C42.3728 176.965 42.5219 176.982 42.6403 177.006V179.371C42.5314 179.333 42.3585 179.3 42.1218 179.271C41.8898 179.238 41.6649 179.222 41.4471 179.222C40.9783 179.222 40.5569 179.323 40.1829 179.527C39.8136 179.726 39.5224 180.003 39.3093 180.358C39.0962 180.713 38.9897 181.123 38.9897 181.587V188H36.4187ZM47.2923 188.22C46.601 188.22 45.9783 188.097 45.4244 187.851C44.8751 187.6 44.4395 187.231 44.1175 186.743C43.8003 186.255 43.6417 185.654 43.6417 184.939C43.6417 184.323 43.7553 183.814 43.9826 183.412C44.2099 183.009 44.52 182.688 44.913 182.446C45.306 182.205 45.7487 182.022 46.2411 181.899C46.7383 181.771 47.252 181.679 47.7823 181.622C48.4215 181.556 48.94 181.497 49.3377 181.445C49.7354 181.388 50.0243 181.303 50.2042 181.189C50.3888 181.071 50.4812 180.888 50.4812 180.642V180.599C50.4812 180.064 50.3226 179.65 50.0053 179.357C49.6881 179.063 49.2312 178.916 48.6346 178.916C48.0049 178.916 47.5053 179.054 47.136 179.328C46.7714 179.603 46.5252 179.927 46.3974 180.301L43.9968 179.96C44.1862 179.297 44.4987 178.743 44.9343 178.298C45.3699 177.848 45.9026 177.512 46.5323 177.29C47.1621 177.062 47.8581 176.949 48.6204 176.949C49.146 176.949 49.6692 177.01 50.19 177.134C50.7108 177.257 51.1867 177.46 51.6175 177.744C52.0484 178.024 52.3941 178.405 52.6545 178.888C52.9196 179.371 53.0522 179.974 53.0522 180.699V188H50.5806V186.501H50.4954C50.3391 186.804 50.119 187.089 49.8349 187.354C49.5555 187.614 49.2028 187.825 48.7766 187.986C48.3552 188.142 47.8604 188.22 47.2923 188.22ZM47.9599 186.331C48.476 186.331 48.9234 186.229 49.3022 186.026C49.681 185.817 49.9722 185.543 50.1758 185.202C50.3841 184.861 50.4883 184.489 50.4883 184.087V182.801C50.4078 182.867 50.2705 182.929 50.0763 182.986C49.887 183.043 49.6739 183.092 49.4371 183.135C49.2004 183.178 48.966 183.215 48.734 183.249C48.502 183.282 48.3008 183.31 48.1303 183.334C47.7468 183.386 47.4035 183.471 47.1005 183.589C46.7975 183.708 46.5584 183.874 46.3832 184.087C46.208 184.295 46.1204 184.565 46.1204 184.896C46.1204 185.37 46.2932 185.727 46.6388 185.969C46.9845 186.21 47.4248 186.331 47.9599 186.331ZM59.6857 188.192C58.8287 188.192 58.0617 187.972 57.3846 187.531C56.7075 187.091 56.1725 186.452 55.7795 185.614C55.3865 184.776 55.19 183.758 55.19 182.56C55.19 181.348 55.3888 180.325 55.7866 179.491C56.189 178.653 56.7312 178.021 57.413 177.595C58.0948 177.164 58.8548 176.949 59.6928 176.949C60.332 176.949 60.8576 177.058 61.2695 177.276C61.6815 177.489 62.0082 177.747 62.2496 178.05C62.4911 178.348 62.6781 178.63 62.8107 178.895H62.9173V173.455H65.4954V188H62.967V186.281H62.8107C62.6781 186.546 62.4864 186.828 62.2354 187.126C61.9845 187.42 61.6531 187.671 61.2411 187.879C60.8292 188.088 60.3107 188.192 59.6857 188.192ZM60.4031 186.082C60.9476 186.082 61.4116 185.936 61.7951 185.642C62.1786 185.344 62.4698 184.929 62.6687 184.399C62.8675 183.869 62.967 183.251 62.967 182.545C62.967 181.84 62.8675 181.227 62.6687 180.706C62.4746 180.185 62.1857 179.78 61.8022 179.491C61.4234 179.203 60.957 179.058 60.4031 179.058C59.8301 179.058 59.3519 179.207 58.9684 179.506C58.5849 179.804 58.296 180.216 58.1019 180.741C57.9078 181.267 57.8107 181.868 57.8107 182.545C57.8107 183.227 57.9078 183.836 58.1019 184.371C58.3008 184.901 58.592 185.32 58.9755 185.628C59.3638 185.931 59.8396 186.082 60.4031 186.082ZM75.1882 183.412V177.091H77.7592V188H75.2663V186.061H75.1527C74.9065 186.672 74.5017 187.171 73.9382 187.56C73.3795 187.948 72.6906 188.142 71.8714 188.142C71.1565 188.142 70.5244 187.983 69.9751 187.666C69.4306 187.344 69.0045 186.878 68.6967 186.267C68.389 185.652 68.2351 184.908 68.2351 184.037V177.091H70.8061V183.639C70.8061 184.33 70.9955 184.88 71.3743 185.287C71.7531 185.694 72.2502 185.898 72.8658 185.898C73.2446 185.898 73.6115 185.805 73.9666 185.621C74.3217 185.436 74.6129 185.161 74.8402 184.797C75.0722 184.428 75.1882 183.966 75.1882 183.412ZM83.5423 188.22C82.851 188.22 82.2283 188.097 81.6744 187.851C81.1251 187.6 80.6895 187.231 80.3675 186.743C80.0503 186.255 79.8917 185.654 79.8917 184.939C79.8917 184.323 80.0053 183.814 80.2326 183.412C80.4599 183.009 80.77 182.688 81.163 182.446C81.556 182.205 81.9987 182.022 82.4911 181.899C82.9883 181.771 83.502 181.679 84.0323 181.622C84.6715 181.556 85.19 181.497 85.5877 181.445C85.9854 181.388 86.2743 181.303 86.4542 181.189C86.6388 181.071 86.7312 180.888 86.7312 180.642V180.599C86.7312 180.064 86.5726 179.65 86.2553 179.357C85.9381 179.063 85.4812 178.916 84.8846 178.916C84.2549 178.916 83.7553 179.054 83.386 179.328C83.0214 179.603 82.7752 179.927 82.6474 180.301L80.2468 179.96C80.4362 179.297 80.7487 178.743 81.1843 178.298C81.6199 177.848 82.1526 177.512 82.7823 177.29C83.4121 177.062 84.1081 176.949 84.8704 176.949C85.396 176.949 85.9192 177.01 86.44 177.134C86.9608 177.257 87.4367 177.46 87.8675 177.744C88.2984 178.024 88.6441 178.405 88.9045 178.888C89.1696 179.371 89.3022 179.974 89.3022 180.699V188H86.8306V186.501H86.7454C86.5891 186.804 86.369 187.089 86.0849 187.354C85.8055 187.614 85.4528 187.825 85.0266 187.986C84.6052 188.142 84.1104 188.22 83.5423 188.22ZM84.2099 186.331C84.726 186.331 85.1734 186.229 85.5522 186.026C85.931 185.817 86.2222 185.543 86.4258 185.202C86.6341 184.861 86.7383 184.489 86.7383 184.087V182.801C86.6578 182.867 86.5205 182.929 86.3263 182.986C86.137 183.043 85.9239 183.092 85.6871 183.135C85.4504 183.178 85.216 183.215 84.984 183.249C84.752 183.282 84.5508 183.31 84.3803 183.334C83.9968 183.386 83.6535 183.471 83.3505 183.589C83.0475 183.708 82.8084 183.874 82.6332 184.087C82.458 184.295 82.3704 184.565 82.3704 184.896C82.3704 185.37 82.5432 185.727 82.8888 185.969C83.2345 186.21 83.6748 186.331 84.2099 186.331ZM97.3349 177.091V179.08H91.0636V177.091H97.3349ZM92.6119 174.477H95.1829V184.719C95.1829 185.064 95.235 185.33 95.3391 185.514C95.448 185.694 95.5901 185.817 95.7653 185.884C95.9405 185.95 96.1346 185.983 96.3477 185.983C96.5086 185.983 96.6554 185.971 96.788 185.947C96.9253 185.924 97.0295 185.902 97.1005 185.884L97.5337 187.893C97.3964 187.941 97.1999 187.993 96.9442 188.05C96.6933 188.107 96.3855 188.14 96.021 188.149C95.377 188.168 94.797 188.071 94.2809 187.858C93.7648 187.64 93.3552 187.304 93.0522 186.849C92.7539 186.395 92.6071 185.827 92.6119 185.145V174.477ZM104.197 188.213C103.104 188.213 102.159 187.986 101.364 187.531C100.573 187.072 99.9645 186.423 99.5384 185.585C99.1122 184.742 98.8991 183.75 98.8991 182.609C98.8991 181.487 99.1122 180.502 99.5384 179.655C99.9692 178.803 100.571 178.14 101.342 177.666C102.114 177.188 103.021 176.949 104.062 176.949C104.735 176.949 105.369 177.058 105.966 177.276C106.567 177.489 107.098 177.82 107.557 178.27C108.021 178.72 108.385 179.293 108.651 179.989C108.916 180.68 109.048 181.504 109.048 182.46V183.249H100.107V181.516H106.584C106.579 181.023 106.473 180.585 106.264 180.202C106.056 179.813 105.765 179.508 105.391 179.286C105.021 179.063 104.59 178.952 104.098 178.952C103.572 178.952 103.111 179.08 102.713 179.335C102.315 179.586 102.005 179.918 101.783 180.33C101.565 180.737 101.454 181.184 101.449 181.672V183.185C101.449 183.819 101.565 184.364 101.797 184.818C102.029 185.268 102.353 185.614 102.77 185.855C103.187 186.092 103.674 186.21 104.233 186.21C104.607 186.21 104.946 186.158 105.249 186.054C105.552 185.945 105.814 185.786 106.037 185.578C106.259 185.37 106.428 185.112 106.541 184.804L108.942 185.074C108.79 185.708 108.501 186.262 108.075 186.736C107.654 187.205 107.114 187.569 106.456 187.83C105.798 188.085 105.045 188.213 104.197 188.213ZM115.272 188.192C114.415 188.192 113.648 187.972 112.971 187.531C112.293 187.091 111.758 186.452 111.365 185.614C110.972 184.776 110.776 183.758 110.776 182.56C110.776 181.348 110.975 180.325 111.373 179.491C111.775 178.653 112.317 178.021 112.999 177.595C113.681 177.164 114.441 176.949 115.279 176.949C115.918 176.949 116.444 177.058 116.855 177.276C117.267 177.489 117.594 177.747 117.836 178.05C118.077 178.348 118.264 178.63 118.397 178.895H118.503V173.455H121.081V188H118.553V186.281H118.397C118.264 186.546 118.072 186.828 117.821 187.126C117.57 187.42 117.239 187.671 116.827 187.879C116.415 188.088 115.897 188.192 115.272 188.192ZM115.989 186.082C116.533 186.082 116.998 185.936 117.381 185.642C117.765 185.344 118.056 184.929 118.255 184.399C118.453 183.869 118.553 183.251 118.553 182.545C118.553 181.84 118.453 181.227 118.255 180.706C118.06 180.185 117.772 179.78 117.388 179.491C117.009 179.203 116.543 179.058 115.989 179.058C115.416 179.058 114.938 179.207 114.554 179.506C114.171 179.804 113.882 180.216 113.688 180.741C113.494 181.267 113.397 181.868 113.397 182.545C113.397 183.227 113.494 183.836 113.688 184.371C113.887 184.901 114.178 185.32 114.561 185.628C114.95 185.931 115.426 186.082 115.989 186.082Z" fill="#5D5A6F"/>
<path d="M29.3395 275.453C29.2732 274.833 28.9938 274.35 28.5014 274.004C28.0137 273.659 27.3793 273.486 26.598 273.486C26.0488 273.486 25.5777 273.569 25.1847 273.734C24.7917 273.9 24.491 274.125 24.2827 274.409C24.0743 274.693 23.9678 275.018 23.9631 275.382C23.9631 275.685 24.0317 275.948 24.169 276.17C24.3111 276.393 24.5028 276.582 24.7443 276.739C24.9858 276.89 25.2533 277.018 25.5469 277.122C25.8404 277.226 26.1364 277.314 26.4347 277.385L27.7983 277.726C28.3475 277.854 28.8755 278.027 29.3821 278.244C29.8935 278.462 30.3504 278.737 30.7528 279.068C31.16 279.4 31.482 279.8 31.7188 280.268C31.9555 280.737 32.0739 281.286 32.0739 281.916C32.0739 282.768 31.8561 283.519 31.4205 284.168C30.9848 284.812 30.3551 285.316 29.5312 285.68C28.7121 286.04 27.7202 286.22 26.5554 286.22C25.4238 286.22 24.4413 286.045 23.608 285.695C22.7794 285.344 22.1307 284.833 21.6619 284.161C21.1979 283.488 20.947 282.669 20.9091 281.703H23.5014C23.5393 282.21 23.6955 282.631 23.9702 282.967C24.2448 283.304 24.6023 283.554 25.0426 283.72C25.4877 283.886 25.9848 283.969 26.5341 283.969C27.107 283.969 27.6089 283.884 28.0398 283.713C28.4754 283.538 28.8163 283.296 29.0625 282.989C29.3087 282.676 29.4342 282.312 29.4389 281.895C29.4342 281.516 29.3229 281.204 29.1051 280.957C28.8873 280.706 28.5819 280.498 28.1889 280.332C27.8007 280.162 27.3461 280.01 26.8253 279.878L25.1705 279.452C23.9725 279.144 23.0256 278.678 22.3295 278.053C21.6383 277.423 21.2926 276.587 21.2926 275.545C21.2926 274.688 21.5246 273.938 21.9886 273.294C22.4574 272.65 23.0942 272.151 23.8991 271.795C24.7041 271.436 25.6155 271.256 26.6335 271.256C27.6657 271.256 28.5701 271.436 29.3466 271.795C30.1278 272.151 30.741 272.645 31.1861 273.28C31.6312 273.91 31.8608 274.634 31.875 275.453H29.3395ZM39.0678 286.213C38.0025 286.213 37.0792 285.979 36.2979 285.51C35.5167 285.041 34.9106 284.385 34.4798 283.543C34.0536 282.7 33.8406 281.715 33.8406 280.588C33.8406 279.461 34.0536 278.474 34.4798 277.626C34.9106 276.779 35.5167 276.121 36.2979 275.652C37.0792 275.183 38.0025 274.949 39.0678 274.949C40.1332 274.949 41.0565 275.183 41.8377 275.652C42.619 276.121 43.2227 276.779 43.6488 277.626C44.0797 278.474 44.2951 279.461 44.2951 280.588C44.2951 281.715 44.0797 282.7 43.6488 283.543C43.2227 284.385 42.619 285.041 41.8377 285.51C41.0565 285.979 40.1332 286.213 39.0678 286.213ZM39.082 284.153C39.6597 284.153 40.1426 283.995 40.5309 283.678C40.9192 283.356 41.208 282.925 41.3974 282.385C41.5915 281.845 41.6886 281.244 41.6886 280.581C41.6886 279.913 41.5915 279.31 41.3974 278.77C41.208 278.225 40.9192 277.792 40.5309 277.47C40.1426 277.148 39.6597 276.987 39.082 276.987C38.4902 276.987 37.9978 277.148 37.6048 277.47C37.2165 277.792 36.9253 278.225 36.7312 278.77C36.5418 279.31 36.4471 279.913 36.4471 280.581C36.4471 281.244 36.5418 281.845 36.7312 282.385C36.9253 282.925 37.2165 283.356 37.6048 283.678C37.9978 283.995 38.4902 284.153 39.082 284.153ZM51.2358 286.213C50.1468 286.213 49.2116 285.974 48.4304 285.496C47.6539 285.018 47.0549 284.357 46.6335 283.514C46.2169 282.667 46.0085 281.691 46.0085 280.588C46.0085 279.48 46.2216 278.502 46.6477 277.655C47.0739 276.803 47.6752 276.14 48.4517 275.666C49.233 275.188 50.1563 274.949 51.2216 274.949C52.107 274.949 52.8906 275.112 53.5724 275.439C54.259 275.761 54.8059 276.218 55.2131 276.81C55.6203 277.397 55.8523 278.083 55.9091 278.869H53.4517C53.3523 278.344 53.1155 277.906 52.7415 277.555C52.3722 277.2 51.8774 277.023 51.2571 277.023C50.7315 277.023 50.2699 277.165 49.8722 277.449C49.4744 277.728 49.1643 278.131 48.9418 278.656C48.724 279.182 48.6151 279.812 48.6151 280.545C48.6151 281.289 48.724 281.928 48.9418 282.463C49.1596 282.993 49.465 283.403 49.858 283.692C50.2557 283.976 50.7221 284.118 51.2571 284.118C51.6359 284.118 51.9744 284.047 52.2727 283.905C52.5758 283.758 52.8291 283.547 53.0327 283.273C53.2363 282.998 53.3759 282.664 53.4517 282.271H55.9091C55.8475 283.043 55.6203 283.727 55.2273 284.324C54.8343 284.916 54.2992 285.38 53.6222 285.716C52.9451 286.047 52.1496 286.213 51.2358 286.213ZM58.0202 286V275.091H60.5913V286H58.0202ZM59.3129 273.543C58.9057 273.543 58.5553 273.408 58.2617 273.138C57.9682 272.863 57.8214 272.534 57.8214 272.151C57.8214 271.762 57.9682 271.433 58.2617 271.163C58.5553 270.889 58.9057 270.751 59.3129 270.751C59.7248 270.751 60.0752 270.889 60.364 271.163C60.6576 271.433 60.8043 271.762 60.8043 272.151C60.8043 272.534 60.6576 272.863 60.364 273.138C60.0752 273.408 59.7248 273.543 59.3129 273.543ZM66.3743 286.22C65.683 286.22 65.0604 286.097 64.5064 285.851C63.9571 285.6 63.5215 285.231 63.1996 284.743C62.8823 284.255 62.7237 283.654 62.7237 282.939C62.7237 282.323 62.8374 281.814 63.0646 281.412C63.2919 281.009 63.602 280.688 63.995 280.446C64.388 280.205 64.8307 280.022 65.3232 279.899C65.8203 279.771 66.334 279.679 66.8643 279.622C67.5036 279.556 68.022 279.497 68.4197 279.445C68.8175 279.388 69.1063 279.303 69.2862 279.189C69.4709 279.071 69.5632 278.888 69.5632 278.642V278.599C69.5632 278.064 69.4046 277.65 69.0874 277.357C68.7701 277.063 68.3132 276.916 67.7166 276.916C67.0869 276.916 66.5874 277.054 66.218 277.328C65.8535 277.603 65.6072 277.927 65.4794 278.301L63.0788 277.96C63.2682 277.297 63.5807 276.743 64.0163 276.298C64.4519 275.848 64.9846 275.512 65.6143 275.29C66.2441 275.062 66.9401 274.949 67.7024 274.949C68.228 274.949 68.7512 275.01 69.272 275.134C69.7929 275.257 70.2687 275.46 70.6996 275.744C71.1304 276.024 71.4761 276.405 71.7365 276.888C72.0017 277.371 72.1342 277.974 72.1342 278.699V286H69.6626V284.501H69.5774C69.4212 284.804 69.201 285.089 68.9169 285.354C68.6375 285.614 68.2848 285.825 67.8587 285.986C67.4373 286.142 66.9425 286.22 66.3743 286.22ZM67.0419 284.331C67.558 284.331 68.0054 284.229 68.3842 284.026C68.763 283.817 69.0542 283.543 69.2578 283.202C69.4661 282.861 69.5703 282.489 69.5703 282.087V280.801C69.4898 280.867 69.3525 280.929 69.1584 280.986C68.969 281.043 68.7559 281.092 68.5192 281.135C68.2824 281.178 68.0481 281.215 67.8161 281.249C67.584 281.282 67.3828 281.31 67.2124 281.334C66.8288 281.386 66.4856 281.471 66.1825 281.589C65.8795 281.708 65.6404 281.874 65.4652 282.087C65.29 282.295 65.2024 282.565 65.2024 282.896C65.2024 283.37 65.3752 283.727 65.7209 283.969C66.0665 284.21 66.5069 284.331 67.0419 284.331ZM77.2905 271.455V286H74.7195V271.455H77.2905Z" fill="#5D5A6F"/>
<path d="M233.622 233V218.455H243.082V220.663H236.257V224.612H242.592V226.821H236.257V230.791H243.139V233H233.622ZM248.228 226.608V233H245.657V222.091H248.114V223.945H248.242C248.493 223.334 248.893 222.848 249.442 222.489C249.996 222.129 250.681 221.949 251.495 221.949C252.248 221.949 252.904 222.11 253.462 222.432C254.026 222.754 254.461 223.22 254.769 223.831C255.082 224.442 255.236 225.183 255.231 226.054V233H252.66V226.452C252.66 225.723 252.47 225.152 252.092 224.74C251.718 224.328 251.199 224.122 250.536 224.122C250.086 224.122 249.686 224.222 249.336 224.42C248.99 224.615 248.718 224.896 248.519 225.266C248.325 225.635 248.228 226.082 248.228 226.608ZM262.589 237.318C261.665 237.318 260.872 237.193 260.21 236.942C259.547 236.696 259.014 236.364 258.612 235.947C258.209 235.531 257.93 235.069 257.773 234.562L260.089 234.001C260.193 234.214 260.344 234.425 260.543 234.634C260.742 234.847 261.01 235.022 261.346 235.159C261.687 235.301 262.115 235.372 262.631 235.372C263.361 235.372 263.964 235.195 264.442 234.839C264.921 234.489 265.16 233.911 265.16 233.107V231.04H265.032C264.899 231.305 264.705 231.577 264.45 231.857C264.199 232.136 263.865 232.37 263.448 232.56C263.036 232.749 262.518 232.844 261.893 232.844C261.055 232.844 260.295 232.647 259.613 232.254C258.936 231.857 258.396 231.265 257.994 230.479C257.596 229.688 257.397 228.698 257.397 227.51C257.397 226.312 257.596 225.301 257.994 224.477C258.396 223.649 258.938 223.021 259.62 222.595C260.302 222.164 261.062 221.949 261.9 221.949C262.539 221.949 263.065 222.058 263.477 222.276C263.893 222.489 264.225 222.747 264.471 223.05C264.717 223.348 264.904 223.63 265.032 223.895H265.174V222.091H267.71V233.178C267.71 234.11 267.487 234.882 267.042 235.493C266.597 236.104 265.988 236.561 265.217 236.864C264.445 237.167 263.569 237.318 262.589 237.318ZM262.61 230.827C263.155 230.827 263.619 230.694 264.002 230.429C264.386 230.164 264.677 229.783 264.876 229.286C265.075 228.788 265.174 228.192 265.174 227.496C265.174 226.809 265.075 226.208 264.876 225.692C264.682 225.176 264.393 224.776 264.009 224.491C263.63 224.203 263.164 224.058 262.61 224.058C262.037 224.058 261.559 224.207 261.175 224.506C260.792 224.804 260.503 225.214 260.309 225.734C260.115 226.25 260.018 226.838 260.018 227.496C260.018 228.163 260.115 228.748 260.309 229.25C260.508 229.747 260.799 230.135 261.183 230.415C261.571 230.689 262.047 230.827 262.61 230.827ZM272.915 218.455V233H270.344V218.455H272.915ZM275.559 233V222.091H278.13V233H275.559ZM276.852 220.543C276.445 220.543 276.094 220.408 275.801 220.138C275.507 219.863 275.36 219.534 275.36 219.151C275.36 218.762 275.507 218.433 275.801 218.163C276.094 217.889 276.445 217.751 276.852 217.751C277.264 217.751 277.614 217.889 277.903 218.163C278.197 218.433 278.343 218.762 278.343 219.151C278.343 219.534 278.197 219.863 277.903 220.138C277.614 220.408 277.264 220.543 276.852 220.543ZM289.396 224.974L287.053 225.23C286.986 224.993 286.87 224.771 286.705 224.562C286.544 224.354 286.326 224.186 286.051 224.058C285.777 223.93 285.44 223.866 285.043 223.866C284.508 223.866 284.058 223.982 283.693 224.214C283.333 224.446 283.156 224.747 283.161 225.116C283.156 225.434 283.272 225.692 283.509 225.891C283.75 226.089 284.148 226.253 284.702 226.381L286.562 226.778C287.595 227.001 288.362 227.354 288.864 227.837C289.37 228.32 289.626 228.952 289.631 229.733C289.626 230.42 289.425 231.026 289.027 231.551C288.634 232.072 288.087 232.479 287.386 232.773C286.686 233.066 285.881 233.213 284.972 233.213C283.636 233.213 282.562 232.934 281.747 232.375C280.933 231.812 280.447 231.028 280.291 230.024L282.798 229.783C282.912 230.275 283.153 230.647 283.523 230.898C283.892 231.149 284.373 231.274 284.964 231.274C285.575 231.274 286.065 231.149 286.435 230.898C286.809 230.647 286.996 230.337 286.996 229.967C286.996 229.655 286.875 229.397 286.634 229.193C286.397 228.99 286.027 228.833 285.526 228.724L283.665 228.334C282.618 228.116 281.844 227.749 281.342 227.233C280.84 226.712 280.592 226.054 280.597 225.259C280.592 224.586 280.774 224.004 281.143 223.511C281.518 223.014 282.036 222.631 282.699 222.361C283.366 222.086 284.136 221.949 285.007 221.949C286.286 221.949 287.292 222.221 288.026 222.766C288.764 223.31 289.221 224.046 289.396 224.974ZM294.322 226.608V233H291.751V218.455H294.265V223.945H294.393C294.648 223.329 295.044 222.844 295.579 222.489C296.119 222.129 296.805 221.949 297.638 221.949C298.396 221.949 299.057 222.107 299.62 222.425C300.183 222.742 300.619 223.206 300.927 223.817C301.239 224.428 301.396 225.173 301.396 226.054V233H298.825V226.452C298.825 225.718 298.635 225.147 298.256 224.74C297.882 224.328 297.357 224.122 296.68 224.122C296.225 224.122 295.818 224.222 295.458 224.42C295.103 224.615 294.824 224.896 294.62 225.266C294.421 225.635 294.322 226.082 294.322 226.608ZM307.035 231.011L306.942 231.793C306.876 232.389 306.758 232.995 306.587 233.611C306.422 234.231 306.246 234.802 306.062 235.322C305.877 235.843 305.728 236.253 305.614 236.551H303.881C303.948 236.262 304.038 235.869 304.151 235.372C304.27 234.875 304.383 234.316 304.492 233.696C304.601 233.076 304.674 232.446 304.712 231.807L304.762 231.011H307.035ZM314.54 233V218.455H323.858V220.663H317.175V224.612H323.219V226.821H317.175V233H314.54ZM325.989 233V222.091H328.482V223.909H328.596C328.794 223.279 329.135 222.794 329.618 222.453C330.106 222.107 330.662 221.935 331.287 221.935C331.429 221.935 331.588 221.942 331.763 221.956C331.943 221.965 332.092 221.982 332.211 222.006V224.371C332.102 224.333 331.929 224.3 331.692 224.271C331.46 224.238 331.235 224.222 331.017 224.222C330.549 224.222 330.127 224.323 329.753 224.527C329.384 224.726 329.093 225.003 328.88 225.358C328.667 225.713 328.56 226.123 328.56 226.587V233H325.989ZM338.299 233.213C337.205 233.213 336.261 232.986 335.465 232.531C334.674 232.072 334.066 231.423 333.64 230.585C333.214 229.742 333.001 228.75 333.001 227.609C333.001 226.487 333.214 225.502 333.64 224.655C334.071 223.803 334.672 223.14 335.444 222.666C336.216 222.188 337.122 221.949 338.164 221.949C338.836 221.949 339.471 222.058 340.067 222.276C340.669 222.489 341.199 222.82 341.658 223.27C342.122 223.72 342.487 224.293 342.752 224.989C343.017 225.68 343.15 226.504 343.15 227.46V228.249H334.208V226.516H340.685C340.681 226.023 340.574 225.585 340.366 225.202C340.157 224.813 339.866 224.508 339.492 224.286C339.123 224.063 338.692 223.952 338.2 223.952C337.674 223.952 337.212 224.08 336.815 224.335C336.417 224.586 336.107 224.918 335.884 225.33C335.666 225.737 335.555 226.184 335.55 226.672V228.185C335.55 228.819 335.666 229.364 335.898 229.818C336.13 230.268 336.455 230.614 336.871 230.855C337.288 231.092 337.776 231.21 338.335 231.21C338.709 231.21 339.047 231.158 339.35 231.054C339.653 230.945 339.916 230.786 340.138 230.578C340.361 230.37 340.529 230.112 340.643 229.804L343.043 230.074C342.892 230.708 342.603 231.262 342.177 231.736C341.755 232.205 341.216 232.569 340.558 232.83C339.899 233.085 339.147 233.213 338.299 233.213ZM347.896 226.608V233H345.325V222.091H347.782V223.945H347.91C348.161 223.334 348.561 222.848 349.11 222.489C349.664 222.129 350.349 221.949 351.163 221.949C351.916 221.949 352.572 222.11 353.13 222.432C353.694 222.754 354.129 223.22 354.437 223.831C354.75 224.442 354.904 225.183 354.899 226.054V233H352.328V226.452C352.328 225.723 352.138 225.152 351.76 224.74C351.386 224.328 350.867 224.122 350.204 224.122C349.754 224.122 349.354 224.222 349.004 224.42C348.658 224.615 348.386 224.896 348.187 225.266C347.993 225.635 347.896 226.082 347.896 226.608ZM362.271 233.213C361.182 233.213 360.247 232.974 359.466 232.496C358.689 232.018 358.09 231.357 357.669 230.514C357.252 229.667 357.044 228.691 357.044 227.588C357.044 226.48 357.257 225.502 357.683 224.655C358.109 223.803 358.71 223.14 359.487 222.666C360.268 222.188 361.191 221.949 362.257 221.949C363.142 221.949 363.926 222.112 364.608 222.439C365.294 222.761 365.841 223.218 366.248 223.81C366.655 224.397 366.887 225.083 366.944 225.869H364.487C364.387 225.344 364.151 224.906 363.777 224.555C363.407 224.2 362.913 224.023 362.292 224.023C361.767 224.023 361.305 224.165 360.907 224.449C360.51 224.728 360.199 225.131 359.977 225.656C359.759 226.182 359.65 226.812 359.65 227.545C359.65 228.289 359.759 228.928 359.977 229.463C360.195 229.993 360.5 230.403 360.893 230.692C361.291 230.976 361.757 231.118 362.292 231.118C362.671 231.118 363.01 231.047 363.308 230.905C363.611 230.758 363.864 230.547 364.068 230.273C364.271 229.998 364.411 229.664 364.487 229.271H366.944C366.883 230.043 366.655 230.727 366.262 231.324C365.869 231.916 365.334 232.38 364.657 232.716C363.98 233.047 363.185 233.213 362.271 233.213ZM371.626 226.608V233H369.055V218.455H371.57V223.945H371.697C371.953 223.329 372.348 222.844 372.884 222.489C373.423 222.129 374.11 221.949 374.943 221.949C375.701 221.949 376.361 222.107 376.925 222.425C377.488 222.742 377.924 223.206 378.232 223.817C378.544 224.428 378.7 225.173 378.7 226.054V233H376.129V226.452C376.129 225.718 375.94 225.147 375.561 224.74C375.187 224.328 374.661 224.122 373.984 224.122C373.53 224.122 373.123 224.222 372.763 224.42C372.408 224.615 372.128 224.896 371.925 225.266C371.726 225.635 371.626 226.082 371.626 226.608Z" fill="#0A033C"/>
<path d="M21.4347 233V218.455H24.0696V230.791H30.4759V233H21.4347ZM35.7884 233.22C35.0971 233.22 34.4744 233.097 33.9205 232.851C33.3712 232.6 32.9356 232.231 32.6136 231.743C32.2964 231.255 32.1378 230.654 32.1378 229.939C32.1378 229.323 32.2514 228.814 32.4787 228.412C32.706 228.009 33.0161 227.688 33.4091 227.446C33.8021 227.205 34.2448 227.022 34.7372 226.899C35.2344 226.771 35.7481 226.679 36.2784 226.622C36.9176 226.556 37.4361 226.497 37.8338 226.445C38.2315 226.388 38.5204 226.303 38.7003 226.189C38.8849 226.071 38.9773 225.888 38.9773 225.642V225.599C38.9773 225.064 38.8187 224.65 38.5014 224.357C38.1842 224.063 37.7273 223.916 37.1307 223.916C36.5009 223.916 36.0014 224.054 35.6321 224.328C35.2675 224.603 35.0213 224.927 34.8935 225.301L32.4929 224.96C32.6823 224.297 32.9948 223.743 33.4304 223.298C33.866 222.848 34.3987 222.512 35.0284 222.29C35.6581 222.062 36.3542 221.949 37.1165 221.949C37.642 221.949 38.1652 222.01 38.6861 222.134C39.2069 222.257 39.6828 222.46 40.1136 222.744C40.5445 223.024 40.8902 223.405 41.1506 223.888C41.4157 224.371 41.5483 224.974 41.5483 225.699V233H39.0767V231.501H38.9915C38.8352 231.804 38.6151 232.089 38.331 232.354C38.0516 232.614 37.6989 232.825 37.2727 232.986C36.8513 233.142 36.3565 233.22 35.7884 233.22ZM36.456 231.331C36.9721 231.331 37.4195 231.229 37.7983 231.026C38.1771 230.817 38.4683 230.543 38.6719 230.202C38.8802 229.861 38.9844 229.489 38.9844 229.087V227.801C38.9039 227.867 38.7666 227.929 38.5724 227.986C38.383 228.043 38.17 228.092 37.9332 228.135C37.6965 228.178 37.4621 228.215 37.2301 228.249C36.9981 228.282 36.7969 228.31 36.6264 228.334C36.2429 228.386 35.8996 228.471 35.5966 228.589C35.2936 228.708 35.0545 228.874 34.8793 229.087C34.7041 229.295 34.6165 229.565 34.6165 229.896C34.6165 230.37 34.7893 230.727 35.1349 230.969C35.4806 231.21 35.9209 231.331 36.456 231.331ZM46.7045 226.608V233H44.1335V222.091H46.5909V223.945H46.7188C46.9697 223.334 47.3698 222.848 47.919 222.489C48.473 222.129 49.1572 221.949 49.9716 221.949C50.7244 221.949 51.3802 222.11 51.9389 222.432C52.5024 222.754 52.938 223.22 53.2457 223.831C53.5582 224.442 53.7121 225.183 53.7074 226.054V233H51.1364V226.452C51.1364 225.723 50.947 225.152 50.5682 224.74C50.1941 224.328 49.6757 224.122 49.0128 224.122C48.563 224.122 48.1629 224.222 47.8125 224.42C47.4669 224.615 47.1946 224.896 46.9957 225.266C46.8016 225.635 46.7045 226.082 46.7045 226.608ZM61.0653 237.318C60.142 237.318 59.349 237.193 58.6861 236.942C58.0232 236.696 57.4905 236.364 57.0881 235.947C56.6856 235.531 56.4062 235.069 56.25 234.562L58.5653 234.001C58.6695 234.214 58.821 234.425 59.0199 234.634C59.2188 234.847 59.4863 235.022 59.8224 235.159C60.1634 235.301 60.5919 235.372 61.108 235.372C61.8371 235.372 62.4408 235.195 62.919 234.839C63.3973 234.489 63.6364 233.911 63.6364 233.107V231.04H63.5085C63.3759 231.305 63.1818 231.577 62.9261 231.857C62.6752 232.136 62.3414 232.37 61.9247 232.56C61.5128 232.749 60.9943 232.844 60.3693 232.844C59.5312 232.844 58.7713 232.647 58.0895 232.254C57.4124 231.857 56.8726 231.265 56.4702 230.479C56.0724 229.688 55.8736 228.698 55.8736 227.51C55.8736 226.312 56.0724 225.301 56.4702 224.477C56.8726 223.649 57.4148 223.021 58.0966 222.595C58.7784 222.164 59.5384 221.949 60.3764 221.949C61.0156 221.949 61.5412 222.058 61.9531 222.276C62.3698 222.489 62.7012 222.747 62.9474 223.05C63.1937 223.348 63.3807 223.63 63.5085 223.895H63.6506V222.091H66.1861V233.178C66.1861 234.11 65.9635 234.882 65.5185 235.493C65.0734 236.104 64.465 236.561 63.6932 236.864C62.9214 237.167 62.0455 237.318 61.0653 237.318ZM61.0866 230.827C61.6312 230.827 62.0952 230.694 62.4787 230.429C62.8622 230.164 63.1534 229.783 63.3523 229.286C63.5511 228.788 63.6506 228.192 63.6506 227.496C63.6506 226.809 63.5511 226.208 63.3523 225.692C63.1581 225.176 62.8693 224.776 62.4858 224.491C62.107 224.203 61.6406 224.058 61.0866 224.058C60.5137 224.058 60.0355 224.207 59.652 224.506C59.2685 224.804 58.9796 225.214 58.7855 225.734C58.5914 226.25 58.4943 226.838 58.4943 227.496C58.4943 228.163 58.5914 228.748 58.7855 229.25C58.9844 229.747 59.2756 230.135 59.6591 230.415C60.0473 230.689 60.5232 230.827 61.0866 230.827ZM75.7741 228.412V222.091H78.3452V233H75.8523V231.061H75.7386C75.4924 231.672 75.0876 232.171 74.5241 232.56C73.9654 232.948 73.2765 233.142 72.4574 233.142C71.7424 233.142 71.1103 232.983 70.5611 232.666C70.0166 232.344 69.5904 231.878 69.2827 231.267C68.9749 230.652 68.821 229.908 68.821 229.037V222.091H71.392V228.639C71.392 229.33 71.5814 229.88 71.9602 230.287C72.339 230.694 72.8362 230.898 73.4517 230.898C73.8305 230.898 74.1974 230.805 74.5526 230.621C74.9077 230.436 75.1989 230.161 75.4261 229.797C75.6581 229.428 75.7741 228.966 75.7741 228.412ZM84.1282 233.22C83.4369 233.22 82.8143 233.097 82.2603 232.851C81.7111 232.6 81.2754 232.231 80.9535 231.743C80.6362 231.255 80.4776 230.654 80.4776 229.939C80.4776 229.323 80.5913 228.814 80.8185 228.412C81.0458 228.009 81.3559 227.688 81.7489 227.446C82.1419 227.205 82.5846 227.022 83.0771 226.899C83.5742 226.771 84.0879 226.679 84.6183 226.622C85.2575 226.556 85.7759 226.497 86.1737 226.445C86.5714 226.388 86.8602 226.303 87.0401 226.189C87.2248 226.071 87.3171 225.888 87.3171 225.642V225.599C87.3171 225.064 87.1585 224.65 86.8413 224.357C86.524 224.063 86.0671 223.916 85.4705 223.916C84.8408 223.916 84.3413 224.054 83.9719 224.328C83.6074 224.603 83.3612 224.927 83.2333 225.301L80.8327 224.96C81.0221 224.297 81.3346 223.743 81.7702 223.298C82.2058 222.848 82.7385 222.512 83.3683 222.29C83.998 222.062 84.694 221.949 85.4563 221.949C85.9819 221.949 86.5051 222.01 87.0259 222.134C87.5468 222.257 88.0226 222.46 88.4535 222.744C88.8844 223.024 89.23 223.405 89.4904 223.888C89.7556 224.371 89.8881 224.974 89.8881 225.699V233H87.4165V231.501H87.3313C87.1751 231.804 86.9549 232.089 86.6708 232.354C86.3915 232.614 86.0387 232.825 85.6126 232.986C85.1912 233.142 84.6964 233.22 84.1282 233.22ZM84.7958 231.331C85.3119 231.331 85.7594 231.229 86.1381 231.026C86.5169 230.817 86.8081 230.543 87.0117 230.202C87.2201 229.861 87.3242 229.489 87.3242 229.087V227.801C87.2437 227.867 87.1064 227.929 86.9123 227.986C86.7229 228.043 86.5098 228.092 86.2731 228.135C86.0363 228.178 85.802 228.215 85.57 228.249C85.3379 228.282 85.1367 228.31 84.9663 228.334C84.5827 228.386 84.2395 228.471 83.9364 228.589C83.6334 228.708 83.3943 228.874 83.2191 229.087C83.0439 229.295 82.9563 229.565 82.9563 229.896C82.9563 230.37 83.1291 230.727 83.4748 230.969C83.8204 231.21 84.2608 231.331 84.7958 231.331ZM97.2177 237.318C96.2944 237.318 95.5013 237.193 94.8384 236.942C94.1755 236.696 93.6429 236.364 93.2404 235.947C92.8379 235.531 92.5586 235.069 92.4023 234.562L94.7177 234.001C94.8219 234.214 94.9734 234.425 95.1722 234.634C95.3711 234.847 95.6386 235.022 95.9748 235.159C96.3157 235.301 96.7442 235.372 97.2603 235.372C97.9895 235.372 98.5932 235.195 99.0714 234.839C99.5496 234.489 99.7887 233.911 99.7887 233.107V231.04H99.6609C99.5283 231.305 99.3342 231.577 99.0785 231.857C98.8275 232.136 98.4937 232.37 98.0771 232.56C97.6651 232.749 97.1467 232.844 96.5217 232.844C95.6836 232.844 94.9237 232.647 94.2418 232.254C93.5647 231.857 93.025 231.265 92.6225 230.479C92.2248 229.688 92.0259 228.698 92.0259 227.51C92.0259 226.312 92.2248 225.301 92.6225 224.477C93.025 223.649 93.5671 223.021 94.2489 222.595C94.9308 222.164 95.6907 221.949 96.5288 221.949C97.168 221.949 97.6935 222.058 98.1055 222.276C98.5221 222.489 98.8536 222.747 99.0998 223.05C99.346 223.348 99.533 223.63 99.6609 223.895H99.8029V222.091H102.338V233.178C102.338 234.11 102.116 234.882 101.671 235.493C101.226 236.104 100.617 236.561 99.8455 236.864C99.0737 237.167 98.1978 237.318 97.2177 237.318ZM97.239 230.827C97.7835 230.827 98.2475 230.694 98.631 230.429C99.0146 230.164 99.3058 229.783 99.5046 229.286C99.7035 228.788 99.8029 228.192 99.8029 227.496C99.8029 226.809 99.7035 226.208 99.5046 225.692C99.3105 225.176 99.0217 224.776 98.6381 224.491C98.2594 224.203 97.793 224.058 97.239 224.058C96.6661 224.058 96.1879 224.207 95.8043 224.506C95.4208 224.804 95.132 225.214 94.9379 225.734C94.7437 226.25 94.6467 226.838 94.6467 227.496C94.6467 228.163 94.7437 228.748 94.9379 229.25C95.1367 229.747 95.4279 230.135 95.8114 230.415C96.1997 230.689 96.6755 230.827 97.239 230.827ZM109.803 233.213C108.709 233.213 107.765 232.986 106.969 232.531C106.178 232.072 105.57 231.423 105.144 230.585C104.718 229.742 104.505 228.75 104.505 227.609C104.505 226.487 104.718 225.502 105.144 224.655C105.575 223.803 106.176 223.14 106.948 222.666C107.72 222.188 108.626 221.949 109.668 221.949C110.34 221.949 110.975 222.058 111.571 222.276C112.173 222.489 112.703 222.82 113.162 223.27C113.626 223.72 113.991 224.293 114.256 224.989C114.521 225.68 114.654 226.504 114.654 227.46V228.249H105.712V226.516H112.189C112.185 226.023 112.078 225.585 111.87 225.202C111.661 224.813 111.37 224.508 110.996 224.286C110.627 224.063 110.196 223.952 109.703 223.952C109.178 223.952 108.716 224.08 108.319 224.335C107.921 224.586 107.611 224.918 107.388 225.33C107.17 225.737 107.059 226.184 107.054 226.672V228.185C107.054 228.819 107.17 229.364 107.402 229.818C107.634 230.268 107.959 230.614 108.375 230.855C108.792 231.092 109.28 231.21 109.838 231.21C110.212 231.21 110.551 231.158 110.854 231.054C111.157 230.945 111.42 230.786 111.642 230.578C111.865 230.37 112.033 230.112 112.147 229.804L114.547 230.074C114.396 230.708 114.107 231.262 113.681 231.736C113.259 232.205 112.72 232.569 112.061 232.83C111.403 233.085 110.65 233.213 109.803 233.213Z" fill="#5D5A6F"/>
<path d="M305.002 128.455V143H302.367V131.018H302.282L298.88 133.192V130.777L302.495 128.455H305.002ZM314.071 143.277C312.902 143.277 311.898 142.981 311.06 142.389C310.227 141.793 309.585 140.933 309.135 139.811C308.69 138.684 308.468 137.328 308.468 135.741C308.472 134.155 308.697 132.806 309.142 131.693C309.592 130.576 310.234 129.723 311.067 129.136C311.905 128.549 312.907 128.256 314.071 128.256C315.236 128.256 316.238 128.549 317.076 129.136C317.914 129.723 318.555 130.576 319 131.693C319.45 132.811 319.675 134.16 319.675 135.741C319.675 137.332 319.45 138.691 319 139.818C318.555 140.94 317.914 141.797 317.076 142.389C316.242 142.981 315.241 143.277 314.071 143.277ZM314.071 141.054C314.98 141.054 315.698 140.607 316.223 139.712C316.754 138.812 317.019 137.489 317.019 135.741C317.019 134.586 316.898 133.616 316.657 132.83C316.415 132.044 316.074 131.452 315.634 131.054C315.194 130.652 314.673 130.45 314.071 130.45C313.167 130.45 312.452 130.9 311.926 131.8C311.401 132.695 311.136 134.009 311.131 135.741C311.126 136.902 311.242 137.877 311.479 138.668C311.721 139.458 312.061 140.055 312.502 140.457C312.942 140.855 313.465 141.054 314.071 141.054ZM326.143 128.455H329.119L332.678 134.889H332.82L336.378 128.455H339.354L334.062 137.574V143H331.435V137.574L326.143 128.455ZM343.904 143.213C342.811 143.213 341.866 142.986 341.071 142.531C340.28 142.072 339.672 141.423 339.245 140.585C338.819 139.742 338.606 138.75 338.606 137.609C338.606 136.487 338.819 135.502 339.245 134.655C339.676 133.803 340.278 133.14 341.049 132.666C341.821 132.188 342.728 131.949 343.77 131.949C344.442 131.949 345.076 132.058 345.673 132.276C346.274 132.489 346.805 132.82 347.264 133.27C347.728 133.72 348.092 134.293 348.358 134.989C348.623 135.68 348.755 136.504 348.755 137.46V138.249H339.814V136.516H346.291C346.286 136.023 346.18 135.585 345.971 135.202C345.763 134.813 345.472 134.508 345.098 134.286C344.728 134.063 344.297 133.952 343.805 133.952C343.279 133.952 342.818 134.08 342.42 134.335C342.022 134.586 341.712 134.918 341.49 135.33C341.272 135.737 341.161 136.184 341.156 136.672V138.185C341.156 138.819 341.272 139.364 341.504 139.818C341.736 140.268 342.06 140.614 342.477 140.855C342.894 141.092 343.381 141.21 343.94 141.21C344.314 141.21 344.653 141.158 344.956 141.054C345.259 140.945 345.521 140.786 345.744 140.578C345.967 140.37 346.135 140.112 346.248 139.804L348.649 140.074C348.497 140.708 348.208 141.262 347.782 141.736C347.361 142.205 346.821 142.569 346.163 142.83C345.505 143.085 344.752 143.213 343.904 143.213ZM354.07 143.22C353.378 143.22 352.756 143.097 352.202 142.851C351.652 142.6 351.217 142.231 350.895 141.743C350.578 141.255 350.419 140.654 350.419 139.939C350.419 139.323 350.533 138.814 350.76 138.412C350.987 138.009 351.297 137.688 351.69 137.446C352.083 137.205 352.526 137.022 353.018 136.899C353.516 136.771 354.029 136.679 354.56 136.622C355.199 136.556 355.717 136.497 356.115 136.445C356.513 136.388 356.802 136.303 356.982 136.189C357.166 136.071 357.259 135.888 357.259 135.642V135.599C357.259 135.064 357.1 134.65 356.783 134.357C356.465 134.063 356.009 133.916 355.412 133.916C354.782 133.916 354.283 134.054 353.913 134.328C353.549 134.603 353.303 134.927 353.175 135.301L350.774 134.96C350.964 134.297 351.276 133.743 351.712 133.298C352.147 132.848 352.68 132.512 353.31 132.29C353.939 132.062 354.635 131.949 355.398 131.949C355.923 131.949 356.446 132.01 356.967 132.134C357.488 132.257 357.964 132.46 358.395 132.744C358.826 133.024 359.171 133.405 359.432 133.888C359.697 134.371 359.83 134.974 359.83 135.699V143H357.358V141.501H357.273C357.116 141.804 356.896 142.089 356.612 142.354C356.333 142.614 355.98 142.825 355.554 142.986C355.133 143.142 354.638 143.22 354.07 143.22ZM354.737 141.331C355.253 141.331 355.701 141.229 356.08 141.026C356.458 140.817 356.75 140.543 356.953 140.202C357.161 139.861 357.266 139.489 357.266 139.087V137.801C357.185 137.867 357.048 137.929 356.854 137.986C356.664 138.043 356.451 138.092 356.214 138.135C355.978 138.178 355.743 138.215 355.511 138.249C355.279 138.282 355.078 138.31 354.908 138.334C354.524 138.386 354.181 138.471 353.878 138.589C353.575 138.708 353.336 138.874 353.161 139.087C352.985 139.295 352.898 139.565 352.898 139.896C352.898 140.37 353.071 140.727 353.416 140.969C353.762 141.21 354.202 141.331 354.737 141.331ZM362.415 143V132.091H364.908V133.909H365.021C365.22 133.279 365.561 132.794 366.044 132.453C366.532 132.107 367.088 131.935 367.713 131.935C367.855 131.935 368.014 131.942 368.189 131.956C368.369 131.965 368.518 131.982 368.636 132.006V134.371C368.527 134.333 368.355 134.3 368.118 134.271C367.886 134.238 367.661 134.222 367.443 134.222C366.974 134.222 366.553 134.323 366.179 134.527C365.81 134.726 365.518 135.003 365.305 135.358C365.092 135.713 364.986 136.123 364.986 136.587V143H362.415ZM378.967 134.974L376.623 135.23C376.557 134.993 376.441 134.771 376.275 134.562C376.114 134.354 375.896 134.186 375.621 134.058C375.347 133.93 375.011 133.866 374.613 133.866C374.078 133.866 373.628 133.982 373.263 134.214C372.904 134.446 372.726 134.747 372.731 135.116C372.726 135.434 372.842 135.692 373.079 135.891C373.32 136.089 373.718 136.253 374.272 136.381L376.133 136.778C377.165 137.001 377.932 137.354 378.434 137.837C378.941 138.32 379.196 138.952 379.201 139.733C379.196 140.42 378.995 141.026 378.597 141.551C378.204 142.072 377.657 142.479 376.957 142.773C376.256 143.066 375.451 143.213 374.542 143.213C373.207 143.213 372.132 142.934 371.317 142.375C370.503 141.812 370.018 141.028 369.862 140.024L372.369 139.783C372.482 140.275 372.724 140.647 373.093 140.898C373.462 141.149 373.943 141.274 374.535 141.274C375.146 141.274 375.636 141.149 376.005 140.898C376.379 140.647 376.566 140.337 376.566 139.967C376.566 139.655 376.445 139.397 376.204 139.193C375.967 138.99 375.598 138.833 375.096 138.724L373.235 138.334C372.189 138.116 371.415 137.749 370.913 137.233C370.411 136.712 370.162 136.054 370.167 135.259C370.162 134.586 370.344 134.004 370.714 133.511C371.088 133.014 371.606 132.631 372.269 132.361C372.937 132.086 373.706 131.949 374.577 131.949C375.856 131.949 376.862 132.221 377.596 132.766C378.335 133.31 378.791 134.046 378.967 134.974Z" fill="#0A033C"/>
<path d="M21.4347 143V128.455H30.8949V130.663H24.0696V134.612H30.4048V136.821H24.0696V140.791H30.9517V143H21.4347ZM35.5717 132.091L37.7734 136.118L40.0107 132.091H42.7308L39.4425 137.545L42.7876 143H40.0817L37.7734 139.072L35.4865 143H32.7592L36.0831 137.545L32.8445 132.091H35.5717ZM44.7195 147.091V132.091H47.2479V133.895H47.397C47.5296 133.63 47.7166 133.348 47.9581 133.05C48.1996 132.747 48.5263 132.489 48.9382 132.276C49.3501 132.058 49.8757 131.949 50.5149 131.949C51.3577 131.949 52.1177 132.164 52.7947 132.595C53.4766 133.021 54.0163 133.653 54.4141 134.491C54.8165 135.325 55.0178 136.348 55.0178 137.56C55.0178 138.758 54.8213 139.776 54.4283 140.614C54.0353 141.452 53.5002 142.091 52.8232 142.531C52.1461 142.972 51.379 143.192 50.522 143.192C49.897 143.192 49.3786 143.088 48.9666 142.879C48.5547 142.671 48.2232 142.42 47.9723 142.126C47.7261 141.828 47.5343 141.546 47.397 141.281H47.2905V147.091H44.7195ZM47.2408 137.545C47.2408 138.251 47.3402 138.869 47.5391 139.399C47.7427 139.929 48.0339 140.344 48.4126 140.642C48.7962 140.936 49.2602 141.082 49.8047 141.082C50.3729 141.082 50.8487 140.931 51.2322 140.628C51.6158 140.32 51.9046 139.901 52.0987 139.371C52.2976 138.836 52.397 138.227 52.397 137.545C52.397 136.868 52.3 136.267 52.1058 135.741C51.9117 135.216 51.6229 134.804 51.2393 134.506C50.8558 134.207 50.3776 134.058 49.8047 134.058C49.2554 134.058 48.7891 134.203 48.4055 134.491C48.022 134.78 47.7308 135.185 47.532 135.706C47.3378 136.227 47.2408 136.84 47.2408 137.545ZM62.049 143.213C60.9553 143.213 60.0107 142.986 59.2152 142.531C58.4245 142.072 57.8161 141.423 57.3899 140.585C56.9638 139.742 56.7507 138.75 56.7507 137.609C56.7507 136.487 56.9638 135.502 57.3899 134.655C57.8208 133.803 58.4221 133.14 59.1939 132.666C59.9657 132.188 60.8724 131.949 61.9141 131.949C62.5864 131.949 63.2209 132.058 63.8175 132.276C64.4188 132.489 64.9491 132.82 65.4084 133.27C65.8724 133.72 66.237 134.293 66.5021 134.989C66.7673 135.68 66.8999 136.504 66.8999 137.46V138.249H57.9581V136.516H64.4354C64.4306 136.023 64.3241 135.585 64.1158 135.202C63.9074 134.813 63.6162 134.508 63.2422 134.286C62.8729 134.063 62.442 133.952 61.9496 133.952C61.424 133.952 60.9624 134.08 60.5646 134.335C60.1669 134.586 59.8568 134.918 59.6342 135.33C59.4164 135.737 59.3052 136.184 59.3004 136.672V138.185C59.3004 138.819 59.4164 139.364 59.6484 139.818C59.8804 140.268 60.2048 140.614 60.6214 140.855C61.0381 141.092 61.5258 141.21 62.0845 141.21C62.4586 141.21 62.7971 141.158 63.1001 141.054C63.4032 140.945 63.666 140.786 63.8885 140.578C64.111 140.37 64.2791 140.112 64.3928 139.804L66.7933 140.074C66.6418 140.708 66.353 141.262 65.9268 141.736C65.5054 142.205 64.9657 142.569 64.3075 142.83C63.6494 143.085 62.8965 143.213 62.049 143.213ZM69.0749 143V132.091H71.5678V133.909H71.6815C71.8803 133.279 72.2212 132.794 72.7042 132.453C73.1919 132.107 73.7482 131.935 74.3732 131.935C74.5153 131.935 74.6739 131.942 74.8491 131.956C75.029 131.965 75.1781 131.982 75.2965 132.006V134.371C75.1876 134.333 75.0148 134.3 74.7781 134.271C74.546 134.238 74.3211 134.222 74.1033 134.222C73.6346 134.222 73.2132 134.323 72.8391 134.527C72.4698 134.726 72.1786 135.003 71.9656 135.358C71.7525 135.713 71.646 136.123 71.646 136.587V143H69.0749ZM77.0046 143V132.091H79.5756V143H77.0046ZM78.2972 130.543C77.89 130.543 77.5397 130.408 77.2461 130.138C76.9525 129.863 76.8058 129.534 76.8058 129.151C76.8058 128.762 76.9525 128.433 77.2461 128.163C77.5397 127.889 77.89 127.751 78.2972 127.751C78.7092 127.751 79.0595 127.889 79.3484 128.163C79.6419 128.433 79.7887 128.762 79.7887 129.151C79.7887 129.534 79.6419 129.863 79.3484 130.138C79.0595 130.408 78.7092 130.543 78.2972 130.543ZM87.049 143.213C85.9553 143.213 85.0107 142.986 84.2152 142.531C83.4245 142.072 82.8161 141.423 82.3899 140.585C81.9638 139.742 81.7507 138.75 81.7507 137.609C81.7507 136.487 81.9638 135.502 82.3899 134.655C82.8208 133.803 83.4221 133.14 84.1939 132.666C84.9657 132.188 85.8724 131.949 86.9141 131.949C87.5864 131.949 88.2209 132.058 88.8175 132.276C89.4188 132.489 89.9491 132.82 90.4084 133.27C90.8724 133.72 91.237 134.293 91.5021 134.989C91.7673 135.68 91.8999 136.504 91.8999 137.46V138.249H82.9581V136.516H89.4354C89.4306 136.023 89.3241 135.585 89.1158 135.202C88.9074 134.813 88.6162 134.508 88.2422 134.286C87.8729 134.063 87.442 133.952 86.9496 133.952C86.424 133.952 85.9624 134.08 85.5646 134.335C85.1669 134.586 84.8568 134.918 84.6342 135.33C84.4164 135.737 84.3052 136.184 84.3004 136.672V138.185C84.3004 138.819 84.4164 139.364 84.6484 139.818C84.8804 140.268 85.2048 140.614 85.6214 140.855C86.0381 141.092 86.5258 141.21 87.0845 141.21C87.4586 141.21 87.7971 141.158 88.1001 141.054C88.4032 140.945 88.666 140.786 88.8885 140.578C89.111 140.37 89.2791 140.112 89.3928 139.804L91.7933 140.074C91.6418 140.708 91.353 141.262 90.9268 141.736C90.5054 142.205 89.9657 142.569 89.3075 142.83C88.6494 143.085 87.8965 143.213 87.049 143.213ZM96.646 136.608V143H94.0749V132.091H96.5323V133.945H96.6602C96.9111 133.334 97.3112 132.848 97.8604 132.489C98.4144 132.129 99.0986 131.949 99.913 131.949C100.666 131.949 101.322 132.11 101.88 132.432C102.444 132.754 102.879 133.22 103.187 133.831C103.5 134.442 103.654 135.183 103.649 136.054V143H101.078V136.452C101.078 135.723 100.888 135.152 100.51 134.74C100.136 134.328 99.6171 134.122 98.9542 134.122C98.5044 134.122 98.1043 134.222 97.7539 134.42C97.4083 134.615 97.136 134.896 96.9371 135.266C96.743 135.635 96.646 136.082 96.646 136.608ZM111.021 143.213C109.932 143.213 108.997 142.974 108.216 142.496C107.439 142.018 106.84 141.357 106.419 140.514C106.002 139.667 105.794 138.691 105.794 137.588C105.794 136.48 106.007 135.502 106.433 134.655C106.859 133.803 107.46 133.14 108.237 132.666C109.018 132.188 109.941 131.949 111.007 131.949C111.892 131.949 112.676 132.112 113.358 132.439C114.044 132.761 114.591 133.218 114.998 133.81C115.405 134.397 115.637 135.083 115.694 135.869H113.237C113.137 135.344 112.901 134.906 112.527 134.555C112.157 134.2 111.663 134.023 111.042 134.023C110.517 134.023 110.055 134.165 109.657 134.449C109.26 134.728 108.949 135.131 108.727 135.656C108.509 136.182 108.4 136.812 108.4 137.545C108.4 138.289 108.509 138.928 108.727 139.463C108.945 139.993 109.25 140.403 109.643 140.692C110.041 140.976 110.507 141.118 111.042 141.118C111.421 141.118 111.76 141.047 112.058 140.905C112.361 140.758 112.614 140.547 112.818 140.273C113.021 139.998 113.161 139.664 113.237 139.271H115.694C115.633 140.043 115.405 140.727 115.012 141.324C114.619 141.916 114.084 142.38 113.407 142.716C112.73 143.047 111.935 143.213 111.021 143.213ZM122.635 143.213C121.541 143.213 120.597 142.986 119.801 142.531C119.01 142.072 118.402 141.423 117.976 140.585C117.55 139.742 117.337 138.75 117.337 137.609C117.337 136.487 117.55 135.502 117.976 134.655C118.407 133.803 119.008 133.14 119.78 132.666C120.552 132.188 121.458 131.949 122.5 131.949C123.172 131.949 123.807 132.058 124.403 132.276C125.005 132.489 125.535 132.82 125.994 133.27C126.458 133.72 126.823 134.293 127.088 134.989C127.353 135.68 127.486 136.504 127.486 137.46V138.249H118.544V136.516H125.021C125.017 136.023 124.91 135.585 124.702 135.202C124.493 134.813 124.202 134.508 123.828 134.286C123.459 134.063 123.028 133.952 122.536 133.952C122.01 133.952 121.548 134.08 121.151 134.335C120.753 134.586 120.443 134.918 120.22 135.33C120.002 135.737 119.891 136.184 119.886 136.672V138.185C119.886 138.819 120.002 139.364 120.234 139.818C120.466 140.268 120.791 140.614 121.207 140.855C121.624 141.092 122.112 141.21 122.67 141.21C123.045 141.21 123.383 141.158 123.686 141.054C123.989 140.945 124.252 140.786 124.474 140.578C124.697 140.37 124.865 140.112 124.979 139.804L127.379 140.074C127.228 140.708 126.939 141.262 126.513 141.736C126.091 142.205 125.552 142.569 124.893 142.83C124.235 143.085 123.482 143.213 122.635 143.213ZM138.283 134.974L135.939 135.23C135.873 134.993 135.757 134.771 135.591 134.562C135.43 134.354 135.212 134.186 134.938 134.058C134.663 133.93 134.327 133.866 133.929 133.866C133.394 133.866 132.944 133.982 132.58 134.214C132.22 134.446 132.042 134.747 132.047 135.116C132.042 135.434 132.158 135.692 132.395 135.891C132.637 136.089 133.034 136.253 133.588 136.381L135.449 136.778C136.481 137.001 137.248 137.354 137.75 137.837C138.257 138.32 138.513 138.952 138.517 139.733C138.513 140.42 138.311 141.026 137.914 141.551C137.521 142.072 136.974 142.479 136.273 142.773C135.572 143.066 134.767 143.213 133.858 143.213C132.523 143.213 131.448 142.934 130.634 142.375C129.819 141.812 129.334 141.028 129.178 140.024L131.685 139.783C131.799 140.275 132.04 140.647 132.409 140.898C132.779 141.149 133.259 141.274 133.851 141.274C134.462 141.274 134.952 141.149 135.321 140.898C135.695 140.647 135.882 140.337 135.882 139.967C135.882 139.655 135.762 139.397 135.52 139.193C135.283 138.99 134.914 138.833 134.412 138.724L132.551 138.334C131.505 138.116 130.731 137.749 130.229 137.233C129.727 136.712 129.479 136.054 129.483 135.259C129.479 134.586 129.661 134.004 130.03 133.511C130.404 133.014 130.923 132.631 131.586 132.361C132.253 132.086 133.023 131.949 133.894 131.949C135.172 131.949 136.178 132.221 136.912 132.766C137.651 133.31 138.108 134.046 138.283 134.974Z" fill="#5D5A6F"/>
<path d="M295.958 87.0462C295.854 86.7081 295.566 86.468 295.226 86.436L290.608 85.9985L288.782 81.5384C288.647 81.2116 288.341 81 288 81C287.659 81 287.353 81.2116 287.218 81.5392L285.392 85.9985L280.773 86.436C280.434 86.4688 280.147 86.7081 280.042 87.0462C279.937 87.3843 280.034 87.7551 280.291 87.9888L283.781 91.1833L282.752 95.9147C282.677 96.2626 282.806 96.6222 283.083 96.8308C283.231 96.9429 283.405 97 283.581 97C283.732 97 283.882 96.9575 284.017 96.8734L288 94.389L291.982 96.8734C292.273 97.0563 292.641 97.0396 292.917 96.8308C293.194 96.6215 293.323 96.2618 293.248 95.9147L292.218 91.1833L295.709 87.9895C295.966 87.7551 296.064 87.3849 295.958 87.0462Z" fill="#FFC107"/>
<path d="M298.53 95.3011V93.206L304.702 83.4545H306.449V86.4375H305.384L301.229 93.0213V93.1349H309.844V95.3011H298.53ZM305.469 98V94.6619L305.497 93.7244V83.4545H307.983V98H305.469ZM313.315 98.1562C312.884 98.1562 312.515 98.0047 312.207 97.7017C311.899 97.3987 311.748 97.0294 311.752 96.5938C311.748 96.1676 311.899 95.803 312.207 95.5C312.515 95.197 312.884 95.0455 313.315 95.0455C313.732 95.0455 314.094 95.197 314.402 95.5C314.714 95.803 314.873 96.1676 314.877 96.5938C314.873 96.8826 314.797 97.1454 314.65 97.3821C314.508 97.6188 314.319 97.8082 314.082 97.9503C313.85 98.0876 313.594 98.1562 313.315 98.1562ZM322.338 83.2557C323.034 83.2604 323.712 83.3835 324.37 83.625C325.033 83.8617 325.629 84.25 326.159 84.7898C326.69 85.3248 327.111 86.0421 327.424 86.9418C327.736 87.8414 327.892 88.9541 327.892 90.2798C327.897 91.5298 327.765 92.6473 327.495 93.6321C327.23 94.6122 326.848 95.4408 326.351 96.1179C325.854 96.795 325.255 97.3111 324.554 97.6662C323.854 98.0213 323.065 98.1989 322.189 98.1989C321.271 98.1989 320.456 98.0189 319.746 97.6591C319.041 97.2992 318.47 96.8068 318.034 96.1818C317.599 95.5568 317.331 94.8419 317.232 94.0369H319.824C319.957 94.6146 320.227 95.0739 320.634 95.4148C321.046 95.7509 321.564 95.919 322.189 95.919C323.198 95.919 323.974 95.4811 324.519 94.6051C325.063 93.7292 325.336 92.5123 325.336 90.9545H325.236C325.004 91.3712 324.703 91.7311 324.334 92.0341C323.965 92.3324 323.546 92.562 323.077 92.723C322.613 92.884 322.121 92.9645 321.6 92.9645C320.748 92.9645 319.98 92.7609 319.299 92.3537C318.622 91.9465 318.084 91.3878 317.686 90.6776C317.293 89.9673 317.095 89.1553 317.09 88.2415C317.09 87.2945 317.308 86.4446 317.743 85.6918C318.184 84.9342 318.797 84.3376 319.583 83.902C320.369 83.4616 321.287 83.2462 322.338 83.2557ZM322.346 85.3864C321.834 85.3864 321.373 85.5118 320.961 85.7628C320.553 86.009 320.231 86.3452 319.995 86.7713C319.763 87.1927 319.647 87.6638 319.647 88.1847C319.651 88.7008 319.767 89.1695 319.995 89.5909C320.227 90.0123 320.542 90.3461 320.939 90.5923C321.342 90.8385 321.801 90.9616 322.317 90.9616C322.701 90.9616 323.058 90.8883 323.39 90.7415C323.721 90.5947 324.01 90.3911 324.256 90.1307C324.507 89.8655 324.701 89.5649 324.838 89.2287C324.98 88.8925 325.049 88.5374 325.044 88.1634C325.044 87.6662 324.926 87.2069 324.689 86.7855C324.457 86.3641 324.138 86.0256 323.73 85.7699C323.328 85.5142 322.866 85.3864 322.346 85.3864ZM330.925 90.7273C330.925 88.9517 331.159 87.3205 331.628 85.8338C332.102 84.3423 332.805 82.9645 333.738 81.7003H336.159C335.8 82.169 335.463 82.7443 335.151 83.4261C334.838 84.1032 334.566 84.8466 334.334 85.6562C334.107 86.4612 333.927 87.2969 333.794 88.1634C333.667 89.0298 333.603 89.8845 333.603 90.7273C333.603 91.8494 333.714 92.9858 333.936 94.1364C334.164 95.2869 334.469 96.3546 334.853 97.3395C335.241 98.3196 335.676 99.1222 336.159 99.7472H333.738C332.805 98.483 332.102 97.1075 331.628 95.6207C331.159 94.1293 330.925 92.4981 330.925 90.7273ZM344.045 83.4545V98H341.41V86.0185H341.325L337.923 88.1918V85.777L341.538 83.4545H344.045ZM352.795 98.1989C351.848 98.1989 351 98.0213 350.252 97.6662C349.504 97.3063 348.91 96.8139 348.469 96.1889C348.034 95.5639 347.802 94.849 347.773 94.044H350.33C350.378 94.6406 350.636 95.1283 351.104 95.5071C351.573 95.8812 352.137 96.0682 352.795 96.0682C353.311 96.0682 353.77 95.9498 354.173 95.7131C354.575 95.4763 354.892 95.1473 355.124 94.7259C355.356 94.3045 355.47 93.8239 355.465 93.2841C355.47 92.7348 355.354 92.2472 355.117 91.821C354.88 91.3949 354.556 91.0611 354.144 90.8196C353.732 90.5734 353.259 90.4503 352.724 90.4503C352.288 90.4455 351.86 90.526 351.438 90.6918C351.017 90.8575 350.683 91.0753 350.437 91.3452L348.058 90.9545L348.817 83.4545H357.255V85.6562H350.998L350.579 89.5128H350.664C350.934 89.1955 351.315 88.9328 351.808 88.7244C352.3 88.5114 352.84 88.4048 353.427 88.4048C354.308 88.4048 355.094 88.6132 355.785 89.0298C356.476 89.4418 357.021 90.0099 357.418 90.7344C357.816 91.4588 358.015 92.2874 358.015 93.2202C358.015 94.1813 357.792 95.0384 357.347 95.7912C356.907 96.5393 356.294 97.1288 355.508 97.5597C354.727 97.9858 353.822 98.1989 352.795 98.1989ZM365.614 98.1989C364.592 98.1989 363.683 98.0237 362.887 97.6733C362.096 97.3229 361.471 96.8352 361.012 96.2102C360.553 95.5852 360.309 94.8632 360.281 94.044H362.951C362.975 94.437 363.105 94.7803 363.342 95.0739C363.578 95.3627 363.893 95.5876 364.286 95.7486C364.679 95.9096 365.12 95.9901 365.607 95.9901C366.128 95.9901 366.59 95.9001 366.992 95.7202C367.395 95.5355 367.71 95.2798 367.937 94.9531C368.164 94.6264 368.275 94.25 368.271 93.8239C368.275 93.3835 368.162 92.9953 367.93 92.6591C367.698 92.3229 367.362 92.0601 366.921 91.8707C366.486 91.6813 365.96 91.5866 365.344 91.5866H364.059V89.5554H365.344C365.851 89.5554 366.294 89.4678 366.673 89.2926C367.056 89.1174 367.357 88.8712 367.575 88.554C367.792 88.232 367.899 87.8603 367.894 87.4389C367.899 87.027 367.807 86.6695 367.617 86.3665C367.433 86.0587 367.17 85.8196 366.829 85.6491C366.493 85.4787 366.097 85.3935 365.643 85.3935C365.198 85.3935 364.786 85.474 364.407 85.6349C364.028 85.7959 363.723 86.0256 363.491 86.3239C363.259 86.6174 363.136 86.9678 363.121 87.375H360.586C360.605 86.5606 360.839 85.8456 361.289 85.2301C361.744 84.6098 362.35 84.1269 363.107 83.7812C363.865 83.4309 364.715 83.2557 365.657 83.2557C366.628 83.2557 367.47 83.438 368.185 83.8026C368.905 84.1624 369.461 84.6477 369.854 85.2585C370.247 85.8693 370.444 86.544 370.444 87.2827C370.449 88.1018 370.207 88.7884 369.719 89.3423C369.237 89.8963 368.602 90.2585 367.816 90.429V90.5426C368.839 90.6847 369.622 91.0634 370.167 91.679C370.716 92.2898 370.988 93.0497 370.984 93.9588C370.984 94.7732 370.752 95.5024 370.288 96.1463C369.828 96.7855 369.194 97.2874 368.384 97.652C367.579 98.0166 366.656 98.1989 365.614 98.1989ZM378.038 90.7273C378.038 92.4981 377.801 94.1293 377.328 95.6207C376.859 97.1075 376.158 98.483 375.225 99.7472H372.804C373.168 99.2784 373.504 98.7055 373.812 98.0284C374.125 97.3513 374.395 96.608 374.622 95.7983C374.854 94.9886 375.034 94.1506 375.162 93.2841C375.294 92.4176 375.36 91.5653 375.36 90.7273C375.36 89.6051 375.247 88.4687 375.02 87.3182C374.797 86.1676 374.492 85.0999 374.103 84.1151C373.72 83.1302 373.287 82.3253 372.804 81.7003H375.225C376.158 82.9645 376.859 84.3423 377.328 85.8338C377.801 87.3205 378.038 88.9517 378.038 90.7273Z" fill="#0A033C"/>
<path d="M21.4347 98V83.4545H26.8892C28.0066 83.4545 28.9441 83.6487 29.7017 84.0369C30.464 84.4252 31.0393 84.9697 31.4276 85.6705C31.8205 86.3665 32.017 87.1785 32.017 88.1065C32.017 89.0393 31.8182 89.849 31.4205 90.5355C31.0275 91.2173 30.4474 91.7453 29.6804 92.1193C28.9134 92.4886 27.9711 92.6733 26.8537 92.6733H22.9688V90.4858H26.4986C27.152 90.4858 27.687 90.3958 28.1037 90.2159C28.5204 90.0312 28.8281 89.7637 29.027 89.4134C29.2306 89.0582 29.3324 88.6226 29.3324 88.1065C29.3324 87.5904 29.2306 87.1501 29.027 86.7855C28.8234 86.4162 28.5133 86.1368 28.0966 85.9474C27.6799 85.7533 27.1425 85.6562 26.4844 85.6562H24.0696V98H21.4347ZM28.9489 91.4091L32.5497 98H29.6094L26.0724 91.4091H28.9489ZM37.468 98.2202C36.7768 98.2202 36.1541 98.0971 35.6001 97.8509C35.0509 97.5999 34.6153 97.2306 34.2933 96.7429C33.9761 96.2552 33.8175 95.6539 33.8175 94.9389C33.8175 94.3234 33.9311 93.8144 34.1584 93.4119C34.3857 93.0095 34.6958 92.6875 35.0888 92.446C35.4818 92.2045 35.9245 92.0223 36.4169 91.8991C36.9141 91.7713 37.4278 91.679 37.9581 91.6222C38.5973 91.5559 39.1158 91.4967 39.5135 91.4446C39.9112 91.3878 40.2 91.3026 40.38 91.1889C40.5646 91.0705 40.657 90.8883 40.657 90.642V90.5994C40.657 90.0644 40.4983 89.6501 40.1811 89.3565C39.8639 89.063 39.407 88.9162 38.8104 88.9162C38.1806 88.9162 37.6811 89.0535 37.3118 89.3281C36.9472 89.6027 36.701 89.9271 36.5732 90.3011L34.1726 89.9602C34.362 89.2973 34.6745 88.7434 35.1101 88.2983C35.5457 87.8485 36.0784 87.5123 36.7081 87.2898C37.3378 87.0625 38.0339 86.9489 38.7962 86.9489C39.3217 86.9489 39.8449 87.0104 40.3658 87.1335C40.8866 87.2566 41.3625 87.4602 41.7933 87.7443C42.2242 88.0237 42.5698 88.4048 42.8303 88.8878C43.0954 89.3707 43.228 89.9744 43.228 90.6989V98H40.7564V96.5014H40.6712C40.5149 96.8045 40.2947 97.0885 40.0107 97.3537C39.7313 97.6141 39.3786 97.8248 38.9524 97.9858C38.531 98.142 38.0362 98.2202 37.468 98.2202ZM38.1357 96.331C38.6518 96.331 39.0992 96.2292 39.478 96.0256C39.8568 95.8172 40.148 95.5426 40.3516 95.2017C40.5599 94.8608 40.6641 94.4891 40.6641 94.0866V92.8011C40.5836 92.8674 40.4463 92.929 40.2521 92.9858C40.0627 93.0426 39.8497 93.0923 39.6129 93.1349C39.3762 93.1776 39.1418 93.2154 38.9098 93.2486C38.6778 93.2817 38.4766 93.3101 38.3061 93.3338C37.9226 93.3859 37.5793 93.4711 37.2763 93.5895C36.9732 93.7079 36.7341 93.8736 36.5589 94.0866C36.3838 94.295 36.2962 94.5649 36.2962 94.8963C36.2962 95.3698 36.469 95.7273 36.8146 95.9688C37.1603 96.2102 37.6006 96.331 38.1357 96.331ZM51.2607 87.0909V89.0795H44.9893V87.0909H51.2607ZM46.5376 84.4773H49.1087V94.7188C49.1087 95.0644 49.1607 95.3295 49.2649 95.5142C49.3738 95.6941 49.5159 95.8172 49.6911 95.8835C49.8662 95.9498 50.0604 95.983 50.2734 95.983C50.4344 95.983 50.5812 95.9711 50.7138 95.9474C50.8511 95.9238 50.9553 95.9025 51.0263 95.8835L51.4595 97.8935C51.3222 97.9408 51.1257 97.9929 50.87 98.0497C50.6191 98.1065 50.3113 98.1397 49.9467 98.1491C49.3028 98.1681 48.7228 98.071 48.2067 97.858C47.6906 97.6402 47.281 97.304 46.978 96.8494C46.6797 96.3949 46.5329 95.8267 46.5376 95.1449V84.4773ZM53.4109 98V87.0909H55.9819V98H53.4109ZM54.7035 85.5426C54.2963 85.5426 53.9459 85.4077 53.6523 85.1378C53.3588 84.8632 53.212 84.5341 53.212 84.1506C53.212 83.7623 53.3588 83.4332 53.6523 83.1634C53.9459 82.8887 54.2963 82.7514 54.7035 82.7514C55.1154 82.7514 55.4658 82.8887 55.7546 83.1634C56.0482 83.4332 56.195 83.7623 56.195 84.1506C56.195 84.5341 56.0482 84.8632 55.7546 85.1378C55.4658 85.4077 55.1154 85.5426 54.7035 85.5426ZM61.1967 91.608V98H58.6257V87.0909H61.0831V88.9446H61.2109C61.4619 88.3338 61.862 87.8485 62.4112 87.4886C62.9652 87.1288 63.6494 86.9489 64.4638 86.9489C65.2166 86.9489 65.8724 87.1098 66.4311 87.4318C66.9946 87.7538 67.4302 88.2202 67.7379 88.831C68.0504 89.4418 68.2043 90.1828 68.1996 91.054V98H65.6286V91.4517C65.6286 90.7225 65.4392 90.152 65.0604 89.7401C64.6863 89.3281 64.1679 89.1222 63.505 89.1222C63.0552 89.1222 62.6551 89.2216 62.3047 89.4205C61.959 89.6146 61.6868 89.8963 61.4879 90.2656C61.2938 90.6349 61.1967 91.0824 61.1967 91.608ZM75.5575 102.318C74.6342 102.318 73.8411 102.193 73.1783 101.942C72.5154 101.696 71.9827 101.364 71.5803 100.947C71.1778 100.531 70.8984 100.069 70.7422 99.5625L73.0575 99.0014C73.1617 99.2145 73.3132 99.4252 73.5121 99.6335C73.7109 99.8466 73.9785 100.022 74.3146 100.159C74.6555 100.301 75.084 100.372 75.6001 100.372C76.3293 100.372 76.933 100.195 77.4112 99.8395C77.8894 99.4891 78.1286 98.9115 78.1286 98.1065V96.0398H78.0007C77.8681 96.3049 77.674 96.5772 77.4183 96.8565C77.1674 97.1359 76.8336 97.3703 76.4169 97.5597C76.005 97.7491 75.4865 97.8438 74.8615 97.8438C74.0234 97.8438 73.2635 97.6473 72.5817 97.2543C71.9046 96.8565 71.3648 96.2647 70.9624 95.4787C70.5646 94.688 70.3658 93.6984 70.3658 92.5099C70.3658 91.312 70.5646 90.3011 70.9624 89.4773C71.3648 88.6487 71.907 88.0213 72.5888 87.5952C73.2706 87.1643 74.0305 86.9489 74.8686 86.9489C75.5078 86.9489 76.0334 87.0578 76.4453 87.2756C76.862 87.4886 77.1934 87.7467 77.4396 88.0497C77.6858 88.348 77.8729 88.6297 78.0007 88.8949H78.1428V87.0909H80.6783V98.1776C80.6783 99.1103 80.4557 99.8821 80.0107 100.493C79.5656 101.104 78.9571 101.561 78.1854 101.864C77.4136 102.167 76.5376 102.318 75.5575 102.318ZM75.5788 95.8267C76.1233 95.8267 76.5874 95.6941 76.9709 95.429C77.3544 95.1638 77.6456 94.7827 77.8445 94.2855C78.0433 93.7884 78.1428 93.1918 78.1428 92.4957C78.1428 91.8092 78.0433 91.2079 77.8445 90.6918C77.6503 90.1757 77.3615 89.7756 76.978 89.4915C76.5992 89.2027 76.1328 89.0582 75.5788 89.0582C75.0059 89.0582 74.5277 89.2074 74.1442 89.5057C73.7607 89.804 73.4718 90.2135 73.2777 90.7344C73.0836 91.2505 72.9865 91.8376 72.9865 92.4957C72.9865 93.1634 73.0836 93.7481 73.2777 94.25C73.4766 94.7472 73.7678 95.1354 74.1513 95.4148C74.5395 95.6894 75.0154 95.8267 75.5788 95.8267ZM91.9354 89.9744L89.5916 90.2301C89.5253 89.9934 89.4093 89.7708 89.2436 89.5625C89.0826 89.3542 88.8648 89.1861 88.5902 89.0582C88.3156 88.9304 87.9794 88.8665 87.5817 88.8665C87.0466 88.8665 86.5968 88.9825 86.2322 89.2145C85.8724 89.4465 85.6948 89.7472 85.6996 90.1165C85.6948 90.4337 85.8108 90.6918 86.0476 90.8906C86.2891 91.0895 86.6868 91.2528 87.2408 91.3807L89.1016 91.7784C90.1338 92.0009 90.9008 92.3537 91.4027 92.8366C91.9093 93.3196 92.165 93.9517 92.1697 94.733C92.165 95.4195 91.9638 96.0256 91.5661 96.5511C91.1731 97.072 90.6262 97.4792 89.9254 97.7727C89.2247 98.0663 88.4197 98.2131 87.5107 98.2131C86.1754 98.2131 85.1006 97.9337 84.2862 97.375C83.4718 96.8116 82.9865 96.0279 82.8303 95.0241L85.3374 94.7827C85.451 95.2751 85.6925 95.6468 86.0618 95.8977C86.4311 96.1487 86.9117 96.2741 87.5036 96.2741C88.1143 96.2741 88.6044 96.1487 88.9737 95.8977C89.3478 95.6468 89.5348 95.3366 89.5348 94.9673C89.5348 94.6548 89.4141 94.3968 89.1726 94.1932C88.9358 93.9896 88.5665 93.8333 88.0646 93.7244L86.2038 93.3338C85.1574 93.116 84.3833 92.7491 83.8814 92.233C83.3795 91.7121 83.1309 91.054 83.1357 90.2585C83.1309 89.5862 83.3132 89.0038 83.6825 88.5114C84.0566 88.0142 84.575 87.6307 85.2379 87.3608C85.9055 87.0862 86.675 86.9489 87.5462 86.9489C88.8246 86.9489 89.8307 87.2211 90.5646 87.7656C91.3033 88.3101 91.7602 89.0464 91.9354 89.9744Z" fill="#5D5A6F"/>
<path d="M356.175 53.2386C354.947 53.2386 353.857 53.0284 352.902 52.608C351.953 52.1875 351.203 51.6023 350.652 50.8523C350.101 50.1023 349.808 49.2358 349.774 48.2528H352.979C353.007 48.7244 353.163 49.1364 353.447 49.4886C353.732 49.8352 354.109 50.1051 354.581 50.2983C355.053 50.4915 355.581 50.5881 356.166 50.5881C356.791 50.5881 357.345 50.4801 357.828 50.2642C358.311 50.0426 358.689 49.7358 358.962 49.3438C359.234 48.9517 359.368 48.5 359.362 47.9886C359.368 47.4602 359.232 46.9943 358.953 46.5909C358.675 46.1875 358.271 45.8722 357.743 45.6449C357.22 45.4176 356.589 45.304 355.851 45.304H354.308V42.8665H355.851C356.459 42.8665 356.99 42.7614 357.445 42.5511C357.905 42.3409 358.266 42.0455 358.527 41.6648C358.788 41.2784 358.916 40.8324 358.911 40.3267C358.916 39.8324 358.805 39.4034 358.578 39.0398C358.357 38.6705 358.041 38.3835 357.632 38.179C357.229 37.9744 356.754 37.8722 356.209 37.8722C355.675 37.8722 355.18 37.9687 354.726 38.1619C354.271 38.3551 353.905 38.6307 353.626 38.9886C353.348 39.3409 353.2 39.7614 353.183 40.25H350.141C350.163 39.2727 350.445 38.4148 350.984 37.6761C351.53 36.9318 352.257 36.3523 353.166 35.9375C354.075 35.517 355.095 35.3068 356.226 35.3068C357.391 35.3068 358.402 35.5256 359.26 35.9631C360.124 36.3949 360.791 36.9773 361.263 37.7102C361.734 38.4432 361.97 39.2528 361.97 40.1392C361.976 41.1222 361.686 41.946 361.101 42.6108C360.521 43.2756 359.76 43.7102 358.817 43.9148V44.0511C360.044 44.2216 360.984 44.6761 361.638 45.4148C362.297 46.1477 362.624 47.0597 362.618 48.1506C362.618 49.1278 362.339 50.0028 361.783 50.7756C361.232 51.5426 360.47 52.1449 359.499 52.5824C358.533 53.0199 357.425 53.2386 356.175 53.2386ZM371.995 53.3324C370.592 53.3324 369.387 52.9773 368.381 52.267C367.381 51.5511 366.612 50.5199 366.072 49.1733C365.538 47.821 365.271 46.1932 365.271 44.2898C365.276 42.3864 365.546 40.767 366.08 39.4318C366.62 38.0909 367.39 37.0682 368.39 36.3636C369.396 35.6591 370.597 35.3068 371.995 35.3068C373.393 35.3068 374.594 35.6591 375.6 36.3636C376.606 37.0682 377.376 38.0909 377.91 39.4318C378.45 40.7727 378.719 42.392 378.719 44.2898C378.719 46.1989 378.45 47.8295 377.91 49.1818C377.376 50.5284 376.606 51.5568 375.6 52.267C374.6 52.9773 373.398 53.3324 371.995 53.3324ZM371.995 50.6648C373.086 50.6648 373.947 50.1278 374.577 49.054C375.214 47.9744 375.532 46.3864 375.532 44.2898C375.532 42.9034 375.387 41.7386 375.097 40.7955C374.808 39.8523 374.398 39.142 373.87 38.6648C373.342 38.1818 372.717 37.9403 371.995 37.9403C370.91 37.9403 370.052 38.4801 369.421 39.5597C368.79 40.6335 368.472 42.2102 368.467 44.2898C368.461 45.6818 368.6 46.8523 368.884 47.8011C369.174 48.75 369.583 49.4659 370.112 49.9489C370.64 50.4261 371.268 50.6648 371.995 50.6648Z" fill="#FF6652"/>
<path d="M20.7955 38.6634V36.4545H32.4006V38.6634H27.9048V51H25.2912V38.6634H20.7955ZM37.7006 51.2131C36.6353 51.2131 35.712 50.9787 34.9308 50.5099C34.1495 50.0412 33.5434 49.3854 33.1126 48.5426C32.6864 47.6998 32.4734 46.715 32.4734 45.5881C32.4734 44.4612 32.6864 43.474 33.1126 42.6264C33.5434 41.7789 34.1495 41.1207 34.9308 40.652C35.712 40.1832 36.6353 39.9489 37.7006 39.9489C38.766 39.9489 39.6893 40.1832 40.4705 40.652C41.2518 41.1207 41.8555 41.7789 42.2816 42.6264C42.7125 43.474 42.9279 44.4612 42.9279 45.5881C42.9279 46.715 42.7125 47.6998 42.2816 48.5426C41.8555 49.3854 41.2518 50.0412 40.4705 50.5099C39.6893 50.9787 38.766 51.2131 37.7006 51.2131ZM37.7148 49.1534C38.2925 49.1534 38.7754 48.9948 39.1637 48.6776C39.552 48.3556 39.8408 47.9247 40.0302 47.3849C40.2243 46.8452 40.3214 46.2438 40.3214 45.581C40.3214 44.9134 40.2243 44.3097 40.0302 43.7699C39.8408 43.2254 39.552 42.7921 39.1637 42.4702C38.7754 42.1482 38.2925 41.9872 37.7148 41.9872C37.123 41.9872 36.6306 42.1482 36.2376 42.4702C35.8493 42.7921 35.5581 43.2254 35.364 43.7699C35.1746 44.3097 35.0799 44.9134 35.0799 45.581C35.0799 46.2438 35.1746 46.8452 35.364 47.3849C35.5581 47.9247 35.8493 48.3556 36.2376 48.6776C36.6306 48.9948 37.123 49.1534 37.7148 49.1534ZM50.5575 40.0909V42.0795H44.2862V40.0909H50.5575ZM45.8345 37.4773H48.4055V47.7188C48.4055 48.0644 48.4576 48.3295 48.5618 48.5142C48.6707 48.6941 48.8127 48.8172 48.9879 48.8835C49.1631 48.9498 49.3572 48.983 49.5703 48.983C49.7313 48.983 49.8781 48.9711 50.0107 48.9474C50.148 48.9238 50.2521 48.9025 50.3232 48.8835L50.7564 50.8935C50.6191 50.9408 50.4226 50.9929 50.1669 51.0497C49.916 51.1065 49.6082 51.1397 49.2436 51.1491C48.5997 51.1681 48.0196 51.071 47.5036 50.858C46.9875 50.6402 46.5779 50.304 46.2749 49.8494C45.9766 49.3949 45.8298 48.8267 45.8345 48.1449V37.4773ZM55.8469 51.2202C55.1557 51.2202 54.533 51.0971 53.979 50.8509C53.4298 50.5999 52.9942 50.2306 52.6722 49.7429C52.355 49.2552 52.1964 48.6539 52.1964 47.9389C52.1964 47.3234 52.31 46.8144 52.5373 46.4119C52.7646 46.0095 53.0747 45.6875 53.4677 45.446C53.8607 45.2045 54.3034 45.0223 54.7958 44.8991C55.293 44.7713 55.8067 44.679 56.337 44.6222C56.9762 44.5559 57.4947 44.4967 57.8924 44.4446C58.2901 44.3878 58.579 44.3026 58.7589 44.1889C58.9435 44.0705 59.0359 43.8883 59.0359 43.642V43.5994C59.0359 43.0644 58.8772 42.6501 58.56 42.3565C58.2428 42.063 57.7859 41.9162 57.1893 41.9162C56.5595 41.9162 56.06 42.0535 55.6907 42.3281C55.3261 42.6027 55.0799 42.9271 54.9521 43.3011L52.5515 42.9602C52.7409 42.2973 53.0534 41.7434 53.489 41.2983C53.9246 40.8485 54.4573 40.5123 55.087 40.2898C55.7167 40.0625 56.4128 39.9489 57.1751 39.9489C57.7006 39.9489 58.2238 40.0104 58.7447 40.1335C59.2655 40.2566 59.7414 40.4602 60.1722 40.7443C60.6031 41.0237 60.9487 41.4048 61.2092 41.8878C61.4743 42.3707 61.6069 42.9744 61.6069 43.6989V51H59.1353V49.5014H59.0501C58.8938 49.8045 58.6737 50.0885 58.3896 50.3537C58.1102 50.6141 57.7575 50.8248 57.3313 50.9858C56.9099 51.142 56.4151 51.2202 55.8469 51.2202ZM56.5146 49.331C57.0307 49.331 57.4781 49.2292 57.8569 49.0256C58.2357 48.8172 58.5269 48.5426 58.7305 48.2017C58.9388 47.8608 59.043 47.4891 59.043 47.0866V45.8011C58.9625 45.8674 58.8252 45.929 58.631 45.9858C58.4416 46.0426 58.2286 46.0923 57.9918 46.1349C57.7551 46.1776 57.5207 46.2154 57.2887 46.2486C57.0567 46.2817 56.8555 46.3101 56.685 46.3338C56.3015 46.3859 55.9582 46.4711 55.6552 46.5895C55.3522 46.7079 55.113 46.8736 54.9379 47.0866C54.7627 47.295 54.6751 47.5649 54.6751 47.8963C54.6751 48.3698 54.8479 48.7273 55.1935 48.9688C55.5392 49.2102 55.9795 49.331 56.5146 49.331ZM66.7631 36.4545V51H64.1921V36.4545H66.7631ZM86.9318 41.3622H84.2756C84.1998 40.9266 84.0601 40.5407 83.8565 40.2045C83.6529 39.8636 83.3996 39.5748 83.0966 39.3381C82.7936 39.1013 82.4479 38.9238 82.0597 38.8054C81.6761 38.6823 81.2618 38.6207 80.8168 38.6207C80.026 38.6207 79.3253 38.8196 78.7145 39.2173C78.1037 39.6103 77.6255 40.188 77.2798 40.9503C76.9342 41.7079 76.7614 42.6335 76.7614 43.7273C76.7614 44.84 76.9342 45.7775 77.2798 46.5398C77.6302 47.2973 78.1084 47.8703 78.7145 48.2585C79.3253 48.642 80.0237 48.8338 80.8097 48.8338C81.2453 48.8338 81.6525 48.777 82.0312 48.6634C82.4148 48.545 82.758 48.3722 83.0611 48.1449C83.3688 47.9176 83.6269 47.6383 83.8352 47.3068C84.0483 46.9754 84.1951 46.5966 84.2756 46.1705L86.9318 46.1847C86.8324 46.8759 86.617 47.5246 86.2855 48.1307C85.9588 48.7367 85.5303 49.2718 85 49.7358C84.4697 50.1951 83.8494 50.5549 83.1392 50.8153C82.429 51.071 81.6406 51.1989 80.7741 51.1989C79.4957 51.1989 78.3546 50.9029 77.3509 50.3111C76.3471 49.7192 75.5563 48.8646 74.9787 47.7472C74.401 46.6297 74.1122 45.2898 74.1122 43.7273C74.1122 42.16 74.4034 40.8201 74.9858 39.7074C75.5682 38.59 76.3613 37.7353 77.3651 37.1435C78.3688 36.5516 79.5052 36.2557 80.7741 36.2557C81.5838 36.2557 82.3366 36.3693 83.0327 36.5966C83.7287 36.8239 84.349 37.1577 84.8935 37.598C85.438 38.0336 85.8854 38.5687 86.2358 39.2031C86.5909 39.8329 86.8229 40.5526 86.9318 41.3622ZM93.9897 51.2131C92.9244 51.2131 92.0011 50.9787 91.2198 50.5099C90.4386 50.0412 89.8325 49.3854 89.4016 48.5426C88.9755 47.6998 88.7624 46.715 88.7624 45.5881C88.7624 44.4612 88.9755 43.474 89.4016 42.6264C89.8325 41.7789 90.4386 41.1207 91.2198 40.652C92.0011 40.1832 92.9244 39.9489 93.9897 39.9489C95.055 39.9489 95.9783 40.1832 96.7596 40.652C97.5408 41.1207 98.1445 41.7789 98.5707 42.6264C99.0015 43.474 99.217 44.4612 99.217 45.5881C99.217 46.715 99.0015 47.6998 98.5707 48.5426C98.1445 49.3854 97.5408 50.0412 96.7596 50.5099C95.9783 50.9787 95.055 51.2131 93.9897 51.2131ZM94.0039 49.1534C94.5816 49.1534 95.0645 48.9948 95.4528 48.6776C95.841 48.3556 96.1299 47.9247 96.3192 47.3849C96.5134 46.8452 96.6104 46.2438 96.6104 45.581C96.6104 44.9134 96.5134 44.3097 96.3192 43.7699C96.1299 43.2254 95.841 42.7921 95.4528 42.4702C95.0645 42.1482 94.5816 41.9872 94.0039 41.9872C93.4121 41.9872 92.9196 42.1482 92.5266 42.4702C92.1384 42.7921 91.8472 43.2254 91.6531 43.7699C91.4637 44.3097 91.369 44.9134 91.369 45.581C91.369 46.2438 91.4637 46.8452 91.6531 47.3849C91.8472 47.9247 92.1384 48.3556 92.5266 48.6776C92.9196 48.9948 93.4121 49.1534 94.0039 49.1534ZM108.352 46.4119V40.0909H110.923V51H108.43V49.0611H108.317C108.071 49.6719 107.666 50.1714 107.102 50.5597C106.544 50.9479 105.855 51.142 105.036 51.142C104.321 51.142 103.688 50.9834 103.139 50.6662C102.595 50.3442 102.169 49.8778 101.861 49.267C101.553 48.6515 101.399 47.9081 101.399 47.0369V40.0909H103.97V46.6392C103.97 47.3305 104.16 47.8797 104.538 48.2869C104.917 48.6941 105.414 48.8977 106.03 48.8977C106.409 48.8977 106.776 48.8054 107.131 48.6207C107.486 48.4361 107.777 48.1615 108.004 47.7969C108.236 47.4276 108.352 46.9659 108.352 46.4119ZM113.567 51V40.0909H116.06V41.9091H116.174C116.373 41.2794 116.713 40.794 117.196 40.4531C117.684 40.1075 118.24 39.9347 118.865 39.9347C119.007 39.9347 119.166 39.9418 119.341 39.956C119.521 39.9654 119.67 39.982 119.789 40.0057V42.3707C119.68 42.3329 119.507 42.2997 119.27 42.2713C119.038 42.2382 118.813 42.2216 118.596 42.2216C118.127 42.2216 117.705 42.3234 117.331 42.527C116.962 42.7259 116.671 43.0028 116.458 43.358C116.245 43.7131 116.138 44.1226 116.138 44.5866V51H113.567ZM130.119 42.9744L127.775 43.2301C127.709 42.9934 127.593 42.7708 127.427 42.5625C127.266 42.3542 127.048 42.1861 126.774 42.0582C126.499 41.9304 126.163 41.8665 125.765 41.8665C125.23 41.8665 124.78 41.9825 124.416 42.2145C124.056 42.4465 123.878 42.7472 123.883 43.1165C123.878 43.4337 123.994 43.6918 124.231 43.8906C124.473 44.0895 124.87 44.2528 125.424 44.3807L127.285 44.7784C128.317 45.0009 129.084 45.3537 129.586 45.8366C130.093 46.3196 130.349 46.9517 130.353 47.733C130.349 48.4195 130.147 49.0256 129.75 49.5511C129.357 50.072 128.81 50.4792 128.109 50.7727C127.408 51.0663 126.603 51.2131 125.694 51.2131C124.359 51.2131 123.284 50.9337 122.47 50.375C121.655 49.8116 121.17 49.0279 121.014 48.0241L123.521 47.7827C123.635 48.2751 123.876 48.6468 124.245 48.8977C124.615 49.1487 125.095 49.2741 125.687 49.2741C126.298 49.2741 126.788 49.1487 127.157 48.8977C127.531 48.6468 127.718 48.3366 127.718 47.9673C127.718 47.6548 127.598 47.3968 127.356 47.1932C127.119 46.9896 126.75 46.8333 126.248 46.7244L124.387 46.3338C123.341 46.116 122.567 45.7491 122.065 45.233C121.563 44.7121 121.315 44.054 121.319 43.2585C121.315 42.5862 121.497 42.0038 121.866 41.5114C122.24 41.0142 122.759 40.6307 123.422 40.3608C124.089 40.0862 124.859 39.9489 125.73 39.9489C127.008 39.9489 128.014 40.2211 128.748 40.7656C129.487 41.3101 129.944 42.0464 130.119 42.9744ZM137.303 51.2131C136.209 51.2131 135.265 50.9858 134.469 50.5312C133.678 50.072 133.07 49.4233 132.644 48.5852C132.218 47.7424 132.005 46.7505 132.005 45.6094C132.005 44.4872 132.218 43.5024 132.644 42.6548C133.075 41.8026 133.676 41.1397 134.448 40.6662C135.22 40.188 136.126 39.9489 137.168 39.9489C137.84 39.9489 138.475 40.0578 139.071 40.2756C139.673 40.4886 140.203 40.8201 140.662 41.2699C141.126 41.7197 141.491 42.2926 141.756 42.9886C142.021 43.6799 142.154 44.5038 142.154 45.4602V46.2486H133.212V44.5156H139.689C139.685 44.0232 139.578 43.5852 139.37 43.2017C139.161 42.8134 138.87 42.508 138.496 42.2855C138.127 42.063 137.696 41.9517 137.203 41.9517C136.678 41.9517 136.216 42.0795 135.819 42.3352C135.421 42.5862 135.111 42.9176 134.888 43.3295C134.67 43.7367 134.559 44.1842 134.554 44.6719V46.1847C134.554 46.8191 134.67 47.3636 134.902 47.8182C135.134 48.268 135.459 48.6136 135.875 48.8551C136.292 49.0919 136.78 49.2102 137.338 49.2102C137.712 49.2102 138.051 49.1581 138.354 49.054C138.657 48.9451 138.92 48.7865 139.142 48.5781C139.365 48.3698 139.533 48.1117 139.647 47.804L142.047 48.0739C141.896 48.7083 141.607 49.2623 141.181 49.7358C140.759 50.2045 140.22 50.5691 139.561 50.8295C138.903 51.0852 138.15 51.2131 137.303 51.2131Z" fill="#5D5A6F"/>
<defs>
<clipPath id="clip0_443_2537">
<rect width="22" height="21.9998" fill="white" transform="translate(233 266)"/>
</clipPath>
<clipPath id="clip1_443_2537">
<rect width="22" height="18.5714" fill="white" transform="translate(358 268)"/>
</clipPath>
<clipPath id="clip2_443_2537">
<rect width="22" height="17.6" fill="white" transform="translate(321 268)"/>
</clipPath>
</defs>
</svg>
