<svg width="47" height="50" viewBox="0 0 47 50" fill="none" xmlns="http://www.w3.org/2000/svg">
<g clip-path="url(#clip0_1049_1708)">
<path d="M24.9235 8.74632C24.5589 8.74706 24.2401 8.48137 24.1487 8.10055C24.0572 7.71973 24.2162 7.3204 24.5352 7.12994C30.6415 3.47477 38.101 0.750628 40.7204 4.07822C41.0072 4.44101 40.9671 4.98599 40.6309 5.29546C40.2947 5.60493 39.7897 5.5617 39.503 5.19891C38.1577 3.49287 32.8511 4.12649 25.3101 8.64201C25.1913 8.71116 25.0584 8.74703 24.9235 8.74632Z" fill="#E57E25"/>
<path d="M5.7915 31.6976C5.46394 31.6978 5.16946 31.4822 5.04859 31.1536C3.95498 28.1838 6.43217 23.0752 11.6789 17.4855C11.9974 17.1866 12.4765 17.2067 12.7726 17.5314C13.0686 17.8562 13.0795 18.3734 12.7973 18.7122C7.53376 24.3243 5.8586 28.6847 6.53282 30.5166C6.63076 30.782 6.60052 31.0825 6.45206 31.319C6.3036 31.5555 6.05622 31.6973 5.7915 31.6976Z" fill="#E57E25"/>
<path d="M21.6157 8.87177C21.4792 8.87181 21.345 8.83412 21.2258 8.76229C13.4628 4.06574 8.37339 3.56143 6.9267 5.07608C6.61082 5.40936 6.10438 5.40318 5.79556 5.06229C5.48673 4.7214 5.49245 4.17487 5.80834 3.8416C8.64819 0.85884 16.0334 3.65022 21.9999 7.25712C22.3177 7.4487 22.4752 7.84787 22.3831 8.22789C22.291 8.60791 21.9725 8.87267 21.6085 8.87177H21.6157Z" fill="#E57E25"/>
<path d="M40.5718 31.6116C40.3118 31.6116 40.0681 31.475 39.9185 31.2455C39.7689 31.0159 39.7322 30.7222 39.8201 30.4582C40.5734 28.1969 38.1066 23.5866 33.5349 18.7125C33.2295 18.3764 33.2304 17.8381 33.5368 17.5032C33.8432 17.1683 34.3419 17.1605 34.6572 17.4857C39.8249 22.9952 42.3164 28.0625 41.3227 31.0409C41.2089 31.3829 40.9085 31.6112 40.5718 31.6116Z" fill="#E57E25"/>
<path d="M16.7754 43.103H14.3789C13.9377 43.103 13.5801 42.7171 13.5801 42.241C13.5801 41.7649 13.9377 41.3789 14.3789 41.3789H16.7754C17.2166 41.3789 17.5742 41.7649 17.5742 42.241C17.5742 42.7171 17.2166 43.103 16.7754 43.103Z" fill="#7F8284"/>
<path d="M31.9534 43.103H29.5569C29.1157 43.103 28.7581 42.7171 28.7581 42.241C28.7581 41.7649 29.1157 41.3789 29.5569 41.3789H31.9534C32.3946 41.3789 32.7522 41.7649 32.7522 42.241C32.7522 42.7171 32.3946 43.103 31.9534 43.103Z" fill="#7F8284"/>
<path d="M37.4812 20.4655C37.1648 24.0008 35.7288 27.3102 33.4151 29.8362C30.9833 32.4348 29.5972 35.9622 29.5568 39.6552H16.7754C16.7698 37.8279 16.4192 36.021 15.7449 34.3448C15.069 32.666 14.1101 31.1373 12.9171 29.8362C9.23711 25.8076 7.88332 19.9353 9.38501 14.5155C10.8867 9.09561 15.0053 4.98916 20.1305 3.80172C20.4996 3.72045 20.7659 3.37199 20.7696 2.96552V2.58621C20.7696 1.15788 21.8426 0 23.1661 0C24.4897 0 25.5626 1.15788 25.5626 2.58621V2.96552C25.5663 3.37199 25.8326 3.72045 26.2017 3.80172C33.3352 5.46264 38.1846 12.6268 37.4812 20.4655Z" fill="#F0C419"/>
<path d="M34.9267 20.4655C34.7104 23.8803 33.5463 27.1456 31.586 29.8362C29.5259 32.6253 28.4079 36.0885 28.4162 39.6552H17.9163C17.9147 37.8461 17.6284 36.0504 17.0696 34.3448C16.5372 32.7109 15.7517 31.1864 14.7466 29.8362C12.7862 27.1456 11.6221 23.8803 11.4058 20.4655C10.8283 12.3707 14.9894 5.39655 20.6723 3.80172C21.0004 3.68038 21.2145 3.33933 21.1971 2.96552V2.58621C21.0892 1.28858 21.9657 0.1374 23.1663 0C23.7125 0.0131824 24.2239 0.291993 24.5578 0.758621C24.9389 1.27829 25.1428 1.92355 25.1354 2.58621V2.96552C25.1181 3.33933 25.3321 3.68038 25.6602 3.80172C31.3431 5.39655 35.5042 12.3707 34.9267 20.4655Z" fill="#F3D55B"/>
<path d="M29.557 39.6553V44.8277C29.5543 45.7787 28.8406 46.549 27.9593 46.5518H18.3733C17.492 46.549 16.7783 45.7787 16.7756 44.8277V39.6553H29.557Z" fill="#95A5A5"/>
<path d="M27.1602 46.983C27.1602 48.6468 25.3708 50.0003 23.1661 50.0003C20.9613 50.0003 19.1719 48.6468 19.1719 46.983C19.1716 46.8378 19.1877 46.693 19.2198 46.552H27.1123C27.1444 46.693 27.1605 46.8378 27.1602 46.983Z" fill="#393F4A"/>
<path d="M9.38372 33.6207C8.21275 33.6904 7.05347 33.3387 6.08773 32.6207C5.84732 32.4373 5.71988 32.1261 5.75608 31.8107C5.79227 31.4954 5.98625 31.2272 6.26086 31.1126C6.53547 30.9981 6.84621 31.0559 7.06949 31.2629C8.21502 32.2259 10.7881 32.0948 14.1288 30.9052C17.1487 29.7857 20.0413 28.3007 22.7514 26.4784C23.8027 25.7888 24.8284 25.0655 25.8109 24.3345C29.7411 21.4655 33.2947 18.0375 36.3755 14.1431C38.9813 10.7164 40.2794 7.65776 39.8488 5.96034C39.7357 5.50246 39.9863 5.03188 40.4098 4.90677C40.8333 4.78167 41.271 5.04894 41.3898 5.50517C42.1383 8.45603 39.7482 12.4259 37.6113 15.2362C34.4359 19.2548 30.7724 22.7925 26.72 25.7534C25.7159 26.5034 24.6606 27.2431 23.5822 27.9526C20.7667 29.8436 17.7618 31.3841 14.6249 32.5448C12.9386 33.1887 11.1713 33.5514 9.38372 33.6207Z" fill="#F29C1F"/>
<path d="M36.9459 33.6276C35.1567 33.5619 33.388 33.1961 31.7031 32.5432C28.5682 31.3825 25.5652 29.8425 22.7514 27.9526C21.6714 27.2423 20.6161 26.5026 19.612 25.7518C15.5593 22.7909 11.8956 19.2532 8.71989 15.2345C6.55745 12.3897 4.15057 8.38022 4.96538 5.42505C5.09352 4.97202 5.53636 4.71543 5.95708 4.85043C6.37779 4.98543 6.61878 5.46144 6.49674 5.91643C6.03262 7.60522 7.32593 10.6802 9.95809 14.1414C13.0383 18.036 16.5914 21.4643 20.5211 24.3337C21.5004 25.0656 22.5293 25.788 23.5822 26.4794C26.2905 28.3006 29.1812 29.7847 32.1992 30.9035C35.6973 32.1492 38.3974 32.2251 39.4255 31.1069C39.7365 30.7691 40.2424 30.7674 40.5554 31.1031C40.8684 31.4387 40.87 31.9847 40.559 32.3225C39.5664 33.2644 38.2639 33.7349 36.9459 33.6276Z" fill="#F29C1F"/>
<path d="M5.99123 34.4825C7.53537 34.4825 8.78714 33.1316 8.78714 31.4652C8.78714 29.7989 7.53537 28.448 5.99123 28.448C4.44709 28.448 3.19531 29.7989 3.19531 31.4652C3.19531 33.1316 4.44709 34.4825 5.99123 34.4825Z" fill="#3B97D3"/>
<path d="M5.99123 7.75811C7.53537 7.75811 8.78714 6.40725 8.78714 4.74087C8.78714 3.0745 7.53537 1.72363 5.99123 1.72363C4.44709 1.72363 3.19531 3.0745 3.19531 4.74087C3.19531 6.40725 4.44709 7.75811 5.99123 7.75811Z" fill="#3B97D3"/>
<path d="M40.3411 34.4825C41.8852 34.4825 43.137 33.1316 43.137 31.4652C43.137 29.7989 41.8852 28.448 40.3411 28.448C38.7969 28.448 37.5452 29.7989 37.5452 31.4652C37.5452 33.1316 38.7969 34.4825 40.3411 34.4825Z" fill="#3B97D3"/>
<path d="M40.3408 7.75811C41.885 7.75811 43.1368 6.40725 43.1368 4.74087C43.1368 3.0745 41.885 1.72363 40.3408 1.72363C38.7967 1.72363 37.5449 3.0745 37.5449 4.74087C37.5449 6.40725 38.7967 7.75811 40.3408 7.75811Z" fill="#3B97D3"/>
<path d="M13.1687 14.4337C12.8917 14.4336 12.6345 14.2788 12.489 14.0245C12.3435 13.7701 12.3304 13.4526 12.4545 13.1854C13.9545 9.94344 16.6467 7.52986 19.8749 6.5328C20.1526 6.43744 20.4563 6.51281 20.6675 6.72945C20.8787 6.9461 20.9638 7.26966 20.8896 7.57376C20.8155 7.87785 20.5937 8.11422 20.3111 8.19056C17.5144 9.05564 15.1826 11.1477 13.8836 13.9569C13.7483 14.2492 13.4715 14.4338 13.1687 14.4337Z" fill="white"/>
</g>
<defs>
<clipPath id="clip0_1049_1708">
<rect width="46.3323" height="50" fill="white"/>
</clipPath>
</defs>
</svg>
