<svg width="20" height="20" viewBox="0 0 20 20" fill="none" xmlns="http://www.w3.org/2000/svg">
<path fill-rule="evenodd" clip-rule="evenodd" d="M4.33329 1.16665C4.49067 0.956808 4.73766 0.833313 4.99996 0.833313H15C15.2623 0.833313 15.5092 0.956808 15.6666 1.16665L18.1666 4.49998C18.2748 4.64423 18.3333 4.81967 18.3333 4.99998V16.6666C18.3333 17.3297 18.0699 17.9656 17.6011 18.4344C17.1322 18.9033 16.4963 19.1666 15.8333 19.1666H4.16663C3.50358 19.1666 2.8677 18.9033 2.39886 18.4344C1.93002 17.9656 1.66663 17.3297 1.66663 16.6666V4.99998C1.66663 4.81967 1.72511 4.64423 1.83329 4.49998L4.33329 1.16665ZM5.41663 2.49998L3.33329 5.27776V16.6666C3.33329 16.8877 3.42109 17.0996 3.57737 17.2559C3.73365 17.4122 3.94561 17.5 4.16663 17.5H15.8333C16.0543 17.5 16.2663 17.4122 16.4225 17.2559C16.5788 17.0996 16.6666 16.8877 16.6666 16.6666V5.27776L14.5833 2.49998H5.41663Z" fill="#828FA2"/>
<path fill-rule="evenodd" clip-rule="evenodd" d="M1.66663 4.99998C1.66663 4.53974 2.03972 4.16665 2.49996 4.16665H17.5C17.9602 4.16665 18.3333 4.53974 18.3333 4.99998C18.3333 5.46022 17.9602 5.83331 17.5 5.83331H2.49996C2.03972 5.83331 1.66663 5.46022 1.66663 4.99998Z" fill="#828FA2"/>
<path fill-rule="evenodd" clip-rule="evenodd" d="M6.66663 7.49998C7.12686 7.49998 7.49996 7.87308 7.49996 8.33331C7.49996 8.99635 7.76335 9.63224 8.23219 10.1011C8.70103 10.5699 9.33692 10.8333 9.99996 10.8333C10.663 10.8333 11.2989 10.5699 11.7677 10.1011C12.2366 9.63224 12.5 8.99635 12.5 8.33331C12.5 7.87308 12.8731 7.49998 13.3333 7.49998C13.7935 7.49998 14.1666 7.87308 14.1666 8.33331C14.1666 9.43838 13.7276 10.4982 12.9462 11.2796C12.1648 12.061 11.105 12.5 9.99996 12.5C8.89489 12.5 7.83508 12.061 7.05368 11.2796C6.27228 10.4982 5.83329 9.43838 5.83329 8.33331C5.83329 7.87308 6.20639 7.49998 6.66663 7.49998Z" fill="#828FA2"/>
</svg>
