<svg width="20" height="20" viewBox="0 0 20 20" fill="none" xmlns="http://www.w3.org/2000/svg">
<path fill-rule="evenodd" clip-rule="evenodd" d="M1.6665 5.83325C1.6665 4.45254 2.78579 3.33325 4.1665 3.33325H15.8332C17.2139 3.33325 18.3332 4.45254 18.3332 5.83325V15.8333C18.3332 17.214 17.2139 18.3333 15.8332 18.3333H4.1665C2.78579 18.3333 1.6665 17.214 1.6665 15.8333V5.83325ZM7.49984 10.8333C7.49984 10.373 7.87293 9.99992 8.33317 9.99992H14.1665C14.6267 9.99992 14.9998 10.373 14.9998 10.8333C14.9998 11.2935 14.6267 11.6666 14.1665 11.6666H8.33317C7.87293 11.6666 7.49984 11.2935 7.49984 10.8333ZM4.99984 14.1666C4.99984 13.7063 5.37293 13.3333 5.83317 13.3333H10.8332C11.2934 13.3333 11.6665 13.7063 11.6665 14.1666C11.6665 14.6268 11.2934 14.9999 10.8332 14.9999H5.83317C5.37293 14.9999 4.99984 14.6268 4.99984 14.1666Z" fill="#FF8B6A"/>
<path fill-rule="evenodd" clip-rule="evenodd" d="M5.83333 1.66675C5.3731 1.66675 5 2.03984 5 2.50008V5.83341C5 6.29365 5.3731 6.66675 5.83333 6.66675C6.29357 6.66675 6.66667 6.29365 6.66667 5.83341V2.50008C6.66667 2.03984 6.29357 1.66675 5.83333 1.66675ZM14.1667 1.66675C13.7064 1.66675 13.3333 2.03984 13.3333 2.50008V5.83341C13.3333 6.29365 13.7064 6.66675 14.1667 6.66675C14.6269 6.66675 15 6.29365 15 5.83341V2.50008C15 2.03984 14.6269 1.66675 14.1667 1.66675Z" fill="#FF8B6A"/>
</svg>
