<svg width="174" height="30" viewBox="0 0 174 30" fill="none" xmlns="http://www.w3.org/2000/svg">
<path d="M15 15L3.81 10.53L4.5 27H1.5L2.22 9.885L0 9L15 3L30 9L15 15ZM15 7.5C14.175 7.5 13.5 7.83 13.5 8.25C13.5 8.67 14.175 9 15 9C15.825 9 16.5 8.67 16.5 8.25C16.5 7.83 15.825 7.5 15 7.5ZM15 16.5L23.355 13.155C24.42 14.565 25.155 16.26 25.395 18.105C24.945 18.045 24.48 18 24 18C20.175 18 16.83 20.055 15 23.115C14.0711 21.5561 12.7534 20.2652 11.1757 19.3686C9.59807 18.4719 7.81463 18.0004 6 18C5.52 18 5.055 18.045 4.605 18.105C4.845 16.26 5.58 14.565 6.645 13.155L15 16.5Z" fill="black"/>
<path d="M42 22.8409V1.02273H56.1903V4.33594H45.9524V10.2592H55.4553V13.5724H45.9524V19.5277H56.2756V22.8409H42Z" fill="black"/>
<path d="M66.1246 23.1286C64.8391 23.1286 63.6886 22.7983 62.6729 22.1378C61.6573 21.4773 60.8548 20.5185 60.2653 19.2614C59.6758 18.0043 59.381 16.4773 59.381 14.6804C59.381 12.8622 59.6793 11.3281 60.2759 10.0781C60.8796 8.82102 61.6928 7.87287 62.7156 7.23366C63.7383 6.58736 64.8782 6.2642 66.1353 6.2642C67.0941 6.2642 67.8825 6.42756 68.5004 6.75426C69.1183 7.07386 69.6083 7.46094 69.9705 7.91548C70.3327 8.36293 70.6133 8.78551 70.8121 9.18324H70.9719V1.02273H74.8391V22.8409H71.0465V20.2628H70.8121C70.6133 20.6605 70.3256 21.0831 69.9492 21.5305C69.5728 21.9709 69.0756 22.3473 68.4577 22.6598C67.8398 22.9723 67.0621 23.1286 66.1246 23.1286ZM67.2006 19.9645C68.0174 19.9645 68.7134 19.7443 69.2887 19.304C69.864 18.8565 70.3008 18.2351 70.5991 17.4396C70.8974 16.6442 71.0465 15.7173 71.0465 14.6591C71.0465 13.6009 70.8974 12.6811 70.5991 11.8999C70.3079 11.1186 69.8746 10.5114 69.2994 10.0781C68.7312 9.64489 68.0316 9.42827 67.2006 9.42827C66.3413 9.42827 65.6239 9.65199 65.0487 10.0994C64.4734 10.5469 64.0401 11.1648 63.7489 11.9531C63.4577 12.7415 63.3121 13.6435 63.3121 14.6591C63.3121 15.6818 63.4577 16.5945 63.7489 17.397C64.0472 18.1925 64.484 18.821 65.0593 19.2827C65.6417 19.7372 66.3555 19.9645 67.2006 19.9645Z" fill="black"/>
<path d="M89.3784 15.9588V6.47727H93.2349V22.8409H89.4956V19.9325H89.3251C88.9558 20.8487 88.3485 21.598 87.5034 22.1804C86.6653 22.7628 85.6319 23.054 84.4032 23.054C83.3308 23.054 82.3826 22.8161 81.5588 22.3402C80.742 21.8572 80.1028 21.1577 79.6412 20.2415C79.1795 19.3182 78.9487 18.2031 78.9487 16.8963V6.47727H82.8052V16.2997C82.8052 17.3366 83.0893 18.1605 83.6575 18.7713C84.2257 19.3821 84.9714 19.6875 85.8947 19.6875C86.4629 19.6875 87.0133 19.549 87.546 19.272C88.0787 18.995 88.5154 18.5831 88.8564 18.0362C89.2044 17.4822 89.3784 16.7898 89.3784 15.9588Z" fill="black"/>
<path d="M104.338 23.1605C102.705 23.1605 101.302 22.8018 100.13 22.0845C98.9656 21.3672 98.0671 20.3764 97.435 19.1122C96.81 17.8409 96.4975 16.3778 96.4975 14.723C96.4975 13.0611 96.8171 11.5945 97.4563 10.3232C98.0955 9.04474 98.9975 8.05043 100.162 7.3402C101.334 6.62287 102.719 6.2642 104.317 6.2642C105.645 6.2642 106.821 6.50923 107.843 6.99929C108.873 7.48224 109.694 8.16761 110.304 9.0554C110.915 9.93608 111.263 10.9659 111.348 12.1449H107.662C107.513 11.3565 107.158 10.6996 106.597 10.174C106.043 9.64133 105.301 9.375 104.37 9.375C103.582 9.375 102.89 9.58807 102.293 10.0142C101.696 10.4332 101.231 11.0369 100.897 11.8253C100.571 12.6136 100.407 13.5582 100.407 14.6591C100.407 15.7741 100.571 16.733 100.897 17.5355C101.224 18.331 101.682 18.9453 102.272 19.3786C102.868 19.8047 103.568 20.0178 104.37 20.0178C104.939 20.0178 105.446 19.9112 105.894 19.6982C106.348 19.478 106.728 19.1619 107.034 18.75C107.339 18.3381 107.549 17.8374 107.662 17.2479H111.348C111.256 18.4055 110.915 19.4318 110.326 20.3267C109.736 21.2145 108.934 21.9105 107.918 22.4148C106.902 22.9119 105.709 23.1605 104.338 23.1605Z" fill="black"/>
<path d="M119.224 23.1712C118.187 23.1712 117.253 22.9865 116.422 22.6172C115.598 22.2408 114.945 21.6868 114.462 20.9553C113.986 20.2237 113.748 19.3217 113.748 18.2493C113.748 17.326 113.918 16.5625 114.259 15.9588C114.6 15.3551 115.066 14.8722 115.655 14.5099C116.244 14.1477 116.909 13.8743 117.647 13.6896C118.393 13.4979 119.164 13.3594 119.959 13.2741C120.918 13.1747 121.695 13.0859 122.292 13.0078C122.889 12.9226 123.322 12.7947 123.592 12.6243C123.869 12.4467 124.007 12.1733 124.007 11.804V11.7401C124.007 10.9375 123.769 10.3161 123.294 9.87571C122.818 9.43537 122.132 9.2152 121.237 9.2152C120.293 9.2152 119.544 9.42116 118.99 9.8331C118.443 10.245 118.073 10.7315 117.882 11.2926L114.281 10.7812C114.565 9.78693 115.034 8.95597 115.687 8.28835C116.34 7.61364 117.139 7.10937 118.084 6.77557C119.029 6.43466 120.073 6.2642 121.216 6.2642C122.004 6.2642 122.789 6.35653 123.57 6.54119C124.352 6.72585 125.066 7.03125 125.712 7.45739C126.358 7.87642 126.877 8.44815 127.267 9.17259C127.665 9.89702 127.864 10.8026 127.864 11.8892V22.8409H124.156V20.593H124.029C123.794 21.0476 123.464 21.4737 123.038 21.8714C122.619 22.2621 122.09 22.5781 121.45 22.8196C120.818 23.054 120.076 23.1712 119.224 23.1712ZM120.225 20.3374C120.999 20.3374 121.671 20.1847 122.239 19.8793C122.807 19.5668 123.244 19.1548 123.549 18.6435C123.862 18.1321 124.018 17.5746 124.018 16.9709V15.0426C123.897 15.142 123.691 15.2344 123.4 15.3196C123.116 15.4048 122.796 15.4794 122.441 15.5433C122.086 15.6072 121.735 15.6641 121.387 15.7138C121.039 15.7635 120.737 15.8061 120.481 15.8416C119.906 15.9197 119.391 16.0476 118.936 16.2251C118.482 16.4027 118.123 16.6513 117.86 16.9709C117.597 17.2834 117.466 17.6882 117.466 18.1854C117.466 18.8956 117.725 19.4318 118.244 19.794C118.762 20.1562 119.423 20.3374 120.225 20.3374Z" fill="black"/>
<path d="M139.913 6.47727V9.46023H130.506V6.47727H139.913ZM132.828 2.55682H136.685V17.919C136.685 18.4375 136.763 18.8352 136.919 19.1122C137.083 19.3821 137.296 19.5668 137.558 19.6662C137.821 19.7656 138.112 19.8153 138.432 19.8153C138.673 19.8153 138.894 19.7976 139.093 19.7621C139.298 19.7266 139.455 19.6946 139.561 19.6662L140.211 22.6811C140.005 22.7521 139.71 22.8303 139.327 22.9155C138.95 23.0007 138.489 23.0504 137.942 23.0646C136.976 23.093 136.106 22.9474 135.332 22.6278C134.558 22.3011 133.943 21.7969 133.489 21.1151C133.041 20.4332 132.821 19.581 132.828 18.5582V2.55682Z" fill="black"/>
<path d="M155.837 10.8026L152.321 11.1861C152.222 10.831 152.048 10.4972 151.799 10.1847C151.558 9.87216 151.231 9.62003 150.819 9.42827C150.407 9.23651 149.903 9.14062 149.306 9.14062C148.504 9.14062 147.829 9.31463 147.282 9.66264C146.743 10.0107 146.476 10.4616 146.483 11.0156C146.476 11.4915 146.65 11.8786 147.005 12.1768C147.368 12.4751 147.964 12.7202 148.795 12.9119L151.586 13.5085C153.135 13.8423 154.285 14.3714 155.038 15.0959C155.798 15.8203 156.181 16.7685 156.189 17.9403C156.181 18.9702 155.88 19.8793 155.283 20.6676C154.694 21.4489 153.873 22.0597 152.822 22.5C151.771 22.9403 150.564 23.1605 149.2 23.1605C147.197 23.1605 145.585 22.7415 144.363 21.9034C143.142 21.0582 142.414 19.8828 142.179 18.3771L145.94 18.0149C146.11 18.7536 146.473 19.3111 147.027 19.6875C147.581 20.0639 148.301 20.2521 149.189 20.2521C150.105 20.2521 150.841 20.0639 151.395 19.6875C151.956 19.3111 152.236 18.8459 152.236 18.2919C152.236 17.8232 152.055 17.4361 151.693 17.1307C151.338 16.8253 150.784 16.5909 150.031 16.4276L147.24 15.8416C145.67 15.5149 144.509 14.9645 143.756 14.1903C143.003 13.4091 142.63 12.4219 142.637 11.2287C142.63 10.2202 142.904 9.34659 143.458 8.60795C144.019 7.86222 144.797 7.28693 145.791 6.8821C146.792 6.47017 147.946 6.2642 149.253 6.2642C151.171 6.2642 152.68 6.67259 153.781 7.48935C154.889 8.30611 155.574 9.41051 155.837 10.8026Z" fill="black"/>
<path d="M161.766 28.9773C161.24 28.9773 160.754 28.9347 160.306 28.8494C159.866 28.7713 159.514 28.679 159.251 28.5724L160.146 25.5682C160.707 25.7315 161.208 25.8097 161.648 25.8026C162.089 25.7955 162.476 25.657 162.81 25.3871C163.151 25.1243 163.438 24.6839 163.673 24.0661L164.003 23.1818L158.069 6.47727H162.16L165.931 18.8352H166.102L169.884 6.47727H173.985L167.433 24.8224C167.128 25.6889 166.723 26.4311 166.219 27.049C165.714 27.674 165.097 28.1499 164.365 28.4766C163.641 28.8104 162.774 28.9773 161.766 28.9773Z" fill="black"/>
</svg>
