<svg width="90" height="30" viewBox="0 0 90 30" fill="none" xmlns="http://www.w3.org/2000/svg">
<path d="M0.367916 25.9999V3.2801H15.6318V7.15206H4.78387V13.008H13.8078V16.592H4.78387V25.9999H0.367916Z" fill="#265E55"/>
<path d="M17.0105 19.7279V9.23204H21.2984V18.7999C21.2984 20.0799 21.5331 21.0506 22.0024 21.7119C22.4718 22.3519 23.1651 22.6719 24.0824 22.6719C24.6371 22.6719 25.1811 22.5652 25.7144 22.3519C26.2691 22.1172 26.7704 21.7759 27.2184 21.3279C27.6877 20.8799 28.0824 20.3146 28.4024 19.6319V9.23204H32.6903V21.1999C32.6903 21.6479 32.765 21.9679 32.9143 22.1599C33.085 22.3519 33.3516 22.4692 33.7143 22.5119V25.9999C33.2876 26.0639 32.925 26.1065 32.6263 26.1279C32.349 26.1705 32.093 26.1919 31.8583 26.1919C31.0903 26.1919 30.461 26.0212 29.9703 25.6799C29.501 25.3172 29.2237 24.8265 29.1384 24.2079L29.0424 22.8639C28.2957 23.9945 27.3357 24.8585 26.1624 25.4559C24.9891 26.0319 23.6984 26.3199 22.2904 26.3199C20.5624 26.3199 19.2505 25.7652 18.3545 24.6559C17.4585 23.5252 17.0105 21.8826 17.0105 19.7279Z" fill="#265E55"/>
<path d="M46.4354 12.944C45.1341 12.944 43.9714 13.2 42.9475 13.712C41.9235 14.2026 41.1875 14.9173 40.7395 15.856V25.9999H36.4515V9.23204H40.3875V12.816C40.9848 11.664 41.7421 10.7574 42.6595 10.096C43.5768 9.4347 44.5474 9.07204 45.5714 9.00804C45.8061 9.00804 45.9874 9.00804 46.1154 9.00804C46.2434 9.00804 46.3501 9.01871 46.4354 9.04004V12.944Z" fill="#265E55"/>
<path d="M63.9102 25.9999H59.6223V16.592C59.6223 15.248 59.3876 14.2666 58.9183 13.648C58.449 13.0293 57.7983 12.72 56.9663 12.72C56.3903 12.72 55.8036 12.8693 55.2063 13.168C54.6303 13.4667 54.1077 13.8827 53.6383 14.416C53.169 14.928 52.8277 15.5253 52.6144 16.208V25.9999H48.3264V9.23204H52.1984V12.336C52.625 11.6107 53.169 11.0027 53.8303 10.512C54.4917 10 55.249 9.61603 56.1023 9.36003C56.977 9.0827 57.8943 8.94404 58.8543 8.94404C59.8996 8.94404 60.7529 9.13604 61.4143 9.52003C62.0969 9.8827 62.6089 10.384 62.9502 11.024C63.3129 11.6427 63.5582 12.3467 63.6862 13.136C63.8356 13.9253 63.9102 14.7253 63.9102 15.536V25.9999Z" fill="#265E55"/>
<path d="M67.1387 25.9999V9.23204H71.4266V25.9999H67.1387ZM67.1387 6.89606V2.64011H71.4266V6.89606H67.1387Z" fill="#265E55"/>
<path d="M84.8428 25.1359C84.4801 25.2852 84.0428 25.4559 83.5308 25.6479C83.0188 25.8399 82.4641 25.9892 81.8668 26.0959C81.2908 26.2239 80.7041 26.2879 80.1068 26.2879C79.3175 26.2879 78.5921 26.1492 77.9308 25.8719C77.2695 25.5945 76.7362 25.1572 76.3308 24.5599C75.9468 23.9412 75.7549 23.1412 75.7549 22.1599V12.528H73.5469V9.23204H75.7549V3.7921H80.0428V9.23204H83.5628V12.528H80.0428V20.7199C80.0641 21.2959 80.2241 21.7119 80.5228 21.9679C80.8215 22.2239 81.1948 22.3519 81.6428 22.3519C82.0908 22.3519 82.5281 22.2772 82.9548 22.1279C83.3814 21.9786 83.7228 21.8506 83.9788 21.7439L84.8428 25.1359Z" fill="#265E55"/>
<path d="M86.48 25.9999V21.3919H89.9999V25.9999H86.48Z" fill="#265E55"/>
</svg>
