<svg width="47" height="50" viewBox="0 0 47 50" fill="none" xmlns="http://www.w3.org/2000/svg">
<path d="M6.87 26.1465H4.64924C4.26712 26.1472 3.93899 26.4399 3.86639 26.8448L0.367497 46.2241C0.276711 46.7303 0.400647 47.2538 0.705314 47.651C1.00998 48.0482 1.46339 48.2775 1.9412 48.2758H19.172C19.172 49.2241 20.9614 49.9999 23.1662 49.9999C25.371 49.9999 27.1604 49.2241 27.1604 48.2758H44.3912C44.869 48.2775 45.3224 48.0482 45.6271 47.651C45.9318 47.2538 46.0557 46.7303 45.9649 46.2241L42.466 26.8448C42.3934 26.4399 42.0653 26.1472 41.6832 26.1465H6.87Z" fill="#E64C3C"/>
<path d="M23.1662 28.6548V44.8272C21.9975 44.2794 20.7795 43.8634 19.5315 43.5859C14.7878 42.4729 9.85498 42.7437 5.24039 44.3703C4.97515 44.4577 4.68693 44.3916 4.47753 44.1954C4.26813 43.9992 4.16701 43.7005 4.20989 43.4048L6.87001 26.1462L7.09368 24.6893C7.15093 24.3196 7.42143 24.0311 7.7647 23.9738C8.30791 23.8876 8.86709 23.8014 9.42628 23.7324C10.4024 25.7802 12.357 27.0677 14.4909 27.0686C14.6347 27.0686 14.7705 27.06 14.9063 27.0514C15.4382 27.0066 15.9621 26.8848 16.464 26.6893C16.4657 26.7076 16.4711 26.7253 16.48 26.741C17.0777 28.5477 18.6646 29.7526 20.4422 29.7497C21.4432 29.7532 22.4113 29.3642 23.1662 28.6548Z" fill="#F5EFCA"/>
<path d="M41.0918 44.3702C36.4773 42.7436 31.5444 42.4728 26.8007 43.5858C25.5528 43.8633 24.3347 44.2793 23.166 44.8271V28.6547C23.334 28.5065 23.4891 28.342 23.6293 28.1633C24.4275 28.5059 25.2787 28.6815 26.1377 28.6806H26.1856C26.2271 29.297 26.4448 29.8843 26.8087 30.3616C27.5841 31.1888 28.5533 31.7728 29.6126 32.0513C30.3813 32.3161 31.067 32.8054 31.5937 33.4651C32.0633 34.0928 32.8589 34.3136 33.5509 34.0082C34.16 33.7242 34.5552 33.0776 34.5574 32.3616C34.5582 32.1743 34.5313 31.988 34.4775 31.8099C34.3976 31.5426 34.3097 31.2754 34.2059 31.0168C34.0056 30.4826 33.7425 29.9785 33.423 29.5168C35.0074 28.5921 36.12 26.9447 36.4506 25.034C36.4746 24.9995 36.5065 24.965 36.5305 24.9306C36.8039 24.5835 37.0274 24.1941 37.1935 23.7754C37.6569 23.8357 38.1122 23.8961 38.5675 23.9737C38.9108 24.031 39.1813 24.3195 39.2385 24.6892L39.4622 26.1461L42.1223 43.4047C42.1652 43.7004 42.0641 43.9991 41.8547 44.1952C41.6453 44.3914 41.3571 44.4576 41.0918 44.3702Z" fill="#F9EAB0"/>
<path d="M27.1604 48.2753C27.1604 49.2236 25.3711 49.9995 23.1663 49.9995C20.9615 49.9995 19.1721 49.2236 19.1721 48.2753L19.5316 43.5857C20.7795 43.8633 21.9976 44.2793 23.1663 44.8271C24.335 44.2793 25.553 43.8633 26.801 43.5857L27.1604 48.2753Z" fill="#C03A2B"/>
<path d="M37.5454 21.9743C37.5447 22.5947 37.425 23.2081 37.1939 23.7761C37.0278 24.1948 36.8043 24.5842 36.5309 24.9312C36.5069 24.9657 36.475 25.0002 36.451 25.0347C36.1204 26.9454 35.0077 28.5928 33.4234 29.5174C33.7429 29.9792 34.006 30.4833 34.2063 31.0174C34.3101 31.2761 34.398 31.5433 34.4779 31.8106C34.5316 31.9887 34.5586 32.1749 34.5578 32.3623C34.5556 33.0783 34.1604 33.7249 33.5512 34.0088C32.8593 34.3143 32.0637 34.0935 31.5941 33.4657C31.0674 32.8061 30.3817 32.3168 29.613 32.0519C28.5537 31.7735 27.5845 31.1894 26.8091 30.3623C26.4452 29.885 26.2275 29.2977 26.186 28.6812H26.1381C25.2791 28.6821 24.4279 28.5066 23.6297 28.164C23.4895 28.3427 23.3344 28.5072 23.1664 28.6554C22.4115 29.3647 21.4434 29.7538 20.4424 29.7502C18.6648 29.7532 17.0779 28.5482 16.4802 26.7416C16.4713 26.7259 16.4658 26.7082 16.4642 26.6899C15.9623 26.8854 15.4384 27.0071 14.9065 27.0519C14.7707 27.0605 14.6349 27.0692 14.4911 27.0692C12.332 27.0675 10.3586 25.7514 9.39175 23.6681C8.42485 21.5849 8.62995 19.0912 9.92175 17.2243C9.82566 16.9428 9.77696 16.645 9.77796 16.345C9.77315 15.071 10.6024 13.9705 11.7591 13.7157C11.7634 13.711 11.769 13.708 11.775 13.7071C11.7671 13.6037 11.7591 13.5002 11.7591 13.3881C11.758 12.91 11.8506 12.437 12.0307 12.0002C12.5404 10.7281 13.7021 9.90472 14.9864 9.90537C15.4707 9.90289 15.9491 10.0209 16.3843 10.2502C17.2347 8.70504 18.777 7.75817 20.4424 7.75882C21.585 7.75435 22.6888 8.20566 23.5419 9.02606C24.0315 8.17365 24.9223 7.68887 25.8485 7.77066C26.7748 7.85244 27.5807 8.48701 27.9354 9.41399C28.1636 9.3865 28.3929 9.37211 28.6224 9.37089C31.7176 9.37642 34.2933 11.9388 34.5498 15.2674H34.5737C35.2319 15.2674 35.863 15.5502 36.3276 16.0532C36.7923 16.5563 37.0523 17.2382 37.0501 17.9485C37.0486 18.4129 36.9387 18.8695 36.7306 19.2761C37.2607 20.0594 37.5461 21.0044 37.5454 21.9743Z" fill="#FB7B76"/>
<path d="M23.1663 2.58621C22.7251 2.58621 22.3674 2.20025 22.3674 1.72414V0.862069C22.3674 0.385961 22.7251 0 23.1663 0C23.6074 0 23.9651 0.385961 23.9651 0.862069V1.72414C23.9651 2.20025 23.6074 2.58621 23.1663 2.58621Z" fill="#F0C419"/>
<path d="M36.0411 8.51967C35.7181 8.5196 35.4269 8.30956 35.3033 7.98748C35.1796 7.6654 35.248 7.29467 35.4763 7.04812L36.2752 6.18605C36.4757 5.96195 36.7728 5.87208 37.052 5.95097C37.3313 6.02986 37.5495 6.26525 37.6226 6.56665C37.6957 6.86805 37.6124 7.18858 37.4047 7.40502L36.6059 8.26709C36.4561 8.42877 36.253 8.51963 36.0411 8.51967Z" fill="#F0C419"/>
<path d="M10.2916 8.51967C10.0797 8.51963 9.87659 8.42877 9.72681 8.26709L8.92798 7.40502C8.72031 7.18858 8.63703 6.86805 8.71014 6.56665C8.78324 6.26525 9.00136 6.02986 9.28066 5.95097C9.55995 5.87208 9.85696 5.96195 10.0575 6.18605L10.8564 7.04812C11.0848 7.29467 11.1531 7.6654 11.0295 7.98748C10.9058 8.30956 10.6146 8.5196 10.2916 8.51967Z" fill="#F0C419"/>
<path d="M16.4411 4.89161C16.118 4.8917 15.8267 4.68177 15.703 4.35971L14.7859 1.97006C14.6693 1.68413 14.7052 1.3525 14.8797 1.10323C15.0542 0.853962 15.3399 0.726057 15.6267 0.768907C15.9134 0.811757 16.1562 1.01866 16.2614 1.30971L17.1792 3.69937C17.2607 3.91072 17.2609 4.14835 17.1798 4.35987C17.0988 4.57139 16.9431 4.73943 16.7471 4.82695C16.6499 4.86968 16.546 4.89164 16.4411 4.89161Z" fill="#F0C419"/>
<path d="M29.8916 4.89161C29.7867 4.89136 29.6827 4.86911 29.5857 4.82609C29.3899 4.73857 29.2343 4.57067 29.1533 4.35935C29.0722 4.14803 29.0723 3.91062 29.1535 3.69937L30.0713 1.30971C30.1765 1.01866 30.4193 0.811757 30.706 0.768907C30.9928 0.726057 31.2786 0.853962 31.453 1.10323C31.6275 1.3525 31.6634 1.68413 31.5468 1.97006L30.6297 4.35971C30.506 4.68177 30.2147 4.8917 29.8916 4.89161Z" fill="#F0C419"/>
<path d="M39.4024 15.1571C39.0204 15.1583 38.6911 14.8676 38.6165 14.4632C38.542 14.0589 38.7431 13.6542 39.0965 13.4976L41.3108 12.5079C41.5745 12.3901 41.8765 12.4331 42.1028 12.6207C42.3292 12.8082 42.4457 13.1119 42.4084 13.4172C42.3711 13.7226 42.1857 13.9832 41.9219 14.101L39.7084 15.0907C39.6114 15.1343 39.5075 15.1569 39.4024 15.1571Z" fill="#F0C419"/>
<path d="M6.92984 15.1571C6.8248 15.1569 6.72083 15.1343 6.62389 15.0907L4.41032 14.101C4.14661 13.9832 3.96118 13.7226 3.92386 13.4172C3.88655 13.1118 4.00302 12.8082 4.22942 12.6207C4.45581 12.4331 4.75772 12.3901 5.02143 12.5079L7.23579 13.4976C7.58915 13.6542 7.79029 14.0589 7.71575 14.4632C7.6412 14.8676 7.31184 15.1583 6.92984 15.1571Z" fill="#F0C419"/>
<path d="M36.5307 24.931C36.5067 24.9654 36.4747 24.9999 36.4508 25.0344C36.31 25.8646 36.0167 26.6561 35.588 27.362C35.1697 27.4901 34.7367 27.554 34.3019 27.5517C33.5102 27.5492 32.7303 27.3454 32.0252 26.9568C31.6915 26.7641 31.3781 26.5329 31.0906 26.2672C30.772 26.4003 30.4337 26.4704 30.0921 26.4741C29.0369 26.4799 28.0703 25.8381 27.5997 24.8189C27.4713 24.5432 27.4889 24.2146 27.6459 23.9567C27.8028 23.6989 28.0754 23.551 28.3608 23.5688C28.6462 23.5866 28.9012 23.7674 29.0296 24.043C29.1874 24.3699 29.4669 24.6086 29.7979 24.6991C30.129 24.7897 30.4801 24.7235 30.7631 24.5172C31.0826 24.2818 31.2739 23.8915 31.2743 23.4741C31.2755 23.2742 31.2345 23.0767 31.1545 22.8965C30.9937 22.4796 31.1581 21.9995 31.5315 21.7958C31.9049 21.592 32.3607 21.7337 32.5764 22.1206C32.7707 22.541 32.8719 23.0043 32.872 23.4741C32.8655 24.0764 32.6901 24.6625 32.3687 25.1551C32.4965 25.2499 32.6244 25.3448 32.7522 25.4223C33.2315 25.6886 33.7628 25.8275 34.3019 25.8275C35.1214 25.8324 35.9141 25.5135 36.5307 24.931Z" fill="#FF5364"/>
<path d="M26.7609 21.5462C27.7958 20.7768 28.5074 19.5977 28.7412 18.2652C28.8007 17.9601 28.703 17.6442 28.4856 17.4389C28.2682 17.2336 27.965 17.171 27.6927 17.2751C27.4205 17.3792 27.2215 17.6338 27.1723 17.941C27.0157 18.8302 26.5403 19.6167 25.8495 20.1298C24.5204 21.0958 22.7379 20.8766 21.6444 19.6126C21.3468 19.2603 20.8409 19.235 20.5145 19.5561C20.188 19.8773 20.1646 20.4232 20.4621 20.7755C21.1398 21.5829 22.0354 22.1402 23.0224 22.3686C22.5749 23.0474 21.85 23.4498 21.078 23.4479C20.6369 23.4479 20.2792 23.8339 20.2792 24.31C20.2792 24.7861 20.6369 25.1721 21.078 25.1721C22.7317 25.1792 24.2156 24.077 24.7998 22.4074C25.5046 22.281 26.1746 21.9868 26.7609 21.5462Z" fill="#FF5364"/>
<path d="M34.2064 31.0176C33.6192 31.3409 32.9883 31.5621 32.3371 31.6728C32.2949 31.6799 32.2521 31.6828 32.2093 31.6814C31.7886 31.6856 31.437 31.3369 31.4054 30.8841C31.3737 30.4314 31.673 30.0298 32.0895 29.9659C32.5527 29.8902 33.0025 29.7391 33.4236 29.5176C33.743 29.9793 34.0061 30.4834 34.2064 31.0176Z" fill="#FF5364"/>
<path d="M16.408 25.0001C16.3677 25.242 16.3463 25.4871 16.3441 25.7329C16.3425 26.0563 16.3828 26.3784 16.4639 26.6898C15.9621 26.8853 15.4381 27.007 14.9062 27.0518C14.8039 26.6295 14.7503 26.1952 14.7464 25.7587C13.3393 25.5931 12.2727 24.3121 12.27 22.7846C12.2674 22.3045 12.624 21.9119 13.0689 21.9053C13.2797 21.9039 13.4825 21.9931 13.6323 22.1532C13.7822 22.3133 13.8669 22.5312 13.8677 22.7587V22.7846C13.8796 23.4658 14.3794 24.0202 15.01 24.0518C15.1205 23.663 15.2733 23.2897 15.4654 22.9398C15.5726 22.7421 15.7493 22.5995 15.9553 22.5443C16.1614 22.4891 16.3793 22.5261 16.5598 22.6467C16.9354 22.8972 17.0561 23.4261 16.8314 23.8363C16.6285 24.1947 16.4852 24.5885 16.408 25.0001Z" fill="#FF5364"/>
<path d="M28.2865 30.0428C27.8065 30.2085 27.3108 30.3155 26.8086 30.3618C26.4447 29.8845 26.227 29.2972 26.1855 28.6807C26.2629 28.6823 26.3402 28.6795 26.4172 28.6721C26.8916 28.6396 27.3608 28.5471 27.8152 28.3963C28.0907 28.2943 28.3958 28.3622 28.6114 28.5735C28.827 28.7849 28.919 29.1061 28.8514 29.4118C28.7837 29.7176 28.5673 29.9593 28.2865 30.0428Z" fill="#FF5364"/>
<path d="M21.4088 14.655C21.4088 14.1789 21.0511 13.793 20.6099 13.793C18.5814 13.7953 16.9375 15.5694 16.9353 17.7585C16.9353 18.2346 17.293 18.6206 17.7341 18.6206C18.1753 18.6206 18.533 18.2346 18.533 17.7585C18.533 17.164 18.7518 16.5939 19.1413 16.1736C19.5308 15.7533 20.0591 15.5171 20.6099 15.5171C21.0511 15.5171 21.4088 15.1311 21.4088 14.655Z" fill="#FF5364"/>
<path d="M10.9824 19.5028C10.8373 19.503 10.695 19.4601 10.571 19.3787C9.91229 18.9497 9.4139 18.285 9.16267 17.5002C9.04115 17.1272 8.97929 16.7345 8.97974 16.339C8.97973 14.3853 10.4446 12.7999 12.255 12.7942C13.2923 12.7899 14.269 13.3216 14.8823 14.2244C15.0526 14.4717 15.0876 14.7982 14.9743 15.081C14.8609 15.3638 14.6164 15.5598 14.3328 15.5952C14.0492 15.6307 13.7696 15.5002 13.5994 15.2528C13.2863 14.7918 12.7878 14.5201 12.2582 14.5218C11.502 14.5264 10.841 15.073 10.6403 15.8597C10.4395 16.6464 10.7481 17.4812 11.3954 17.9028C11.7032 18.1026 11.8497 18.4994 11.7533 18.8728C11.657 19.2462 11.3416 19.5044 10.9824 19.5037V19.5028Z" fill="#FF5364"/>
<path d="M28.1246 11.3029C27.6834 11.3029 27.3258 10.9169 27.3258 10.4408C27.3258 9.43933 26.5735 8.62746 25.6454 8.62746C24.7174 8.62746 23.9651 9.43933 23.9651 10.4408C23.9651 10.9169 23.6074 11.3029 23.1663 11.3029C22.7251 11.3029 22.3674 10.9169 22.3674 10.4408C22.3674 8.48711 23.835 6.90332 25.6454 6.90332C27.4558 6.90332 28.9235 8.48711 28.9235 10.4408C28.9235 10.6695 28.8393 10.8887 28.6895 11.0504C28.5397 11.2121 28.3365 11.3029 28.1246 11.3029Z" fill="#FF5364"/>
<path d="M35.6176 21.2429C35.2467 21.239 34.9271 20.96 34.846 20.5695C34.7648 20.1789 34.9435 19.7794 35.2773 19.6049C35.5957 19.4435 35.8599 19.1797 36.0338 18.8498C36.4402 18.1024 36.2988 17.149 35.6966 16.5758C35.0944 16.0026 34.2002 15.9704 33.5638 16.4989C33.2109 16.7846 32.7102 16.7074 32.4455 16.3265C32.1807 15.9456 32.2523 15.4053 32.6052 15.1196C33.1642 14.6629 33.8452 14.4137 34.5464 14.4093C36.0897 14.398 37.4321 15.548 37.7721 17.1726C38.112 18.7973 37.3577 20.4582 35.9595 21.1636C35.8525 21.2173 35.7357 21.2444 35.6176 21.2429Z" fill="#FF5364"/>
</svg>
