<svg width="23" height="23" viewBox="0 0 23 23" fill="none" xmlns="http://www.w3.org/2000/svg">
<g clip-path="url(#clip0_447_11795)">
<path d="M11.4999 11.5004L2.92099 8.07337L3.44998 20.7003H1.14999L1.70199 7.57887L0 6.90038L11.4999 2.3004L22.9999 6.90038L11.4999 11.5004ZM11.4999 5.75038C10.8674 5.75038 10.35 6.00338 10.35 6.32538C10.35 6.64738 10.8674 6.90038 11.4999 6.90038C12.1324 6.90038 12.6499 6.64738 12.6499 6.32538C12.6499 6.00338 12.1324 5.75038 11.4999 5.75038ZM11.4999 12.6503L17.9054 10.0859C18.7219 11.1669 19.2854 12.4663 19.4694 13.8808C19.1244 13.8348 18.7679 13.8003 18.3999 13.8003C15.4674 13.8003 12.9029 15.3758 11.4999 17.7218C10.7878 16.5267 9.77753 15.537 8.56801 14.8496C7.35849 14.1622 5.99119 13.8006 4.59998 13.8003C4.23198 13.8003 3.87548 13.8348 3.53048 13.8808C3.71448 12.4663 4.27798 11.1669 5.09448 10.0859L11.4999 12.6503Z" fill="black"/>
</g>
<defs>
<clipPath id="clip0_447_11795">
<rect width="22.5424" height="22.5424" fill="white" transform="scale(1.0203)"/>
</clipPath>
</defs>
</svg>
