<svg width="47" height="50" viewBox="0 0 47 50" fill="none" xmlns="http://www.w3.org/2000/svg">
<path d="M42.1284 49.9993H28.3995C26.3335 49.9993 24.6587 48.1919 24.6587 45.9624V31.1468C24.6587 28.9173 26.3335 27.1099 28.3995 27.1099H42.1283C44.1943 27.1099 45.8691 28.9173 45.8691 31.1468V45.9624C45.8692 48.1919 44.1944 49.9993 42.1284 49.9993Z" fill="#BDF4E3"/>
<path d="M40.911 46.4333H29.6159C28.7034 46.4333 27.9636 45.6349 27.9636 44.6501V32.4611C27.9636 31.4763 28.7034 30.678 29.6159 30.678H40.911C41.8235 30.678 42.5633 31.4763 42.5633 32.4611V44.6502C42.5633 45.6349 41.8235 46.4333 40.911 46.4333Z" fill="#FFDCB6"/>
<path d="M42.1283 27.1099H38.0807C39.668 27.1099 40.9547 28.4985 40.9547 30.2114V41.5944C40.9547 43.3074 39.668 44.696 38.0807 44.696H27.5327C25.9454 44.696 24.6587 43.3073 24.6587 41.5944V45.9624C24.6587 48.1919 26.3335 49.9993 28.3995 49.9993H42.1283C44.1943 49.9993 45.8691 48.1919 45.8691 45.9624V31.1468C45.8691 28.9172 44.1943 27.1099 42.1283 27.1099Z" fill="#B1B7E3"/>
<path d="M40.9547 30.6799V41.5951C40.9547 43.308 39.668 44.6966 38.0807 44.6966H27.9663C27.9896 45.6595 28.7185 46.4329 29.6164 46.4329H40.9115C41.824 46.4329 42.5638 45.6345 42.5638 44.6498V32.4607C42.5637 31.4917 41.8471 30.705 40.9547 30.6799Z" fill="#EFA5B6"/>
<path d="M39.4071 27.0879H25.6783C23.6123 27.0879 21.9375 25.2805 21.9375 23.051V8.2354C21.9375 6.00591 23.6123 4.19849 25.6783 4.19849H39.4072C41.4732 4.19849 43.148 6.00591 43.148 8.2354V23.0511C43.1479 25.2806 41.4732 27.0879 39.4071 27.0879Z" fill="#EF8BBD"/>
<path d="M38.1904 23.5203H26.8955C25.9829 23.5203 25.2432 22.7219 25.2432 21.7372V9.548C25.2432 8.56323 25.9829 7.76489 26.8955 7.76489H38.1904C39.103 7.76489 39.8427 8.56323 39.8427 9.548V21.7372C39.8427 22.7219 39.103 23.5203 38.1904 23.5203Z" fill="#FFDCB6"/>
<path d="M39.4072 4.19849H35.3596C36.9469 4.19849 38.2336 5.58716 38.2336 7.30005V18.6831C38.2336 20.3959 36.9468 21.7846 35.3596 21.7846H24.8116C23.2243 21.7846 21.9375 20.3959 21.9375 18.6831V23.051C21.9375 25.2805 23.6123 27.0879 25.6783 27.0879H39.4072C41.4732 27.0879 43.148 25.2805 43.148 23.051V8.2354C43.1479 6.00591 41.4732 4.19849 39.4072 4.19849Z" fill="#E068BD"/>
<path d="M38.2338 7.76782V18.683C38.2338 20.3959 36.9471 21.7845 35.3598 21.7845H25.2437C25.2669 22.7474 25.9975 23.5208 26.8954 23.5208H38.1904C39.1029 23.5208 39.8427 22.7224 39.8427 21.7376V9.54858C39.8427 8.57964 39.1261 7.79292 38.2338 7.76782Z" fill="#EFA5B6"/>
<path d="M17.9331 49.9993H4.20417C2.13822 49.9993 0.463379 48.1919 0.463379 45.9624V31.1468C0.463379 28.9173 2.13822 27.1099 4.20417 27.1099H17.9331C19.9991 27.1099 21.6739 28.9173 21.6739 31.1468V45.9624C21.6738 48.1919 19.9991 49.9993 17.9331 49.9993Z" fill="#CAB4EF"/>
<path d="M16.7159 46.4315H5.42086C4.50833 46.4315 3.76855 45.6332 3.76855 44.6484V32.4594C3.76855 31.4746 4.50833 30.6763 5.42086 30.6763H16.7159C17.6284 30.6763 18.3682 31.4746 18.3682 32.4594V44.6485C18.3682 45.6332 17.6284 46.4315 16.7159 46.4315Z" fill="#FFDCB6"/>
<path d="M17.934 27.1099H13.8863C15.4737 27.1099 16.7604 28.4985 16.7604 30.2114V41.5944C16.7604 43.3074 15.4737 44.696 13.8863 44.696H3.33841C1.75107 44.696 0.464355 43.3074 0.464355 41.5944V45.9625C0.464265 48.1919 2.13911 49.9993 4.20506 49.9993H17.934C20 49.9993 21.6748 48.192 21.6748 45.9624V31.1468C21.6747 28.9173 20 27.1099 17.934 27.1099Z" fill="#BE87EF"/>
<path d="M16.7594 30.6792V41.5942C16.7594 43.3072 15.4727 44.6958 13.8854 44.6958H3.771C3.79425 45.6587 4.52317 46.432 5.42113 46.432H16.7162C17.6287 46.432 18.3685 45.6337 18.3685 44.6489V32.46C18.3684 31.4909 17.6518 30.7042 16.7594 30.6792Z" fill="#EFA5B6"/>
<path d="M6.24819 38.8784C5.7484 38.8784 5.34326 38.4411 5.34326 37.9019V36.6948C5.34326 36.1556 5.7484 35.7183 6.24819 35.7183C6.74798 35.7183 7.15312 36.1556 7.15312 36.6948V37.9019C7.15312 38.4412 6.74798 38.8784 6.24819 38.8784Z" fill="white"/>
<path d="M6.24819 34.8154C5.7484 34.8154 5.34326 34.3781 5.34326 33.8389V33.396C5.34326 32.8567 5.7484 32.4194 6.24819 32.4194C6.74798 32.4194 7.15312 32.8567 7.15312 33.396V33.8389C7.15312 34.3782 6.74798 34.8154 6.24819 34.8154Z" fill="white"/>
<path d="M36.2157 44.6402C35.7347 44.6065 35.3711 44.1524 35.3711 43.6323V34.4211H34.2826C33.8007 34.4211 33.3798 34.0287 33.3486 33.5097C33.3144 32.941 33.7319 32.468 34.2516 32.468H36.36C36.8134 32.468 37.181 32.8647 37.181 33.3541V43.6658C37.1809 44.2266 36.7427 44.6771 36.2157 44.6402Z" fill="#D58A9C"/>
<path d="M32.103 21.8328C30.2867 21.8328 30.1534 21.7846 30.0313 21.7408C29.7299 21.6324 29.5045 21.3864 29.4131 21.066C29.2555 20.5132 29.4764 20.2011 30.0668 19.3669C30.5485 18.6863 31.4452 17.4194 32.9477 15.1026C33.3946 14.4136 33.6827 13.7966 33.8047 13.2675L33.837 12.9933C33.8101 12.115 33.1396 11.4093 32.3193 11.4093C31.5951 11.4093 30.9684 11.9646 30.8292 12.7294C30.7328 13.2587 30.2568 13.6035 29.7669 13.4996C29.2764 13.3957 28.957 12.8824 29.0533 12.3532C29.3588 10.6747 30.7323 9.4563 32.3193 9.4563C34.1546 9.4563 35.6477 11.0676 35.6477 13.0483V13.1104L35.5879 13.6163L35.5776 13.6643C35.4093 14.4478 35.0233 15.3085 34.4304 16.2226C33.3057 17.9569 32.5146 19.1127 31.9804 19.8775C32.8743 19.874 34.0413 19.8688 35.1329 19.8541C35.1368 19.854 35.1407 19.854 35.1446 19.854C35.639 19.854 36.043 20.2832 36.0492 20.8182C36.0554 21.3575 35.6554 21.8002 35.1557 21.807C33.8053 21.8251 32.8221 21.8328 32.103 21.8328Z" fill="#D58A9C"/>
<path d="M11.0688 39.5317C10.569 39.5317 10.1638 39.0944 10.1638 38.5551C10.1638 38.0159 10.569 37.5786 11.0688 37.5786C11.9062 37.5786 12.5874 36.8434 12.5874 35.9397C12.5874 35.0361 11.9062 34.3009 11.0688 34.3009C10.3446 34.3009 9.71789 34.8562 9.57872 35.621C9.48243 36.1502 9.00716 36.4956 8.51633 36.3912C8.02595 36.2873 7.70642 35.774 7.8028 35.2448C8.10821 33.5663 9.4818 32.3479 11.0688 32.3479C12.9041 32.3479 14.3973 33.9592 14.3973 35.9398C14.3974 37.9204 12.9041 39.5317 11.0688 39.5317Z" fill="#D58A9C"/>
<path d="M11.0689 44.7622C9.41759 44.7622 8.00037 43.4329 7.77251 41.67C7.75125 41.5057 7.74048 41.3375 7.74048 41.1702C7.74048 40.6309 8.14562 40.1936 8.64541 40.1936C9.1452 40.1936 9.55034 40.6309 9.55034 41.1702C9.55034 41.2473 9.55532 41.3246 9.565 41.3998C9.66888 42.2034 10.3155 42.8091 11.069 42.8091C11.9064 42.8091 12.5876 42.074 12.5876 41.1703C12.5876 40.2666 11.9064 39.5315 11.069 39.5315C10.5692 39.5315 10.1641 39.0942 10.1641 38.5549C10.1641 38.0157 10.5692 37.5784 11.069 37.5784C12.9044 37.5784 14.3975 39.1897 14.3975 41.1703C14.3975 43.1508 12.9043 44.7622 11.0689 44.7622Z" fill="#D58A9C"/>
<path d="M15.9728 0.253198L16.7605 2.64343C16.7943 2.74578 16.8611 2.82683 16.9453 2.86785L18.9132 3.82468C19.1912 3.95984 19.1912 4.43787 18.9132 4.57302L16.9453 5.52986C16.8611 5.57078 16.7943 5.65193 16.7605 5.75427L15.9728 8.1446C15.8615 8.4823 15.4679 8.4823 15.3566 8.1446L14.5689 5.75427C14.5351 5.65193 14.4684 5.57087 14.3841 5.52986L12.4163 4.57302C12.1383 4.43787 12.1383 3.95984 12.4163 3.82468L14.3841 2.86785C14.4684 2.82683 14.5351 2.74578 14.5689 2.64343L15.3567 0.253198C15.468 -0.0843994 15.8616 -0.0843994 15.9728 0.253198Z" fill="#F7C4DB"/>
<path d="M6.09407 21.0203C6.4579 20.0731 6.04125 18.9869 5.16347 18.5943C4.28569 18.2016 3.27917 18.6512 2.91535 19.5984C2.55153 20.5456 2.96817 21.6318 3.84595 22.0244C4.72373 22.4171 5.73025 21.9675 6.09407 21.0203Z" fill="#EF8BBD"/>
<path d="M8.16593 7.89173C8.23029 7.46326 7.9606 7.05961 7.56356 6.99015C7.16652 6.92069 6.79248 7.21173 6.72811 7.6402C6.66375 8.06867 6.93344 8.47232 7.33048 8.54178C7.72752 8.61124 8.10156 8.3202 8.16593 7.89173Z" fill="#EF8BBD"/>
<path d="M11.2972 14.8129L11.8815 16.5859C11.9065 16.6618 11.9561 16.7219 12.0185 16.7523L13.4783 17.4621C13.6845 17.5624 13.6845 17.917 13.4783 18.0173L12.0185 18.727C11.956 18.7574 11.9065 18.8176 11.8815 18.8934L11.2972 20.6665C11.2147 20.917 10.9227 20.917 10.8401 20.6665L10.2558 18.8934C10.2308 18.8176 10.1812 18.7574 10.1188 18.727L8.65907 18.0173C8.45284 17.917 8.45284 17.5624 8.65907 17.4621L10.1188 16.7523C10.1813 16.7219 10.2308 16.6618 10.2558 16.5859L10.8401 14.8129C10.9227 14.5624 11.2146 14.5624 11.2972 14.8129Z" fill="#F7C4DB"/>
</svg>
