<svg width="20" height="20" viewBox="0 0 20 20" fill="none" xmlns="http://www.w3.org/2000/svg">
<path fill-rule="evenodd" clip-rule="evenodd" d="M3.33337 3.33329C3.11236 3.33329 2.9004 3.42109 2.74412 3.57737C2.58784 3.73365 2.50004 3.94561 2.50004 4.16663V15.8333C2.50004 16.0543 2.58784 16.2663 2.74412 16.4225C2.9004 16.5788 3.11236 16.6666 3.33337 16.6666H16.6667C16.8877 16.6666 17.0997 16.5788 17.256 16.4225C17.4122 16.2663 17.5 16.0543 17.5 15.8333V6.66663C17.5 6.44561 17.4122 6.23365 17.256 6.07737C17.0997 5.92109 16.8877 5.83329 16.6667 5.83329H9.16671C8.88808 5.83329 8.62789 5.69404 8.47333 5.46221L7.05405 3.33329H3.33337ZM1.56561 2.39886C2.03445 1.93002 2.67033 1.66663 3.33337 1.66663H7.50004C7.77867 1.66663 8.03886 1.80588 8.19342 2.03771L9.61269 4.16663H16.6667C17.3297 4.16663 17.9656 4.43002 18.4345 4.89886C18.9033 5.3677 19.1667 6.00358 19.1667 6.66663V15.8333C19.1667 16.4963 18.9033 17.1322 18.4345 17.6011C17.9656 18.0699 17.3297 18.3333 16.6667 18.3333H3.33337C2.67033 18.3333 2.03445 18.0699 1.56561 17.6011C1.09677 17.1322 0.833374 16.4963 0.833374 15.8333V4.16663C0.833374 3.50358 1.09677 2.8677 1.56561 2.39886Z" fill="#828FA2"/>
</svg>
