<svg width="98" height="105" viewBox="0 0 98 105" fill="none" xmlns="http://www.w3.org/2000/svg">
<path d="M4.49023 104.622V42.5333L49.374 73.2038L97.2499 38.793V104.622H4.49023Z" fill="#FF8B6A"/>
<path d="M7.48256 24.0522L0.75 27.7925M0.75 27.7925C0.75 53.7927 0.75 68.3699 0.75 94.3701M0.75 27.7925L55.3585 66.6918M0.75 94.3701L29.1764 74.9204M0.75 94.3701H40.3973M97.25 94.3701C97.25 68.3699 97.25 53.7927 97.25 27.7925M97.25 94.3701L82.2888 83.8972M97.25 94.3701H72.564M97.25 27.7925L49.374 0.862305L33.6647 9.83905M97.25 27.7925C75.924 42.9836 63.9674 51.5007 42.6415 66.6918" stroke="#2D2D2D" stroke-width="1.5"/>
<path d="M14.2158 12.8389V33.7691C14.2158 35.426 15.559 36.7691 17.2158 36.7691H80.0375C81.6944 36.7691 83.0375 35.426 83.0375 33.7691V12.8389C83.0375 11.182 81.6944 9.83887 80.0375 9.83887H17.2158C15.559 9.83887 14.2158 11.182 14.2158 12.8389Z" fill="white"/>
<path d="M23.9395 32.8076H39.6488" stroke="#E04343" stroke-width="1.5"/>
<path d="M23.9395 38.793H61.3426" stroke="#2D2D2D" stroke-width="1.5"/>
<path d="M23.9395 47.7686H68.8232" stroke="#2D2D2D" stroke-width="1.5"/>
<path d="M23.9395 55.25H55.3581" stroke="#2D2D2D" stroke-width="1.5"/>
<path d="M35.9092 76.2275L47.8782 76.2275" stroke="#2D2D2D" stroke-width="1.5"/>
<path d="M14.2158 36.7691V12.8389C14.2158 11.182 15.559 9.83887 17.2158 9.83887H80.0375C81.6944 9.83887 83.0375 11.182 83.0375 12.8389V36.7691" stroke="#2D2D2D" stroke-width="1.5"/>
</svg>
