<svg width="96" height="134" viewBox="0 0 96 134" fill="none" xmlns="http://www.w3.org/2000/svg">
<path d="M75.3544 42.5303V28.3558C75.3544 13.1111 62.9961 0.752809 47.7514 0.752809C32.5067 0.752809 20.1484 13.1111 20.1484 28.3558V42.5303H75.3544Z" fill="#E04343"/>
<path d="M48.9326 17.8165H46.9251C35.2837 17.8165 25.8464 27.2537 25.8464 38.8951V53.9513H70.0112V38.8951C70.0112 27.2537 60.574 17.8165 48.9326 17.8165Z" fill="white"/>
<path d="M62.985 19.5147C69.3067 16.9094 83.4896 15.9503 91.355 26.8555C94.698 31.4905 95.1049 37.4866 95.1049 43.2013V53.9513" stroke="#36414F" stroke-width="1.5"/>
<path d="M87.0749 64.9925H6.77528C3.44916 64.9925 0.752809 67.6889 0.752809 71.015V84.2819V99.8618V127.225C0.752809 130.551 3.44916 133.247 6.77528 133.247H17.8812H64.0535H87.0749C90.401 133.247 93.0974 130.551 93.0974 127.225V71.015C93.0974 67.6889 90.401 64.9925 87.0749 64.9925Z" fill="#5AC49A"/>
<path d="M0.752809 84.0094V70.6351C0.752809 67.309 3.44916 64.6127 6.77528 64.6127H87.2376C90.5637 64.6127 93.2601 67.309 93.2601 70.6351V127.225C93.2601 130.551 90.5637 133.247 87.2376 133.247H64.1651M0.752809 99.6759V127.225C0.752809 130.551 3.44916 133.247 6.77528 133.247H17.9114" stroke="#2D2D2D" stroke-width="1.5"/>
<circle cx="48.6206" cy="98.8079" r="5.96424" fill="white" stroke="#2D2D2D" stroke-width="1.5"/>
<path d="M48.6199 104.563V114.154" stroke="#2D2D2D" stroke-width="1.5"/>
<path d="M75.3544 42.5303V28.3558C75.3544 13.1111 62.9961 0.752809 47.7514 0.752809V0.752809C32.5067 0.752809 20.1484 13.1111 20.1484 28.3558V42.5303" stroke="#36414F" stroke-width="1.5"/>
<path d="M25.6288 53.5713V41.6348" stroke="#36414F" stroke-width="1.5"/>
</svg>
