<svg width="211" height="60" viewBox="0 0 211 60" fill="none" xmlns="http://www.w3.org/2000/svg">
<circle cx="105.385" cy="30" r="30" fill="#D13329"/>
<g clip-path="url(#clip0_1049_1808)">
<path d="M113.025 33.2739C112.155 32.4042 111.172 31.7041 110.132 31.1738C109.968 31.0925 109.829 30.9665 109.733 30.8102C109.637 30.6538 109.587 30.4735 109.588 30.2899L109.871 27.7868C106.915 26.7402 103.238 26.6695 100.169 27.7443L100.374 30.297C100.367 30.6859 100.148 31.0182 99.8229 31.1879C98.7763 31.7112 97.8005 32.4183 96.9308 33.288C96.549 33.6699 95.9126 33.6699 95.5307 33.288L93.0841 30.8415C92.7023 30.4596 92.4124 29.8303 92.9427 29.3C99.5117 22.7309 110.437 22.738 116.998 29.3C117.501 29.802 117.253 30.4455 116.864 30.8344L114.425 33.2739C114.043 33.6557 113.406 33.6557 113.025 33.2739Z" fill="white"/>
</g>
<defs>
<clipPath id="clip0_1049_1808">
<rect width="24" height="24" fill="white" transform="matrix(0.707107 0.707107 0.707107 -0.707107 88 30)"/>
</clipPath>
</defs>
</svg>
