<svg width="20" height="20" viewBox="0 0 20 20" fill="none" xmlns="http://www.w3.org/2000/svg">
<path fill-rule="evenodd" clip-rule="evenodd" d="M4.33317 1.16634C4.49055 0.956503 4.73754 0.833008 4.99984 0.833008H14.9998C15.2621 0.833008 15.5091 0.956503 15.6665 1.16634L18.1665 4.49967C18.2747 4.64392 18.3332 4.81937 18.3332 4.99967V16.6663C18.3332 17.3294 18.0698 17.9653 17.6009 18.4341C17.1321 18.9029 16.4962 19.1663 15.8332 19.1663H4.1665C3.50346 19.1663 2.86758 18.9029 2.39874 18.4341C1.9299 17.9653 1.6665 17.3294 1.6665 16.6663V4.99967C1.6665 4.81937 1.72499 4.64392 1.83317 4.49967L4.33317 1.16634ZM5.4165 2.49967L3.33317 5.27745V5.83301V16.6663C3.33317 16.8874 3.42097 17.0993 3.57725 17.2556C3.73353 17.4119 3.94549 17.4997 4.1665 17.4997H15.8332C16.0542 17.4997 16.2661 17.4119 16.4224 17.2556C16.5787 17.0993 16.6665 16.8874 16.6665 16.6663V5.83301V5.27745L14.5832 2.49967H5.4165Z" fill="#FF8B6A"/>
<path fill-rule="evenodd" clip-rule="evenodd" d="M1.6665 4.99967C1.6665 4.53944 2.0396 4.16634 2.49984 4.16634H17.4998C17.9601 4.16634 18.3332 4.53944 18.3332 4.99967C18.3332 5.45991 17.9601 5.83301 17.4998 5.83301H16.6665H3.33317H2.49984C2.0396 5.83301 1.6665 5.45991 1.6665 4.99967Z" fill="#FF8B6A"/>
<path fill-rule="evenodd" clip-rule="evenodd" d="M3.33317 5.83301V16.6663C3.33317 16.8874 3.42097 17.0993 3.57725 17.2556C3.73353 17.4119 3.94549 17.4997 4.1665 17.4997H15.8332C16.0542 17.4997 16.2661 17.4119 16.4224 17.2556C16.5787 17.0993 16.6665 16.8874 16.6665 16.6663V5.83301H3.33317ZM6.6665 7.49967C7.12674 7.49967 7.49984 7.87277 7.49984 8.33301C7.49984 8.99605 7.76323 9.63193 8.23207 10.1008C8.70091 10.5696 9.3368 10.833 9.99984 10.833C10.6629 10.833 11.2988 10.5696 11.7676 10.1008C12.2364 9.63193 12.4998 8.99605 12.4998 8.33301C12.4998 7.87277 12.8729 7.49967 13.3332 7.49967C13.7934 7.49967 14.1665 7.87277 14.1665 8.33301C14.1665 9.43808 13.7275 10.4979 12.9461 11.2793C12.1647 12.0607 11.1049 12.4997 9.99984 12.4997C8.89477 12.4997 7.83496 12.0607 7.05356 11.2793C6.27216 10.4979 5.83317 9.43808 5.83317 8.33301C5.83317 7.87277 6.20627 7.49967 6.6665 7.49967Z" fill="#FF8B6A"/>
</svg>
