<svg width="100" height="22" viewBox="0 0 100 22" fill="none" xmlns="http://www.w3.org/2000/svg">
<path d="M0 16.5308V0H10.7515V2.51029H2.99459V6.99814H10.1945V9.50843H2.99459V14.0205H10.816V16.5308H0Z" fill="black"/>
<path d="M18.2783 16.7487C17.3043 16.7487 16.4326 16.4985 15.6631 15.9981C14.8936 15.4976 14.2855 14.7712 13.8389 13.8187C13.3922 12.8662 13.1689 11.7093 13.1689 10.3479C13.1689 8.97032 13.3949 7.808 13.847 6.86092C14.3043 5.90846 14.9205 5.19009 15.6954 4.70578C16.4702 4.2161 17.3339 3.97126 18.2864 3.97126C19.0128 3.97126 19.6101 4.09503 20.0783 4.34256C20.5464 4.58471 20.9177 4.87798 21.1922 5.22237C21.4666 5.56138 21.6792 5.88156 21.8298 6.1829H21.9509V0H24.8809V16.5308H22.0074V14.5774H21.8298C21.6792 14.8788 21.4612 15.199 21.176 15.538C20.8908 15.8716 20.5142 16.1568 20.046 16.3936C19.5778 16.6303 18.9886 16.7487 18.2783 16.7487ZM19.0935 14.3514C19.7124 14.3514 20.2397 14.1846 20.6756 13.851C21.1115 13.512 21.4424 13.0411 21.6684 12.4384C21.8944 11.8358 22.0074 11.1335 22.0074 10.3317C22.0074 9.52995 21.8944 8.8331 21.6684 8.24118C21.4478 7.64925 21.1195 7.18917 20.6837 6.86092C20.2532 6.53267 19.7231 6.36855 19.0935 6.36855C18.4424 6.36855 17.8989 6.53805 17.4631 6.87706C17.0272 7.21607 16.6989 7.68423 16.4783 8.28154C16.2577 8.87884 16.1474 9.56224 16.1474 10.3317C16.1474 11.1066 16.2577 11.7981 16.4783 12.4062C16.7043 13.0088 17.0353 13.4851 17.4711 13.8348C17.9124 14.1792 18.4532 14.3514 19.0935 14.3514Z" fill="black"/>
<path d="M35.8967 11.3165V4.1327H38.8187V16.5308H35.9855V14.3272H35.8564C35.5766 15.0214 35.1165 15.5891 34.4761 16.0303C33.8412 16.4716 33.0582 16.6922 32.1273 16.6922C31.3147 16.6922 30.5963 16.5119 29.9721 16.1514C29.3533 15.7855 28.869 15.2555 28.5192 14.5613C28.1695 13.8617 27.9946 13.0169 27.9946 12.0268V4.1327H30.9165V11.5748C30.9165 12.3604 31.1318 12.9846 31.5623 13.4474C31.9927 13.9102 32.5578 14.1416 33.2573 14.1416C33.6878 14.1416 34.1048 14.0366 34.5084 13.8268C34.912 13.6169 35.2429 13.3048 35.5012 12.8905C35.7649 12.4707 35.8967 11.9461 35.8967 11.3165Z" fill="black"/>
<path d="M47.2314 16.7729C45.9937 16.7729 44.931 16.5012 44.0431 15.9577C43.1606 15.4142 42.4799 14.6635 42.0009 13.7057C41.5274 12.7425 41.2906 11.634 41.2906 10.3802C41.2906 9.12099 41.5328 8.00979 42.0171 7.04657C42.5014 6.07797 43.1848 5.32461 44.0673 4.7865C44.9552 4.24301 46.0045 3.97126 47.2152 3.97126C48.2215 3.97126 49.1121 4.15691 49.887 4.52821C50.6672 4.89412 51.2887 5.4134 51.7515 6.08604C52.2143 6.7533 52.478 7.53356 52.5425 8.42683H49.7497C49.6367 7.82952 49.3677 7.33177 48.9426 6.93357C48.5228 6.52998 47.9605 6.32819 47.2556 6.32819C46.6583 6.32819 46.1336 6.48962 45.6816 6.81249C45.2296 7.12998 44.8771 7.58737 44.6242 8.18467C44.3767 8.78198 44.2529 9.49767 44.2529 10.3317C44.2529 11.1766 44.3767 11.903 44.6242 12.5111C44.8718 13.1138 45.2188 13.5792 45.6655 13.9075C46.1175 14.2304 46.6475 14.3918 47.2556 14.3918C47.6861 14.3918 48.0708 14.3111 48.4098 14.1496C48.7542 13.9828 49.0421 13.7434 49.2735 13.4313C49.5049 13.1192 49.6636 12.7398 49.7497 12.2932H52.5425C52.4726 13.1703 52.2143 13.9478 51.7677 14.6259C51.321 15.2985 50.713 15.8259 49.9435 16.2079C49.174 16.5846 48.2699 16.7729 47.2314 16.7729Z" fill="black"/>
<path d="M58.5095 16.781C57.7239 16.781 57.0163 16.6411 56.3867 16.3613C55.7625 16.0761 55.2674 15.6564 54.9015 15.1021C54.541 14.5478 54.3607 13.8644 54.3607 13.0519C54.3607 12.3523 54.4898 11.7739 54.7481 11.3165C55.0064 10.8591 55.3589 10.4932 55.8055 10.2187C56.2522 9.9443 56.7553 9.73713 57.3149 9.59722C57.8799 9.45193 58.4638 9.347 59.0665 9.28242C59.7929 9.20709 60.3822 9.13982 60.8342 9.08063C61.2862 9.01606 61.6144 8.9192 61.8189 8.79005C62.0288 8.65552 62.1337 8.44835 62.1337 8.16853V8.1201C62.1337 7.51204 61.9534 7.04119 61.5929 6.70756C61.2324 6.37393 60.7131 6.20712 60.0351 6.20712C59.3194 6.20712 58.7517 6.36317 58.332 6.67527C57.9176 6.98738 57.6378 7.35598 57.4925 7.78109L54.7643 7.39365C54.9795 6.6403 55.3347 6.0107 55.8297 5.50488C56.3248 4.99367 56.9302 4.61161 57.6459 4.3587C58.3615 4.10041 59.1526 3.97126 60.0189 3.97126C60.6162 3.97126 61.2108 4.04122 61.8028 4.18113C62.3947 4.32103 62.9355 4.55242 63.4252 4.87529C63.9149 5.19278 64.3077 5.62595 64.6036 6.17483C64.905 6.7237 65.0557 7.40979 65.0557 8.2331V16.5308H62.2467V14.8277H62.1499C61.9723 15.1721 61.7221 15.4949 61.3992 15.7963C61.0817 16.0922 60.6808 16.3317 60.1965 16.5146C59.7176 16.6922 59.1553 16.781 58.5095 16.781ZM59.2683 14.6339C59.8548 14.6339 60.3633 14.5182 60.7938 14.2869C61.2243 14.0501 61.5552 13.738 61.7866 13.3505C62.0234 12.9631 62.1418 12.5407 62.1418 12.0833V10.6223C62.0503 10.6977 61.8943 10.7676 61.6736 10.8322C61.4584 10.8968 61.2162 10.9533 60.9472 11.0017C60.6781 11.0501 60.4118 11.0932 60.1481 11.1308C59.8844 11.1685 59.6557 11.2008 59.462 11.2277C59.0261 11.2869 58.636 11.3837 58.2916 11.5183C57.9472 11.6528 57.6755 11.8411 57.4764 12.0833C57.2773 12.3201 57.1777 12.6268 57.1777 13.0035C57.1777 13.5416 57.3741 13.9478 57.7669 14.2223C58.1598 14.4967 58.6602 14.6339 59.2683 14.6339Z" fill="black"/>
<path d="M74.1847 4.1327V6.39276H67.0574V4.1327H74.1847ZM68.8171 1.16232H71.739V12.8017C71.739 13.1945 71.7982 13.4958 71.9166 13.7057C72.0403 13.9102 72.2018 14.0501 72.4009 14.1254C72.6 14.2008 72.8206 14.2384 73.0628 14.2384C73.2457 14.2384 73.4125 14.225 73.5632 14.1981C73.7192 14.1712 73.8376 14.147 73.9183 14.1254L74.4107 16.4097C74.2547 16.4635 74.0314 16.5227 73.7408 16.5873C73.4556 16.6519 73.1058 16.6895 72.6915 16.7003C71.9596 16.7218 71.3004 16.6115 70.7139 16.3693C70.1274 16.1218 69.6619 15.7398 69.3175 15.2232C68.9785 14.7066 68.8117 14.0609 68.8171 13.286V1.16232Z" fill="black"/>
<path d="M86.2498 7.40979L83.5862 7.70037C83.5109 7.43132 83.379 7.17841 83.1907 6.94164C83.0077 6.70487 82.7602 6.51384 82.4481 6.36855C82.136 6.22326 81.7539 6.15061 81.3019 6.15061C80.6938 6.15061 80.1826 6.28245 79.7683 6.54613C79.3593 6.8098 79.1575 7.1515 79.1629 7.57123C79.1575 7.93176 79.2894 8.22503 79.5584 8.45104C79.8329 8.67705 80.2849 8.86269 80.9145 9.00799L83.0293 9.46C84.2023 9.71291 85.0741 10.1138 85.6445 10.6627C86.2203 11.2116 86.5108 11.9299 86.5162 12.8178C86.5108 13.5981 86.2821 14.2869 85.8301 14.8842C85.3835 15.4761 84.762 15.9389 83.9656 16.2725C83.1692 16.6061 82.2544 16.7729 81.2212 16.7729C79.7037 16.7729 78.4822 16.4554 77.5567 15.8205C76.6311 15.1801 76.0795 14.2895 75.902 13.1488L78.7513 12.8743C78.8804 13.434 79.1548 13.8564 79.5746 14.1416C79.9943 14.4268 80.5405 14.5694 81.2131 14.5694C81.9073 14.5694 82.4642 14.4268 82.884 14.1416C83.3091 13.8564 83.5216 13.5039 83.5216 13.0842C83.5216 12.729 83.3844 12.4358 83.11 12.2044C82.8409 11.973 82.4212 11.7954 81.8508 11.6716L79.736 11.2277C78.5468 10.9802 77.667 10.5631 77.0966 9.97659C76.5262 9.38466 76.2437 8.63669 76.249 7.73266C76.2437 6.96854 76.4508 6.30667 76.8706 5.74703C77.2957 5.18201 77.8849 4.74614 78.6383 4.43942C79.397 4.12731 80.2714 3.97126 81.2616 3.97126C82.7145 3.97126 83.8579 4.28068 84.692 4.8995C85.5315 5.51833 86.0507 6.3551 86.2498 7.40979Z" fill="black"/>
<path d="M90.7417 21.1801C90.3435 21.1801 89.9749 21.1478 89.6359 21.0832C89.3023 21.024 89.0359 20.9541 88.8368 20.8733L89.5148 18.5971C89.9399 18.7209 90.3193 18.7801 90.6529 18.7747C90.9866 18.7693 91.2798 18.6644 91.5328 18.4599C91.791 18.2608 92.009 17.9272 92.1866 17.459L92.4368 16.7891L87.9409 4.1327H91.0404L93.8978 13.4958H94.0269L96.8923 4.1327H99.9999L95.0359 18.0321C94.8045 18.6886 94.4978 19.2509 94.1157 19.7191C93.7336 20.1926 93.2655 20.5532 92.7112 20.8007C92.1623 21.0536 91.5059 21.1801 90.7417 21.1801Z" fill="black"/>
</svg>
