<svg width="20" height="20" viewBox="0 0 20 20" fill="none" xmlns="http://www.w3.org/2000/svg">
<path fill-rule="evenodd" clip-rule="evenodd" d="M4.95926 9.99998C4.70179 9.99998 4.50594 10.2312 4.54826 10.4851L5.3464 15.274C5.48034 16.0776 6.17566 16.6666 6.99039 16.6666H13.0095C13.8243 16.6666 14.5196 16.0776 14.6535 15.274L15.4517 10.4851C15.494 10.2312 15.2982 9.99998 15.0407 9.99998H4.95926ZM3.48369 8.33331C2.96874 8.33331 2.57703 8.7957 2.66169 9.30365L3.70241 15.548C3.9703 17.1553 5.36093 18.3333 6.99039 18.3333H13.0095C14.639 18.3333 16.0296 17.1553 16.2975 15.548L17.3382 9.30365C17.4229 8.7957 17.0312 8.33331 16.5163 8.33331H3.48369Z" fill="#828FA2"/>
<path d="M8.33333 11.6667C7.8731 11.6667 7.5 12.0398 7.5 12.5V14.1667C7.5 14.6269 7.8731 15 8.33333 15C8.79357 15 9.16667 14.6269 9.16667 14.1667V12.5C9.16667 12.0398 8.79357 11.6667 8.33333 11.6667Z" fill="#828FA2"/>
<path d="M11.6667 11.6667C11.2064 11.6667 10.8333 12.0398 10.8333 12.5V14.1667C10.8333 14.6269 11.2064 15 11.6667 15C12.1269 15 12.5 14.6269 12.5 14.1667V12.5C12.5 12.0398 12.1269 11.6667 11.6667 11.6667Z" fill="#828FA2"/>
<path d="M8.92255 3.08928C9.24798 2.76384 9.24798 2.2362 8.92255 1.91076C8.59711 1.58533 8.06947 1.58533 7.74404 1.91076L4.4107 5.2441C4.08527 5.56954 4.08527 6.09717 4.4107 6.42261C4.73614 6.74805 5.26378 6.74805 5.58921 6.42261L8.92255 3.08928Z" fill="#828FA2"/>
<path d="M11.0774 3.08928C10.7519 2.76384 10.7519 2.2362 11.0774 1.91076C11.4028 1.58533 11.9304 1.58533 12.2559 1.91076L15.5892 5.2441C15.9147 5.56954 15.9147 6.09717 15.5892 6.42261C15.2638 6.74805 14.7361 6.74805 14.4107 6.42261L11.0774 3.08928Z" fill="#828FA2"/>
<path fill-rule="evenodd" clip-rule="evenodd" d="M15.8333 6.66667H4.16663C3.70639 6.66667 3.33329 7.03976 3.33329 7.5C3.33329 7.96024 3.70639 8.33333 4.16663 8.33333H15.8333C16.2935 8.33333 16.6666 7.96024 16.6666 7.5C16.6666 7.03976 16.2935 6.66667 15.8333 6.66667ZM4.16663 5C2.78591 5 1.66663 6.11929 1.66663 7.5C1.66663 8.88071 2.78591 10 4.16663 10H15.8333C17.214 10 18.3333 8.88071 18.3333 7.5C18.3333 6.11929 17.214 5 15.8333 5H4.16663Z" fill="#828FA2"/>
</svg>
