<svg width="40" height="100" viewBox="0 0 40 100" fill="none" xmlns="http://www.w3.org/2000/svg">
<g filter="url(#filter0_d_0_10)">
<circle cx="20" cy="20" r="20" fill="#000201"/>
</g>
<path d="M19.9999 13.8291C19.0919 12.9942 17.9034 12.5308 16.6699 12.5308C16.017 12.5314 15.3707 12.6612 14.7682 12.9127C14.1657 13.1641 13.6188 13.5322 13.1591 13.9958C11.1982 15.9649 11.1991 19.0449 13.1607 21.0058L19.2707 27.1158C19.4124 27.3649 19.6857 27.5258 19.9999 27.5258C20.1289 27.5245 20.2558 27.493 20.3704 27.4338C20.4851 27.3746 20.5842 27.2894 20.6599 27.1849L26.8391 21.0058C28.8007 19.0441 28.8007 15.9649 26.8374 13.9924C26.3779 13.5297 25.8315 13.1623 25.2295 12.9115C24.6276 12.6607 23.982 12.5313 23.3299 12.5308C22.0964 12.531 20.908 12.9943 19.9999 13.8291ZM25.6591 15.1708C26.9616 16.4799 26.9624 18.5249 25.6607 19.8274L19.9999 25.4883L14.3391 19.8274C13.0374 18.5249 13.0382 16.4799 14.3374 15.1741C14.9707 14.5441 15.7991 14.1974 16.6699 14.1974C17.5407 14.1974 18.3657 14.5441 18.9941 15.1724L19.4107 15.5891C19.4881 15.6665 19.5799 15.728 19.681 15.7699C19.7821 15.8118 19.8905 15.8334 19.9999 15.8334C20.1093 15.8334 20.2177 15.8118 20.3188 15.7699C20.4199 15.728 20.5117 15.6665 20.5891 15.5891L21.0057 15.1724C22.2657 13.9149 24.4007 13.9183 25.6591 15.1708Z" fill="white"/>
<g filter="url(#filter1_d_0_10)">
<circle cx="20" cy="80" r="20" fill="#FEE3CB"/>
</g>
<path d="M28.1848 76.1925C28.1082 76.0817 28.0058 75.9912 27.8865 75.9286C27.7672 75.8661 27.6345 75.8334 27.4998 75.8333H16.1107L15.149 73.525C15.0229 73.221 14.8094 72.9613 14.5355 72.7788C14.2617 72.5964 13.9398 72.4993 13.6107 72.5H11.6665V74.1667H13.6107L17.564 83.6542C17.6273 83.806 17.7342 83.9356 17.871 84.0268C18.0079 84.118 18.1687 84.1667 18.3332 84.1667H24.9998C25.3473 84.1667 25.6582 83.9508 25.7807 83.6267L28.2807 76.96C28.3279 76.8339 28.3439 76.6981 28.3272 76.5645C28.3105 76.4308 28.2617 76.3032 28.1848 76.1925ZM24.4223 82.5H18.889L16.8057 77.5H26.2973L24.4223 82.5Z" fill="#000201"/>
<path d="M18.75 87.5C19.4404 87.5 20 86.9404 20 86.25C20 85.5596 19.4404 85 18.75 85C18.0596 85 17.5 85.5596 17.5 86.25C17.5 86.9404 18.0596 87.5 18.75 87.5Z" fill="#000201"/>
<path d="M24.5835 87.5C25.2739 87.5 25.8335 86.9404 25.8335 86.25C25.8335 85.5596 25.2739 85 24.5835 85C23.8931 85 23.3335 85.5596 23.3335 86.25C23.3335 86.9404 23.8931 87.5 24.5835 87.5Z" fill="#000201"/>
<defs>
<filter id="filter0_d_0_10" x="-50" y="-40" width="160" height="160" filterUnits="userSpaceOnUse" color-interpolation-filters="sRGB">
<feFlood flood-opacity="0" result="BackgroundImageFix"/>
<feColorMatrix in="SourceAlpha" type="matrix" values="0 0 0 0 0 0 0 0 0 0 0 0 0 0 0 0 0 0 127 0" result="hardAlpha"/>
<feOffset dx="10" dy="20"/>
<feGaussianBlur stdDeviation="30"/>
<feComposite in2="hardAlpha" operator="out"/>
<feColorMatrix type="matrix" values="0 0 0 0 0 0 0 0 0 0 0 0 0 0 0 0 0 0 0.25 0"/>
<feBlend mode="normal" in2="BackgroundImageFix" result="effect1_dropShadow_0_10"/>
<feBlend mode="normal" in="SourceGraphic" in2="effect1_dropShadow_0_10" result="shape"/>
</filter>
<filter id="filter1_d_0_10" x="-50" y="20" width="160" height="160" filterUnits="userSpaceOnUse" color-interpolation-filters="sRGB">
<feFlood flood-opacity="0" result="BackgroundImageFix"/>
<feColorMatrix in="SourceAlpha" type="matrix" values="0 0 0 0 0 0 0 0 0 0 0 0 0 0 0 0 0 0 127 0" result="hardAlpha"/>
<feOffset dx="10" dy="20"/>
<feGaussianBlur stdDeviation="30"/>
<feComposite in2="hardAlpha" operator="out"/>
<feColorMatrix type="matrix" values="0 0 0 0 0 0 0 0 0 0 0 0 0 0 0 0 0 0 0.25 0"/>
<feBlend mode="normal" in2="BackgroundImageFix" result="effect1_dropShadow_0_10"/>
<feBlend mode="normal" in="SourceGraphic" in2="effect1_dropShadow_0_10" result="shape"/>
</filter>
</defs>
</svg>
