<svg width="211" height="60" viewBox="0 0 211 60" fill="none" xmlns="http://www.w3.org/2000/svg">
<circle cx="105.385" cy="30" r="30" fill="#D97356"/>
<path d="M110 31.41L105.71 27.17C105.617 27.0763 105.506 27.0019 105.385 26.9511C105.263 26.9003 105.132 26.8742 105 26.8742C104.868 26.8742 104.737 26.9003 104.615 26.9511C104.494 27.0019 104.383 27.0763 104.29 27.17L100.05 31.41C99.9562 31.503 99.8818 31.6136 99.8311 31.7354C99.7803 31.8573 99.7542 31.988 99.7542 32.12C99.7542 32.252 99.7803 32.3827 99.8311 32.5046C99.8818 32.6264 99.9562 32.737 100.05 32.83C100.237 33.0163 100.491 33.1208 100.755 33.1208C101.019 33.1208 101.273 33.0163 101.46 32.83L105 29.29L108.54 32.83C108.726 33.0147 108.978 33.1189 109.24 33.12C109.372 33.1208 109.502 33.0955 109.624 33.0458C109.746 32.996 109.857 32.9227 109.95 32.83C110.047 32.7404 110.125 32.6324 110.18 32.5123C110.236 32.3923 110.266 32.2625 110.271 32.1304C110.276 31.9984 110.254 31.8667 110.208 31.7431C110.161 31.6194 110.09 31.5062 110 31.41Z" fill="white"/>
</svg>
