<svg width="47" height="50" viewBox="0 0 47 50" fill="none" xmlns="http://www.w3.org/2000/svg">
<g clip-path="url(#clip0_1049_1691)">
<path d="M24.6201 46.849C23.6297 46.849 23.039 45.7901 23.3444 44.8833L29.16 27.6241C29.4163 26.8638 30.1953 26.4717 30.8998 26.7479C31.6043 27.0244 31.9677 27.8652 31.7114 28.6255L25.8959 45.8843C25.6951 46.4794 25.1748 46.849 24.6201 46.849Z" fill="#3AB4FB"/>
<path d="M39.1595 46.8488C38.6066 46.8488 38.087 46.4814 37.8852 45.8886L32.0113 28.6294C31.7529 27.8699 32.1141 27.0284 32.8176 26.7495C33.521 26.4703 34.3011 26.8601 34.5595 27.6193L40.4334 44.8785C40.7643 45.8505 40.0856 46.8488 39.1595 46.8488Z" fill="#1D9CFD"/>
<path d="M42.0674 3.125H21.7119C19.3566 3.125 17.447 5.1857 17.447 7.72743V24.9874C17.447 27.5291 19.3566 29.5898 21.7119 29.5898H42.0674C44.4227 29.5898 46.3323 27.5291 46.3323 24.9874V7.72743C46.3323 5.1857 44.4227 3.125 42.0674 3.125Z" fill="#EFF6FE"/>
<path d="M42.0676 3.125H31.7114V29.5898H42.0676C44.4228 29.5898 46.3324 27.5291 46.3324 24.9874V7.72743C46.3324 5.1857 44.4228 3.125 42.0676 3.125Z" fill="#D9E4EF"/>
<path d="M14.539 12.4352C14.539 15.9588 11.8921 18.8152 8.62692 18.8152C5.36176 18.8152 2.71484 15.9588 2.71484 12.4352C2.71484 8.91113 5.36176 6.05469 8.62692 6.05469C11.8921 6.05469 14.539 8.91113 14.539 12.4352Z" fill="#FFCFBE"/>
<path d="M21.832 27.8669C21.1615 27.5049 20.89 26.6252 21.2251 25.9016L24.86 18.0562C25.1955 17.3326 26.011 17.0396 26.6812 17.4013C27.3517 17.7633 27.6232 18.643 27.2881 19.3666L23.6532 27.2115C23.3174 27.9363 22.5015 28.2282 21.832 27.8669Z" fill="#FFB826"/>
<path d="M14.5399 12.4355C14.5399 15.9592 11.8929 18.8156 8.62671 18.8156V6.05469C11.8929 6.05469 14.5399 8.91113 14.5399 12.4355Z" fill="#F9BCAA"/>
<path d="M39.1594 11.5466H24.6201C23.8703 11.5466 23.2627 10.8905 23.2627 10.0818C23.2627 9.27269 23.8703 8.61694 24.6201 8.61694H39.1594C39.9088 8.61694 40.5168 9.27269 40.5168 10.0818C40.5168 10.8905 39.9091 11.5466 39.1594 11.5466Z" fill="#3AB4FB"/>
<path d="M39.1594 17.8223H33.0688C32.3191 17.8223 31.7114 17.1665 31.7114 16.3574C31.7114 15.5483 32.3191 14.8926 33.0688 14.8926H39.1594C39.9092 14.8926 40.5168 15.5483 40.5168 16.3574C40.5168 17.1665 39.9092 17.8223 39.1594 17.8223Z" fill="#1D9CFD"/>
<path d="M39.1594 24.0984H33.0688C32.3191 24.0984 31.7114 23.4423 31.7114 22.6335C31.7114 21.8244 32.3191 21.1687 33.0688 21.1687H39.1594C39.9092 21.1687 40.5168 21.8244 40.5168 22.6335C40.5168 23.4423 39.9092 24.0984 39.1594 24.0984Z" fill="#1D9CFD"/>
<path d="M39.1594 8.61694H31.7114V11.5466H39.1594C39.9092 11.5466 40.5168 10.8905 40.5168 10.0818C40.5168 9.27269 39.9092 8.61694 39.1594 8.61694Z" fill="#1D9CFD"/>
<path d="M12.9886 46.849H4.26518C3.51543 46.849 2.90779 46.1933 2.90779 45.3842V37.1959C1.21918 36.5829 0 34.8583 0 32.8319V28.125C0 25.6343 0.898212 23.2959 2.52885 21.5408C4.12874 19.8097 6.35217 18.8152 8.62722 18.8152H9.8266C12.2077 18.8152 13.6033 19.7563 15.5591 20.8057C17.7129 21.9615 20.4001 23.4035 22.1138 24.3248C23.695 25.1728 24.4522 27.1614 23.883 28.9615C23.8813 28.9672 23.8795 28.973 23.8777 28.9787C23.5352 30.072 22.7674 30.9528 21.771 31.3953C20.7713 31.8344 19.6511 31.7878 18.6917 31.2702C17.3237 30.5316 15.633 29.6196 14.3463 28.9257V45.3842C14.3459 46.1933 13.7383 46.849 12.9886 46.849Z" fill="#FF7579"/>
<path d="M22.1138 24.3248C20.4001 23.4035 17.7129 21.9615 15.5587 20.8057C13.6032 19.7563 12.2076 18.8152 9.82656 18.8152H8.62682C8.62682 18.8152 8.62682 18.8152 8.62646 18.8152V46.849H12.9885C13.7383 46.849 14.3459 46.1933 14.3459 45.3842V28.9257C15.6329 29.6196 17.3237 30.5316 18.6917 31.2702C19.6507 31.7878 20.7712 31.834 21.7706 31.3953C22.767 30.9528 23.5352 30.072 23.8777 28.9783C23.8795 28.9726 23.8812 28.9669 23.883 28.9611C24.4521 27.1614 23.6949 25.1728 22.1138 24.3248Z" fill="#FE4A60"/>
</g>
<defs>
<clipPath id="clip0_1049_1691">
<rect width="46.3323" height="50" fill="white"/>
</clipPath>
</defs>
</svg>
